<svg height="480pt" viewBox="-16 0 480 480" width="480pt" xmlns="http://www.w3.org/2000/svg"><path d="m152 64c4.417969 0 8 3.582031 8 8s3.582031 8 8 8 8-3.582031 8-8c-.042969-10.132812-6.445312-19.148438-16-22.527344v-9.472656c0-4.417969-3.582031-8-8-8s-8 3.582031-8 8v9.472656c-11.011719 3.878906-17.621094 15.132813-15.644531 26.640625 1.980469 11.507813 11.96875 19.910157 23.644531 19.886719 4.417969 0 8 3.582031 8 8s-3.582031 8-8 8-8-3.582031-8-8-3.582031-8-8-8-8 3.582031-8 8c.042969 10.132812 6.445312 19.148438 16 22.527344v9.472656c0 4.417969 3.582031 8 8 8s8-3.582031 8-8v-9.472656c11.011719-3.878906 17.621094-15.132813 15.644531-26.640625-1.980469-11.507813-11.96875-19.910157-23.644531-19.886719-4.417969 0-8-3.582031-8-8s3.582031-8 8-8zm0 0"/><path d="m152 176c12.117188.011719 24.105469-2.5 35.199219-7.375 3.90625-1.851562 5.636719-6.472656 3.90625-10.433594-1.730469-3.960937-6.292969-5.832031-10.304688-4.222656-31.746093 13.878906-68.875 3.203125-88.402343-25.417969-19.53125-28.617187-15.929688-67.082031 8.570312-91.582031s62.964844-28.101562 91.582031-8.570312c28.621094 19.527343 39.296875 56.65625 25.417969 88.402343-1.609375 4.011719.261719 8.574219 4.222656 10.304688 3.960938 1.730469 8.582032 0 10.433594-3.90625 15.566406-35.667969 5.855469-77.324219-23.878906-102.433594s-72.429688-27.707031-104.988282-6.382813c-32.554687 21.320313-47.242187 61.496094-36.109374 98.785157 11.128906 37.292969 45.433593 62.84375 84.351562 62.832031zm0 0"/><path d="m8 0c-4.417969 0-8 3.582031-8 8v464c0 4.417969 3.582031 8 8 8s8-3.582031 8-8v-464c0-4.417969-3.582031-8-8-8zm0 0"/><path d="m273.929688 170.792969-94.34375 110.0625-93.53125 23.382812c-3.917969.984375-6.488282 4.730469-5.992188 8.742188.492188 4.007812 3.898438 7.019531 7.9375 7.019531.65625.003906 1.3125-.078125 1.953125-.238281l96-24c1.605469-.40625 3.046875-1.296875 4.125-2.554688l95.394531-111.304687 119.253906-87.445313c3.566407-2.613281 4.339844-7.621093 1.730469-11.183593-2.613281-3.566407-7.621093-4.339844-11.183593-1.730469l-120 88c-.496094.367187-.945313.785156-1.34375 1.25zm0 0"/><path d="m104 368h-48c-8.835938 0-16 7.164062-16 16v88c0 4.417969 3.582031 8 8 8s8-3.582031 8-8v-56h48v56c0 4.417969 3.582031 8 8 8s8-3.582031 8-8v-88c0-8.835938-7.164062-16-16-16zm-48 32v-16h48v16zm0 0"/><path d="m208 336h-48c-8.835938 0-16 7.164062-16 16v120c0 4.417969 3.582031 8 8 8s8-3.582031 8-8v-72h48v72c0 4.417969 3.582031 8 8 8s8-3.582031 8-8v-120c0-8.835938-7.164062-16-16-16zm-48 48v-32h48v32zm0 0"/><path d="m320 264h-48c-8.835938 0-16 7.164062-16 16v192c0 4.417969 3.582031 8 8 8s8-3.582031 8-8v-144h48v144c0 4.417969 3.582031 8 8 8s8-3.582031 8-8v-192c0-8.835938-7.164062-16-16-16zm-48 48v-32h48v32zm0 0"/><path d="m432 160h-48c-8.835938 0-16 7.164062-16 16v296c0 4.417969 3.582031 8 8 8s8-3.582031 8-8v-200h48v200c0 4.417969 3.582031 8 8 8s8-3.582031 8-8v-296c0-8.835938-7.164062-16-16-16zm-48 96v-80h48v80zm0 0"/><path d="m288 40h40c4.417969 0 8-3.582031 8-8s-3.582031-8-8-8h-40c-4.417969 0-8 3.582031-8 8s3.582031 8 8 8zm0 0"/><path d="m272 72h56c4.417969 0 8-3.582031 8-8s-3.582031-8-8-8h-56c-4.417969 0-8 3.582031-8 8s3.582031 8 8 8zm0 0"/><path d="m272 104h32c4.417969 0 8-3.582031 8-8s-3.582031-8-8-8h-32c-4.417969 0-8 3.582031-8 8s3.582031 8 8 8zm0 0"/><path d="m48 248v-24h16v24c0 4.417969 3.582031 8 8 8s8-3.582031 8-8v-32c0-4.417969-3.582031-8-8-8h-32c-4.417969 0-8 3.582031-8 8v32c0 4.417969 3.582031 8 8 8s8-3.582031 8-8zm0 0"/><path d="m136 256c4.417969 0 8-3.582031 8-8v-32c0-4.417969-3.582031-8-8-8h-32c-4.417969 0-8 3.582031-8 8v32c0 4.417969 3.582031 8 8 8zm-24-32h16v16h-16zm0 0"/></svg>