<svg height="480pt" viewBox="0 0 480 480.00756" width="480pt" xmlns="http://www.w3.org/2000/svg"><path d="m472.003906 448h-25.472656c-3.339844-9.585938-12.378906-16.007812-22.527344-16.007812-10.148437 0-19.1875 6.421874-22.527344 16.007812h-50.945312c-3.339844-9.585938-12.378906-16.007812-22.527344-16.007812-10.148437 0-19.1875 6.421874-22.527344 16.007812h-17.472656v-16c0-8.835938 7.164063-16 16-16h152c4.417969 0 8 3.582031 8 8s3.582032 8 8 8c4.417969 0 8-3.582031 8-8 0-13.253906-10.746094-24-24-24h-24v-8c-.027344-22.082031-17.917968-39.972656-40-40h-32c-22.082031.027344-39.972656 17.917969-40 40v8h-16c-14.546875.054688-27.226562 9.914062-30.863281 24h-25.136719v-112h144c13.253906 0 24-10.746094 24-24v-192c0-13.253906-10.746094-24-24-24h-28v-24h8c4.417969 0 8-3.582031 8-8s-3.582031-8-8-8h-32v-16h32c4.417969 0 8-3.582031 8-8s-3.582031-8-8-8h-32c-8.835937 0-16 7.164062-16 16v16c0 8.835938 7.164063 16 16 16h8v24h-82.664062v-24h8c8.835937 0 16-7.164062 16-16v-16c0-8.835938-7.164063-16-16-16h-32c-8.835938 0-16 7.164062-16 16v16c0 8.835938 7.164062 16 16 16h8v24h-82.671875v-24h8c8.835937 0 16-7.164062 16-16v-16c0-8.835938-7.164063-16-16-16h-32c-8.835938 0-16 7.164062-16 16v16c0 8.835938 7.164062 16 16 16h8v24h-82.664063v-24h8c8.835938 0 16-7.164062 16-16v-16c0-8.835938-7.164062-16-16-16h-32c-8.835937 0-16 7.164062-16 16v16c0 8.835938 7.164063 16 16 16h8v24h-28c-13.253906 0-23.99999975 10.746094-23.99999975 24v72c0 4.417969 3.58203175 8 7.99999975 8 4.417969 0 8-3.582031 8-8v-72c0-4.417969 3.582032-8 8-8h368c4.417969 0 8 3.582031 8 8v192c0 4.417969-3.582031 8-8 8h-168c-4.417968 0-8 3.582031-8 8s3.582032 8 8 8h8v112h-48v-112h8c4.417969 0 8-3.582031 8-8s-3.582031-8-8-8h-168c-4.417968 0-8-3.582031-8-8v-64c0-4.417969-3.582031-8-8-8-4.417968 0-7.99999975 3.582031-7.99999975 8v64c0 13.253906 10.74609375 24 23.99999975 24h144v112h-160c-4.417968 0-7.99999975 3.582031-7.99999975 8s3.58203175 8 7.99999975 8h264v16c0 4.417969 3.582032 8 8 8h25.472656c3.339844 9.585938 12.378907 16.007812 22.527344 16.007812 10.148438 0 19.1875-6.421874 22.527344-16.007812h50.945312c3.339844 9.585938 12.378907 16.007812 22.527344 16.007812 10.148438 0 19.1875-6.421874 22.527344-16.007812h25.472656c4.417969 0 8-3.582031 8-8s-3.582031-8-8-8zm-80-80c13.253906 0 24 10.746094 24 24v8h-32v-32zm-56 24c0-13.253906 10.746094-24 24-24h8v32h-32zm-94.664062-376h32v16h-32zm-98.671875 0h32v16h-32zm-98.664063 0h32v16h-32zm284 448c-4.417968 0-8-3.582031-8-8s3.582032-8 8-8c4.417969 0 8 3.582031 8 8s-3.582031 8-8 8zm96 0c-4.417968 0-8-3.582031-8-8s3.582032-8 8-8c4.417969 0 8 3.582031 8 8s-3.582031 8-8 8zm0 0"/><path d="m40.003906 464h-32c-4.417968 0-7.99999975 3.582031-7.99999975 8s3.58203175 8 7.99999975 8h32c4.417969 0 8-3.582031 8-8s-3.582031-8-8-8zm0 0"/><path d="m136.003906 464h-32c-4.417968 0-8 3.582031-8 8s3.582032 8 8 8h32c4.417969 0 8-3.582031 8-8s-3.582031-8-8-8zm0 0"/><path d="m232.003906 464h-32c-4.417968 0-8 3.582031-8 8s3.582032 8 8 8h32c4.417969 0 8-3.582031 8-8s-3.582031-8-8-8zm0 0"/><path d="m80.003906 104h-40c-4.417968 0-8 3.582031-8 8v160c0 4.417969 3.582032 8 8 8h336c4.417969 0 8-3.582031 8-8v-160c0-4.417969-3.582031-8-8-8h-168c-4.417968 0-8 3.582031-8 8s3.582032 8 8 8h160v144h-320v-144h32c4.417969 0 8-3.582031 8-8s-3.582031-8-8-8zm0 0"/><path d="m176.003906 152c4.417969 0 8-3.582031 8-8s-3.582031-8-8-8h-96c-4.417968 0-8 3.582031-8 8v96c0 4.417969 3.582032 8 8 8h96c4.417969 0 8-3.582031 8-8v-48c0-4.417969-3.582031-8-8-8-4.417968 0-8 3.582031-8 8v40h-80v-80zm0 0"/><path d="m320.003906 168c4.417969 0 8-3.582031 8-8s-3.582031-8-8-8h-56c-4.417968 0-8 3.582031-8 8s3.582032 8 8 8zm0 0"/><path d="m224.003906 192c0 4.417969 3.582032 8 8 8h88c4.417969 0 8-3.582031 8-8s-3.582031-8-8-8h-88c-4.417968 0-8 3.582031-8 8zm0 0"/><path d="m232.003906 232h64c4.417969 0 8-3.582031 8-8s-3.582031-8-8-8h-64c-4.417968 0-8 3.582031-8 8s3.582032 8 8 8zm0 0"/></svg>