<svg height="480pt" viewBox="0 0 480.03893 480" width="480pt" xmlns="http://www.w3.org/2000/svg"><path d="m276.621094 446.105469-36.617188 17.109375-112-52.292969v-10.90625h40c4.417969 0 8-3.582031 8-8s-3.582031-8-8-8h-88v-64h208c4.417969 0 8-3.582031 8-8s-3.582031-8-8-8h-160v-120c.023438-13.246094 10.753906-23.976563 24-24h64c4.417969 0 8-3.582031 8-8s-3.582031-8-8-8h-64c-22.078125.03125-39.96875 17.921875-40 40v84.242187l-45.121094 37.597657c-.113281.097656-.175781.226562-.28125.320312-.210937.214844-.410156.441407-.597656.679688-.394531.449219-.734375.941406-1.015625 1.464843-.09375.140626-.179687.285157-.257812.433594-.074219.183594-.136719.375-.183594.566406-.261719.71875-.410156 1.46875-.449219 2.230469-.039062.15625-.070312.308594-.09375.464844v32h-39.351562l21.597656-27c2.339844-2.921875 2.339844-7.078125 0-10l-21.597656-27h31.351562c4.417969 0 8-3.582031 8-8s-3.582031-8-8-8h-48c-3.078125 0-5.882812 1.761719-7.214844 4.535156-1.332031 2.773438-.957031 6.0625.964844 8.464844l28 35-28 35c-1.921875 2.402344-2.296875 5.695313-.964844 8.464844 1.332032 2.773437 4.136719 4.539062 7.214844 4.535156h56v32c0 4.417969 3.582032 8 8 8h40v16c0 3.109375 1.800782 5.933594 4.617188 7.25l120 56c2.144531 1 4.621094 1 6.765625 0l40-18.664063c3.933593-1.910156 5.601562-6.621093 3.753906-10.582031-1.847656-3.960937-6.53125-5.703125-10.519531-3.914062zm-182.523438-142.089844 17.90625-14.917969v14.917969zm0 0"/><path d="m450.25 312.015625 28-35c1.925781-2.402344 2.300781-5.691406.96875-8.464844-1.335938-2.773437-4.140625-4.535156-7.214844-4.535156h-104v-80c-.03125-22.078125-17.921875-39.96875-40-40h-64c-4.417968 0-8 3.582031-8 8s3.582032 8 8 8h64c13.246094.023437 23.976563 10.753906 24 24v120h-16c-4.417968 0-8 3.582031-8 8s3.582032 8 8 8h64v64h-176c-4.417968 0-8 3.582031-8 8s3.582032 8 8 8h128v10.90625l-27.382812 12.796875c-2.636719 1.183594-4.429688 3.691406-4.695313 6.566406s1.039063 5.671875 3.414063 7.3125c2.375 1.644532 5.449218 1.878906 8.046875.617188l32-14.925782c2.824219-1.320312 4.625-4.15625 4.617187-7.273437v-16h40c4.417969 0 8-3.582031 8-8v-32h56c3.074219.003906 5.878906-1.761719 7.214844-4.535156 1.332031-2.769531.957031-6.0625-.96875-8.464844zm-82.246094-22.917969 17.902344 14.917969h-17.902344zm48 54.917969v-32c-.023437-.152344-.058594-.304687-.097656-.457031-.035156-.761719-.1875-1.511719-.445312-2.230469-.050782-.191406-.109376-.382813-.183594-.566406-.078125-.148438-.164063-.292969-.257813-.433594-.28125-.523437-.621093-1.015625-1.015625-1.464844-.1875-.238281-.386718-.464843-.601562-.679687-.101563-.09375-.167969-.222656-.277344-.320313l-31.027344-25.847656h73.257813l-21.601563 27c-2.339844 2.921875-2.339844 7.078125 0 10l21.601563 27zm0 0"/><path d="m152.003906 344.015625c-4.417968 0-8 3.582031-8 8s3.582032 8 8 8h48c4.417969 0 8-3.582031 8-8s-3.582031-8-8-8zm0 0"/><path d="m232.003906 344.015625c-4.417968 0-8 3.582031-8 8s3.582032 8 8 8h16c4.417969 0 8-3.582031 8-8s-3.582031-8-8-8zm0 0"/><path d="m272.003906 352.015625c0 4.417969 3.582032 8 8 8h40c4.417969 0 8-3.582031 8-8s-3.582031-8-8-8h-40c-4.417968 0-8 3.582031-8 8zm0 0"/><path d="m201.738281 68.3125 2.074219 27.007812c.167969 2.34375 1.359375 4.496094 3.257812 5.882813 1.898438 1.386719 4.3125 1.867187 6.597657 1.316406l26.335937-6.398437 26.335938 6.398437c.613281.152344 1.246094.226563 1.878906.226563 4.191406.011718 7.683594-3.214844 8-7.394532l2.074219-27.007812 14.199219-23.078125c1.25-2.007813 1.546874-4.460937.816406-6.707031-.730469-2.25-2.417969-4.058594-4.609375-4.941406l-25.046875-10.289063-17.554688-20.640625c-1.570312-1.699219-3.777344-2.6679688-6.09375-2.6679688s-4.527344.9687498-6.097656 2.6679688l-17.550781 20.640625-25.046875 10.289063c-2.171875.890624-3.839844 2.691406-4.566406 4.925781-.722657 2.230469-.433594 4.667969.796874 6.664062zm22.503907-30.929688c1.175781-.484374 2.222656-1.238281 3.050781-2.207031l12.710937-14.960937 12.710938 15c.828125.96875 1.871094 1.726562 3.046875 2.210937l18.152343 7.460938-10.285156 16.722656c-.675781 1.085937-1.074218 2.316406-1.167968 3.589844l-1.496094 19.5625-19.082032-4.617188c-1.234374-.308593-2.523437-.308593-3.757812 0l-19.082031 4.617188-1.496094-19.5625c-.09375-1.273438-.496094-2.503907-1.167969-3.589844l-10.289062-16.792969zm0 0"/><path d="m328.097656 88.648438 1.503906 19.367187c.320313 4.179687 3.8125 7.40625 8 7.394531.636719 0 1.265626-.078125 1.882813-.234375l18.910156-4.566406 18.914063 4.566406c2.277344.574219 4.695312.09375 6.582031-1.304687 1.898437-1.375 3.097656-3.515625 3.28125-5.855469l1.488281-19.390625 10.199219-16.578125c1.230469-1.996094 1.519531-4.433594.796875-6.664063-.726562-2.234374-2.394531-4.035156-4.566406-4.925781l-17.992188-7.410156-12.644531-14.804687c-1.570313-1.703126-3.78125-2.671876-6.097656-2.671876-2.316407 0-4.527344.96875-6.097657 2.671876l-12.605468 14.832031-17.984375 7.40625c-2.171875.894531-3.839844 2.695312-4.5625 4.925781-.726563 2.230469-.4375 4.667969.792969 6.667969zm19.441406-21.519532c1.179688-.488281 2.222657-1.25 3.046876-2.222656l7.769531-9.128906 7.769531 9.128906c.824219.972656 1.867188 1.734375 3.046875 2.222656l11.085937 4.558594-6.277343 10.21875c-.671875 1.085938-1.074219 2.316406-1.167969 3.589844l-.921875 11.953125-11.65625-2.824219c-1.234375-.300781-2.523437-.300781-3.757813 0l-11.65625 2.824219-.921874-11.953125c-.09375-1.273438-.492188-2.503906-1.160157-3.589844l-6.285156-10.21875zm0 0"/><path d="m96.097656 88.648438 1.503906 19.367187c.320313 4.179687 3.8125 7.40625 8 7.394531.636719 0 1.265626-.078125 1.882813-.234375l18.910156-4.566406 18.914063 4.566406c2.277344.574219 4.695312.09375 6.582031-1.304687 1.898437-1.375 3.097656-3.515625 3.28125-5.855469l1.488281-19.390625 10.199219-16.578125c1.230469-1.996094 1.519531-4.433594.796875-6.664063-.726562-2.234374-2.394531-4.035156-4.566406-4.925781l-17.992188-7.410156-12.644531-14.804687c-1.570313-1.703126-3.78125-2.671876-6.097656-2.671876-2.316407 0-4.527344.96875-6.097657 2.671876l-12.605468 14.832031-17.984375 7.40625c-2.171875.894531-3.839844 2.695312-4.5625 4.925781-.726563 2.230469-.4375 4.667969.792969 6.667969zm19.441406-21.519532c1.179688-.488281 2.222657-1.25 3.046876-2.222656l7.769531-9.128906 7.769531 9.128906c.824219.972656 1.867188 1.734375 3.046875 2.222656l11.085937 4.558594-6.277343 10.21875c-.671875 1.085938-1.074219 2.316406-1.167969 3.589844l-.921875 11.953125-11.65625-2.824219c-1.234375-.300781-2.523437-.300781-3.757813 0l-11.65625 2.824219-.921874-11.953125c-.09375-1.273438-.492188-2.503906-1.160157-3.589844l-6.285156-10.21875zm0 0"/><path d="m302.402344 176.175781-79.199219 15.839844h-23.199219c-14.46875-.050781-27.160156 9.648437-30.914062 23.621094-3.753906 13.972656 2.367187 28.722656 14.914062 35.933593v12.445313c0 13.253906 10.746094 24 24 24s24-10.746094 24-24v-6.238281l70.398438 14.078125c2.355468.480469 4.800781-.121094 6.660156-1.640625 1.863281-1.519532 2.941406-3.796875 2.941406-6.199219v-80c0-2.402344-1.078125-4.675781-2.941406-6.195313-1.859375-1.519531-4.304688-2.125-6.660156-1.644531zm-102.398438 31.839844h16v32h-16c-8.835937 0-16-7.164063-16-16s7.164063-16 16-16zm16 56c0 4.417969-3.582031 8-8 8-4.417968 0-8-3.582031-8-8v-8h16zm80-9.757813-64-12.800781v-34.886719l64-12.800781zm0 0"/><path d="m11.386719 157.222656 1.488281 19.402344c.335938 4.417969 4.191406 7.726562 8.609375 7.390625s7.726563-4.1875 7.390625-8.605469l-1.671875-21.335937c-.09375-1.273438-.496094-2.503907-1.167969-3.585938l-6.28125-10.214843 11.089844-4.5625c1.175781-.484376 2.222656-1.242188 3.046875-2.214844l7.769531-9.136719 7.765625 9.136719c.828125.972656 1.871094 1.730468 3.050781 2.214844l11.085938 4.5625-6.285156 10.214843c-.667969 1.085938-1.066406 2.3125-1.160156 3.585938l-1.640626 21.335937c-.167968 2.117188.511719 4.214844 1.894532 5.828125 1.378906 1.617188 3.347656 2.613281 5.464844 2.777344h.617187c4.191406.011719 7.679687-3.210937 8-7.390625l1.488281-19.402344 10.199219-16.566406c1.230469-1.996094 1.519531-4.433594.792969-6.667969-.722656-2.230469-2.390625-4.03125-4.5625-4.921875l-18.015625-7.449218-12.609375-14.785157c-1.566406-1.707031-3.777344-2.675781-6.09375-2.675781s-4.527344.96875-6.097656 2.675781l-12.605469 14.785157-17.992188 7.40625c-2.171875.894531-3.839843 2.695312-4.566406 4.925781-.722656 2.230469-.4335938 4.667969.796875 6.667969zm0 0"/><path d="m397.097656 133.992188c-.722656 2.230468-.429687 4.667968.800782 6.664062l10.199218 16.566406 1.488282 19.402344c.398437 4.355469 4.214843 7.582031 8.578124 7.25 4.359376-.332031 7.644532-4.101562 7.375-8.464844l-1.597656-21.335937c-.097656-1.273438-.496094-2.5-1.160156-3.585938l-6.289062-10.214843 11.085937-4.5625c1.179687-.484376 2.222656-1.242188 3.050781-2.214844l7.765625-9.136719 7.769531 9.136719c.824219.972656 1.871094 1.730468 3.046876 2.214844l11.089843 4.5625-6.28125 10.214843c-.671875 1.082031-1.074219 2.3125-1.167969 3.585938l-1.601562 21.335937c-.347656 4.382813 2.90625 8.230469 7.289062 8.605469h.625c4.191407.011719 7.679688-3.210937 8-7.390625l1.488282-19.402344 10.199218-16.566406c1.230469-1.996094 1.519532-4.433594.796876-6.667969-.726563-2.230469-2.394532-4.03125-4.566407-4.921875l-18.023437-7.449218-12.605469-14.824219c-1.570313-1.707031-3.78125-2.675781-6.097656-2.675781-2.316407 0-4.527344.96875-6.097657 2.675781l-12.605468 14.824219-17.984375 7.40625c-2.179688.902343-3.851563 2.71875-4.570313 4.96875zm0 0"/></svg>