<svg height="480pt" viewBox="-16 0 480 480.01184" width="480pt" xmlns="http://www.w3.org/2000/svg"><path d="m208.007812 368.011719c4.417969 0 8 3.582031 8 8s3.578126 8 8 8c4.417969 0 8-3.582031 8-8-.042968-10.132813-6.445312-19.148438-16-22.527344v-9.472656c0-4.417969-3.582031-8-8-8-4.421874 0-8 3.582031-8 8v9.472656c-11.015624 3.878906-17.625 15.132813-15.644531 26.640625 1.976563 11.507812 11.96875 19.910156 23.644531 19.886719 4.417969 0 8 3.582031 8 8s-3.582031 8-8 8c-4.421874 0-8-3.582031-8-8s-3.582031-8-8-8c-4.421874 0-8 3.582031-8 8 .039063 10.132812 6.441407 19.148437 16 22.527343v9.472657c0 4.417969 3.578126 8 8 8 4.417969 0 8-3.582031 8-8v-9.472657c11.011719-3.878906 17.621094-15.132812 15.640626-26.640624-1.976563-11.507813-11.96875-19.910157-23.640626-19.886719-4.421874 0-8-3.582031-8-8s3.578126-8 8-8zm0 0"/><path d="m208.007812 304.011719c-48.601562 0-88 39.398437-88 88 0 48.601562 39.398438 88 88 88 48.597657 0 88-39.398438 88-88-.058593-48.578125-39.425781-87.941407-88-88zm0 160c-39.765624 0-72-32.234375-72-72s32.234376-72 72-72c39.761719 0 72 32.234375 72 72-.046874 39.746093-32.253906 71.957031-72 72zm0 0"/><path d="m424.007812 240.011719c-4.421874 0-8 3.582031-8 8s3.578126 8 8 8c4.417969 0 8 3.582031 8 8v152c0 4.417969-3.582031 8-8 8h-40c0-13.253907-10.746093-24-24-24h-8c-.019531-2.816407-.785156-5.578125-2.226562-8 1.441406-2.421875 2.207031-5.183594 2.226562-8h8c13.253907 0 24-10.746094 24-24 13.253907 0 24-10.746094 24-24v-136c0-13.253907-10.746093-24-24-24h-16c-13.257812 0-24 10.746093-24 24v40h-64c-4.421874 0-8-3.582031-8-8v-16h8c3.800782 0 7.078126-2.675781 7.839844-6.398438l4.796875-24c.796875-4.300781-2.007812-8.445312-6.296875-9.300781-4.289062-.859375-8.472656 1.886719-9.390625 6.164062l-3.511719 17.535157h-24.640624l6.402343-64h31.039063l-2.878906 14.398437c-.886719 4.332032 1.910156 8.558594 6.238281 9.441406.527343.109376 1.0625.164063 1.601562.160157 3.800781 0 7.078125-2.675781 7.839844-6.398438l3.886719-19.449219 43.59375-14.535156c3.277344-1.089844 5.488281-4.160156 5.480468-7.617187v-64c-.003906-3.441407-2.207031-6.496094-5.472656-7.582031l-48-16c-.753906-.25-1.542968-.375-2.335937-.378907-.066407 0-.121094 0-.191407 0h-79.203124l-111.117188-23.863281c-2.367188-.523438-4.839844.066406-6.714844 1.601562-1.878906 1.519532-2.96875 3.804688-2.964844 6.222657v32.800781c-18.644531 3.785156-32.042968 20.175781-32.042968 39.199219 0 19.023437 13.398437 35.414062 32.042968 39.199219v32.800781c-.003906 2.417969 1.089844 4.703125 2.96875 6.222656 1.878907 1.519531 4.347657 2.109375 6.710938 1.601563l111.117188-23.824219h22.402343l-3.199219 32h-20c-13.257812 0-24 10.746093-24 24v8h-64c-13.257812 0-24 10.746093-24 24v40c0 4.417969-3.582031 8-8 8h-40c-13.257812 0-24 10.746093-24 24v40c0 13.253906 10.742188 24 24 24h8v24c.015626 2.816406.78125 5.578125 2.222657 8-1.441407 2.421875-2.207031 5.183593-2.222657 8v24h-40c-4.421874 0-8-3.582031-8-8v-152c0-4.417969 3.578126-8 8-8h56c4.417969 0 8-3.582031 8-8s-3.582031-8-8-8h-56c-13.257812 0-23.9999995 10.746093-23.9999995 24v152c0 13.253906 10.7421875 24 23.9999995 24h40v24c0 8.835937 7.160157 16 16 16h56c4.417969 0 8-3.582031 8-8s-3.582031-8-8-8h-24v-144h24c4.417969 0 8-3.582031 8-8s-3.582031-8-8-8h-56c-8.839843 0-16 7.164062-16 16v24h-8c-4.421874 0-8-3.582031-8-8v-40c0-4.417969 3.578126-8 8-8h40c13.253907 0 24-10.746094 24-24v-40c0-4.417969 3.578126-8 8-8h64v16c0 4.417969-3.582031 8-8 8h-40c-4.421874 0-8 3.582031-8 8s3.578126 8 8 8h40c13.253907 0 24-10.746094 24-24v-40c0-4.417969 3.578126-8 8-8h18.398438l-2.320312 23.199219c-.226563 2.242187.503906 4.476562 2.011718 6.152343 1.507813 1.675781 3.652344 2.636719 5.910156 2.648438h16v16c0 13.253906 10.742188 24 24 24h96c4.417969 0 8-3.582031 8-8s-3.582031-8-8-8h-16v-40c0-4.417969 3.578126-8 8-8h16c4.417969 0 8 3.582031 8 8v136c0 4.417969-3.582031 8-8 8 0-13.253907-10.746093-24-24-24h-8c0-8.835938-7.164062-16-16-16h-56c-4.421874 0-8 3.582031-8 8s3.578126 8 8 8h56v64h-16v-40c0-4.417969-3.582031-8-8-8-4.421874 0-8 3.582031-8 8v48c0 4.417969 3.578126 8 8 8h24v64h-16v-40c0-4.417969-3.582031-8-8-8-4.421874 0-8 3.582031-8 8v40h-25.339843c-4.417969 0-8 3.582031-8 8s3.582031 8 8 8h57.339843c8.835938 0 16-7.164063 16-16h8c13.253907 0 24-10.746094 24-24h40c13.253907 0 24-10.746094 24-24v-152c0-13.253907-10.746093-24-24-24zm-88-133.769531-32 10.664062v-73.789062l32 10.664062zm-256-26.230469c.011719-10.167969 6.417969-19.230469 16-22.632813v45.265625c-9.582031-3.402343-15.988281-12.464843-16-22.632812zm32 32v-94.105469l96 20.578125v83.054687l-56 12v-69.527343c0-4.417969-3.582031-8-8-8-4.421874 0-8 3.582031-8 8v72.960937l-24 5.144532zm112-32h40c4.417969 0 8-3.582031 8-8s-3.582031-8-8-8h-40v-24h64v80h-64zm-144 384v-64h16v64zm0-144h16v64h-16zm280 16c4.417969 0 8 3.582031 8 8v16c0 4.417969-3.582031 8-8 8h-8v-32zm8 104c0 4.417969-3.582031 8-8 8h-8v-32h8c4.417969 0 8 3.582031 8 8zm0 0"/><path d="m8.007812 88.011719h32c4.417969 0 8-3.582031 8-8s-3.582031-8-8-8h-32c-4.421874 0-7.9999995 3.582031-7.9999995 8s3.5781255 8 7.9999995 8zm0 0"/><path d="m29.476562 31.597656 24 8c4.199219 1.394532 8.734376-.875 10.128907-5.074218 1.398437-4.195313-.875-8.730469-5.070313-10.128907l-24-8c-4.199218-1.394531-8.734375.875-10.128906 5.074219-1.398438 4.195312.875 8.730469 5.070312 10.128906zm0 0"/><path d="m51.566406 121.355469-24 16c-3.675781 2.453125-4.667968 7.421875-2.214844 11.097656 2.449219 3.675781 7.417969 4.667969 11.09375 2.214844l24-16c3.675782-2.453125 4.667969-7.421875 2.214844-11.097657-2.449218-3.675781-7.417968-4.667968-11.09375-2.214843zm0 0"/></svg>