<svg height="480pt" viewBox="0 -48 480 480" width="480pt" xmlns="http://www.w3.org/2000/svg"><path d="m472 32c-4.417969 0-8 3.582031-8 8v152c0 13.253906-10.746094 24-24 24h-235.367188c-4.417968 0-8 3.582031-8 8v29.824219l-65.433593-78c-2.835938-3.382813-7.878907-3.828125-11.261719-.992188-23.65625 19.902344-26.738281 55.191407-6.898438 78.894531l41.144532 49.027344c4.078125 4.890625 9.941406 7.949219 16.289062 8.484375.710938.066407 1.421875.097657 2.128906.097657 5.628907.011718 11.078126-1.972657 15.382813-5.601563l8.671875-7.269531v26.007812c-4.84375-2.878906-10.367188-4.414062-16-4.449218-17.671875 0-32 14.328124-32 32 0 17.671874 14.328125 32 32 32s32-14.328126 32-32v-54.253907l34.816406 41.496094.039063.046875c5.4375 6.519531 13.261719 10.59375 21.71875 11.3125.960937.078125 1.90625.117188 2.847656.117188 12.429687-.019532 23.71875-7.238282 28.957031-18.503907 5.242188-11.269531 3.484375-24.554687-4.507812-34.070312-2.84375-3.382813-7.890625-3.820313-11.269532-.976563-3.382812 2.84375-3.820312 7.890625-.976562 11.273438 5.675781 6.769531 4.792969 16.859375-1.980469 22.539062-6.769531 5.679688-16.859375 4.792969-22.539062-1.976562-5.679688-6.769532-4.792969-16.859375 1.972656-22.539063 3.277344-2.867187 3.660156-7.828125.863281-11.160156-2.796875-3.335937-7.75-3.824219-11.140625-1.097656-4.296875 3.644531-7.546875 8.367187-9.417969 13.679687l-16.726562-19.910156h11.320312c13.253907 0 24-10.746094 24-24v-32h179.367188c22.082031-.027344 39.972656-17.917969 40-40v-152c0-4.417969-3.582031-8-8-8zm-294.320312 261.457031c-3.382813 2.839844-8.429688 2.398438-11.273438-.984375l-41.140625-49.023437c-12.195313-14.574219-12.476563-35.707031-.679687-50.601563l71.476562 85.183594zm2.953124 74.542969c-8.835937 0-16-7.164062-16-16s7.164063-16 16-16c8.835938 0 16 7.164062 16 16s-7.164062 16-16 16zm64-104c0 4.417969-3.582031 8-8 8h-24v-40h32zm0 0"/><path d="m72 216h-32c-13.253906 0-24-10.746094-24-24v-152c0-13.253906 10.746094-24 24-24h128v160c0 4.417969 3.582031 8 8 8s8-3.582031 8-8v-160h256c4.417969 0 8-3.582031 8-8s-3.582031-8-8-8h-400c-22.082031.0273438-39.9726562 17.917969-40 40v152c.0273438 22.082031 17.917969 39.972656 40 40h32c4.417969 0 8-3.582031 8-8s-3.582031-8-8-8zm0 0"/><path d="m112 152v-64h16v64c0 4.417969 3.582031 8 8 8s8-3.582031 8-8v-72c0-4.417969-3.582031-8-8-8h-9.472656c.949218-2.5625 1.445312-5.269531 1.472656-8-.007812-9.460938-5.570312-18.035156-14.210938-21.894531-8.636718-3.859375-18.738281-2.285157-25.789062 4.023437-8.128906-7.4375-20.285156-8.347656-29.433594-2.207031-9.144531 6.140625-12.902344 17.742187-9.09375 28.078125h-9.472656c-4.417969 0-8 3.582031-8 8v96c0 4.417969 3.582031 8 8 8h48c4.417969 0 8-3.582031 8-8s-3.582031-8-8-8h-8v-80h16v64c0 4.417969 3.582031 8 8 8s8-3.582031 8-8zm-8-96c4.417969 0 8 3.582031 8 8s-3.582031 8-8 8h-8v-8c0-4.417969 3.582031-8 8-8zm-56 112v-80h16v80zm24-96c-4.417969 0-8-3.582031-8-8s3.582031-8 8-8 8 3.582031 8 8v8zm0 0"/><path d="m424 40h-168c-4.417969 0-8 3.582031-8 8s3.582031 8 8 8h168c4.417969 0 8-3.582031 8-8s-3.582031-8-8-8zm0 0"/><path d="m296 80c0-4.417969-3.582031-8-8-8h-72c-4.417969 0-8 3.582031-8 8s3.582031 8 8 8h72c4.417969 0 8-3.582031 8-8zm0 0"/><path d="m424 144c4.417969 0 8-3.582031 8-8v-24c0-4.417969-3.582031-8-8-8h-56c-4.417969 0-8 3.582031-8 8v64c0 4.417969 3.582031 8 8 8h56c4.417969 0 8-3.582031 8-8s-3.582031-8-8-8h-48v-48h40v16c0 4.417969 3.582031 8 8 8zm0 0"/><path d="m344 144c0-4.417969-3.582031-8-8-8h-56c-4.417969 0-8 3.582031-8 8s3.582031 8 8 8h56c4.417969 0 8-3.582031 8-8zm0 0"/><path d="m296 168c-4.417969 0-8 3.582031-8 8s3.582031 8 8 8h24c4.417969 0 8-3.582031 8-8s-3.582031-8-8-8zm0 0"/><path d="m424 72h-32c-4.417969 0-8 3.582031-8 8s3.582031 8 8 8h32c4.417969 0 8-3.582031 8-8s-3.582031-8-8-8zm0 0"/><path d="m216 152h32c4.417969 0 8-3.582031 8-8s-3.582031-8-8-8h-32c-4.417969 0-8 3.582031-8 8s3.582031 8 8 8zm0 0"/><path d="m216 184h48c4.417969 0 8-3.582031 8-8s-3.582031-8-8-8h-48c-4.417969 0-8 3.582031-8 8s3.582031 8 8 8zm0 0"/><path d="m360 80c0-4.417969-3.582031-8-8-8h-32c-4.417969 0-8 3.582031-8 8s3.582031 8 8 8h32c4.417969 0 8-3.582031 8-8zm0 0"/></svg>