<svg height="480pt" viewBox="0 0 480 480" width="480pt" xmlns="http://www.w3.org/2000/svg"><path d="m128 448h64c4.417969 0 8-3.582031 8-8s-3.582031-8-8-8h-64c-4.417969 0-8-3.582031-8-8s3.582031-8 8-8h64c4.417969 0 8-3.582031 8-8s-3.582031-8-8-8h-64c-13.253906 0-24 10.746094-24 24s10.746094 24 24 24zm0 0"/><path d="m48 56v256c0 4.417969 3.582031 8 8 8s8-3.582031 8-8v-256c0-4.417969-3.582031-8-8-8s-8 3.582031-8 8zm0 0"/><path d="m88 104c-4.417969 0-8 3.582031-8 8s3.582031 8 8 8h48c4.417969 0 8-3.582031 8-8v-48c0-4.417969-3.582031-8-8-8h-48c-4.417969 0-8 3.582031-8 8s3.582031 8 8 8h40v32zm0 0"/><path d="m88 168h24c4.417969 0 8-3.582031 8-8s-3.582031-8-8-8h-24c-4.417969 0-8 3.582031-8 8s3.582031 8 8 8zm0 0"/><path d="m88 208h48c4.417969 0 8-3.582031 8-8s-3.582031-8-8-8h-48c-4.417969 0-8 3.582031-8 8s3.582031 8 8 8zm0 0"/><path d="m200 312h-32c-4.417969 0-8 3.582031-8 8s3.582031 8 8 8h32c4.417969 0 8-3.582031 8-8s-3.582031-8-8-8zm0 0"/><path d="m200 272h-80c-4.417969 0-8 3.582031-8 8s3.582031 8 8 8h80c4.417969 0 8-3.582031 8-8s-3.582031-8-8-8zm0 0"/><path d="m200 224h-32c-4.417969 0-8 3.582031-8 8s3.582031 8 8 8h32c4.417969 0 8-3.582031 8-8s-3.582031-8-8-8zm0 0"/><path d="m200 192h-24c-4.417969 0-8 3.582031-8 8s3.582031 8 8 8h24c4.417969 0 8-3.582031 8-8s-3.582031-8-8-8zm0 0"/><path d="m88 240h32c4.417969 0 8-3.582031 8-8s-3.582031-8-8-8h-32c-4.417969 0-8 3.582031-8 8s3.582031 8 8 8zm0 0"/><path d="m312 368h-296v-328c0-13.253906 10.746094-24 24-24h112c4.417969 0 8-3.582031 8-8s-3.582031-8-8-8h-112c-22.082031.0273438-39.9726562 17.917969-40 40v400c.0273438 22.082031 17.917969 39.972656 40 40h240c22.082031-.027344 39.972656-17.917969 40-40v-64c0-4.417969-3.582031-8-8-8zm-8 72c0 13.253906-10.746094 24-24 24h-240c-13.253906 0-24-10.746094-24-24v-56h288zm0 0"/><path d="m456 176h-208c-13.253906 0-24 10.746094-24 24v128c0 13.253906 10.746094 24 24 24h208c13.253906 0 24-10.746094 24-24v-32c0-4.417969-3.582031-8-8-8s-8 3.582031-8 8v32c-.027344 3.097656-1.839844 5.90625-4.65625 7.199219l-64.289062-84.054688 63.511718-58.625c3.230469 1.070313 5.417969 4.078125 5.433594 7.480469v32c0 4.417969 3.582031 8 8 8s8-3.582031 8-8v-32c0-13.253906-10.746094-24-24-24zm-216 24c.015625-3.402344 2.203125-6.410156 5.433594-7.480469l63.511718 58.625-64.289062 84.054688c-2.816406-1.292969-4.628906-4.101563-4.65625-7.199219zm199.816406 136h-175.632812l56.558594-73.960938 25.824218 23.839844c3.066406 2.835938 7.800782 2.835938 10.867188 0l25.824218-23.839844zm-60.953125-91.679688-26.863281 24.792969-26.839844-24.800781-56.695312-52.3125h167.070312zm0 0"/><path d="m472 256h-32c-4.417969 0-8 3.582031-8 8s3.582031 8 8 8h32c4.417969 0 8-3.582031 8-8s-3.582031-8-8-8zm0 0"/><path d="m192 32c4.417969 0 8-3.582031 8-8s3.582031-8 8-8h160c4.417969 0 8 3.582031 8 8v96c0 4.417969-3.582031 8-8 8h-148c-1.015625 0-2.023438.191406-2.96875.566406l-43.429688 17.371094 25.886719-71.203125c1.101563-2.710937.632813-5.808594-1.222656-8.074219-1.851563-2.265625-4.796875-3.335937-7.671875-2.792968-2.878906.542968-5.226562 2.613281-6.128906 5.398437l-32 88c-1.078125 2.960937-.316406 6.28125 1.945312 8.476563 2.261719 2.195312 5.605469 2.859374 8.535156 1.691406l58.589844-23.433594h146.464844c13.253906 0 24-10.746094 24-24v-96c0-13.253906-10.746094-24-24-24h-160c-13.253906 0-24 10.746094-24 24 0 4.417969 3.582031 8 8 8zm0 0"/><path d="m336 48c4.417969 0 8-3.582031 8-8s-3.582031-8-8-8h-72c-4.417969 0-8 3.582031-8 8s3.582031 8 8 8zm0 0"/><path d="m224 72c0 4.417969 3.582031 8 8 8h104c4.417969 0 8-3.582031 8-8s-3.582031-8-8-8h-104c-4.417969 0-8 3.582031-8 8zm0 0"/><path d="m232 112h56c4.417969 0 8-3.582031 8-8s-3.582031-8-8-8h-56c-4.417969 0-8 3.582031-8 8s3.582031 8 8 8zm0 0"/><path d="m336 96h-16c-4.417969 0-8 3.582031-8 8s3.582031 8 8 8h16c4.417969 0 8-3.582031 8-8s-3.582031-8-8-8zm0 0"/></svg>