<svg height="479pt" viewBox="0 -23 479.98749 479" width="479pt" xmlns="http://www.w3.org/2000/svg"><path d="m208 184.492188c.007812 6.570312 2.050781 12.976562 5.847656 18.335937-8.421875 3.933594-13.816406 12.371094-13.847656 21.664063v48c0 4.417968 3.582031 8 8 8h32c4.417969 0 8-3.582032 8-8 0-4.417969-3.582031-8-8-8h-24v-40c0-4.417969 3.582031-8 8-8h32c4.417969 0 8 3.582031 8 8v48c0 4.417968 3.582031 8 8 8s8-3.582032 8-8v-48c-.03125-9.292969-5.425781-17.730469-13.847656-21.664063 7.964844-11.292969 7.777344-26.425781-.464844-37.519531-8.238281-11.09375-22.671875-15.644532-35.785156-11.285156-13.113282 4.363281-21.949219 16.648437-21.902344 30.46875zm48 0c0 8.839843-7.164062 16-16 16s-16-7.160157-16-16c0-8.835938 7.164062-16 16-16s16 7.164062 16 16zm0 0"/><path d="m136 216.492188c0 57.4375 46.5625 104 104 104s104-46.5625 104-104-46.5625-104-104-104c-57.410156.066406-103.933594 46.589843-104 104zm192 0c0 48.601562-39.398438 88-88 88s-88-39.398438-88-88c0-48.597657 39.398438-88 88-88 48.578125.058593 87.941406 39.425781 88 88zm0 0"/><path d="m72 208.492188c-4.417969 0-8 3.582031-8 8 0 4.417968 3.582031 8 8 8h32c4.417969 0 8-3.582032 8-8 0-4.417969-3.582031-8-8-8zm0 0"/><path d="m376 208.492188c-4.417969 0-8 3.582031-8 8 0 4.417968 3.582031 8 8 8h32c4.417969 0 8-3.582032 8-8 0-4.417969-3.582031-8-8-8zm0 0"/><path d="m444.464844 254.597656c.808594-4.34375-2.058594-8.523437-6.40625-9.332031-4.34375-.808594-8.523438 2.058594-9.332032 6.402344-16.085937 86.261719-88.613281 150.640625-176.171874 156.386719-87.5625 5.742187-167.875-48.605469-195.097657-132.023438 8 6.621094 16.574219 13.238281 25.597657 19.679688 30.007812 59.707031 91.289062 97.21875 158.109374 96.78125 66.820313-.433594 127.605469-38.746094 156.828126-98.839844 1.941406-3.976563.292968-8.773438-3.683594-10.714844-3.976563-1.941406-8.773438-.292969-10.714844 3.683594-24 49.355468-71.660156 82.933594-126.210938 88.921875-54.554687 5.988281-108.359374-16.453125-142.496093-59.425781 37.832031 22.804687 80.957031 35.339843 125.113281 36.375 4.417969 0 8-3.582032 8-8 0-4.417969-3.582031-8-8-8-54.785156 0-105.097656-24-145.527344-52.328126-.082031-.070312-.175781-.117187-.257812-.183593-15.925782-11.234375-31.09375-23.503907-45.414063-36.726563-2.53125-2.34375-6.28125-2.796875-9.300781-1.128906s-4.628906 5.082031-3.996094 8.472656c18.386719 98.445313 104.316406 169.808594 204.464844 169.808594s186.074219-71.363281 204.464844-169.808594zm0 0"/><path d="m35.535156 178.390625c-.632812 3.390625.976563 6.804687 3.996094 8.472656s6.769531 1.214844 9.300781-1.128906c14.296875-13.210937 29.441407-25.46875 45.34375-36.695313.105469-.070312.207031-.144531.304688-.226562 40.433593-28.320312 90.742187-52.320312 145.519531-52.320312 55.089844 0 105.65625 24.242187 146.199219 52.800781.199219.160156.410156.3125.625.449219 15.535156 11.042968 30.347656 23.066406 44.34375 36 2.53125 2.34375 6.28125 2.796874 9.300781 1.128906 3.019531-1.667969 4.628906-5.082032 3.996094-8.472656-15.003906-80.132813-75.417969-144.121094-154.550782-163.703126-2.785156-.703124-5.730468.136719-7.722656 2.203126-1.992187 2.066406-2.722656 5.039062-1.917968 7.796874.804687 2.753907 3.023437 4.867188 5.816406 5.535157 64.261718 15.910156 115.808594 63.78125 136.421875 126.695312-8-6.617187-16.550781-13.222656-25.597657-19.648437-29.804687-59.335938-90.523437-96.785156-156.921874-96.785156-66.398438 0-127.117188 37.449218-156.921876 96.785156-9.039062 6.402344-17.597656 13.039062-25.597656 19.648437 20.617188-62.917969 72.171875-110.789062 136.441406-126.695312 4.261719-1.078125 6.859376-5.398438 5.804688-9.667969-1.050781-4.273438-5.351562-6.894531-9.628906-5.867188-79.136719 19.582032-139.546875 83.566407-154.554688 163.695313zm204.464844-121.898437c48.75-.160157 94.871094 22.101562 125.0625 60.378906-37.8125-22.796875-80.921875-35.332032-125.0625-36.378906-44.140625 1.046874-87.25 13.582031-125.0625 36.378906 30.191406-38.277344 76.3125-60.539063 125.0625-60.378906zm0 0"/><path d="m376 16.492188h56c4.417969 0 8 3.582031 8 8v56c0 4.417968 3.582031 8 8 8s8-3.582032 8-8v-56c0-13.253907-10.746094-24-24-24h-56c-4.417969 0-8 3.582031-8 8 0 4.417968 3.582031 8 8 8zm0 0"/><path d="m32 88.492188c4.417969 0 8-3.582032 8-8v-56c0-4.417969 3.582031-8 8-8h56c4.417969 0 8-3.582032 8-8 0-4.417969-3.582031-8-8-8h-56c-13.253906 0-24 10.746093-24 24v56c0 4.417968 3.582031 8 8 8zm0 0"/><path d="m104 416.492188h-56c-4.417969 0-8-3.582032-8-8v-56c0-4.417969-3.582031-8-8-8s-8 3.582031-8 8v56c0 13.257812 10.746094 24 24 24h56c4.417969 0 8-3.582032 8-8 0-4.417969-3.582031-8-8-8zm0 0"/><path d="m448 344.492188c-4.417969 0-8 3.582031-8 8v56c0 4.417968-3.582031 8-8 8h-56c-4.417969 0-8 3.582031-8 8 0 4.417968 3.582031 8 8 8h56c13.253906 0 24-10.742188 24-24v-56c0-4.417969-3.582031-8-8-8zm0 0"/><path d="m29.542969 239.941406c3.179687-3.0625 3.277343-8.121094.21875-11.304687-4.800781-4.976563-8.585938-9.152344-11.203125-12.144531 2.640625-2.992188 6.402344-7.199219 11.203125-12.140626 2.71875-3.226562 2.464843-8.011718-.578125-10.929687-3.042969-2.921875-7.832032-2.976563-10.941406-.128906-10.402344 10.785156-16.203126 17.878906-16.441407 18.175781-2.402343 2.945312-2.402343 7.167969 0 10.113281.238281.296875 6.03125 7.390625 16.441407 18.175781 3.0625 3.179688 8.121093 3.273438 11.300781.214844zm0 0"/><path d="m478.199219 211.4375c-.238281-.296875-6.03125-7.390625-16.4375-18.175781-1.953125-2.183594-4.941407-3.125-7.792969-2.457031-2.851562.667968-5.109375 2.84375-5.886719 5.664062-.777343 2.824219.050781 5.847656 2.160157 7.882812 4.796874 4.972657 8.582031 9.148438 11.199218 12.140626-2.640625 2.992187-6.402344 7.203124-11.199218 12.144531-2.199219 2.015625-3.09375 5.082031-2.328126 7.964843.769532 2.878907 3.078126 5.09375 5.984376 5.742188 2.910156.648438 5.941406-.371094 7.863281-2.648438 10.398437-10.785156 16.199219-17.882812 16.4375-18.175781 2.382812-2.9375 2.382812-7.144531 0-10.082031zm0 0"/></svg>