<svg height="480pt" viewBox="-8 0 480 480.14442" width="480pt" xmlns="http://www.w3.org/2000/svg"><path d="m430.1875 192.984375 18.488281 42.265625.042969.085938c.160156.261718.335938.515624.527344.761718.328125.632813.742187 1.21875 1.222656 1.742188.839844.585937 1.695312 1.144531 2.570312 1.679687.703126.25 1.441407.398438 2.191407.441407.269531.078124.542969.140624.824219.183593h.039062c1.042969-.199219 2.082031-.417969 3.121094-.65625h.039062c.253906-.15625.5-.328125.734375-.511719.644531-.335937 1.242188-.753906 1.777344-1.25.324219-.394531.613281-.820312.855469-1.269531.308594-.402343.578125-.835937.800781-1.289062.238281-.679688.378906-1.390625.421875-2.113281.089844-.296876.160156-.601563.210938-.910157v-176c0-13.253906-10.746094-24-24-24h-24v-16c-.003907-4.035156-3.007813-7.4375-7.007813-7.9375l-64-8c-2.277344-.2812498-4.566406.421875-6.289063 1.941407-1.71875 1.519531-2.703124 3.703124-2.703124 5.996093v8h-16c-4.417969 0-8 3.582031-8 8s3.582031 8 8 8h16v16h-16c-4.417969 0-8 3.582031-8 8s3.582031 8 8 8h16v8c0 4.417969 3.582031 8 8 8 .332031.003907.660156-.019531.992187-.0625l64-8c4-.5 7.003906-3.902343 7.007813-7.9375v-16h24c4.417968 0 8 3.582031 8 8v137.761719l-5.28125-12.074219-35.390626-80.886719c-1.277343-2.910156-4.152343-4.792968-7.328124-4.792968-3.179688 0-6.054688 1.882812-7.328126 4.792968l-35.074218 80.199219-20.925782 47.800781v.046876c-.167968.519531-.285156 1.058593-.34375 1.601562-.152343.503906-.253906 1.019531-.3125 1.542969v.007812c.039063.300781.101563.601563.183594.894531.042969.722657.1875 1.433594.421875 2.113282.226563.453125.492188.886718.800781 1.289062.246094.449219.53125.875.855469 1.269532.535157.496093 1.132813.914062 1.777344 1.25.234375.183593.480469.355468.734375.511718h.007812c.84375.332032 1.738282.523438 2.640626.558594.175781 0 .351562.105469.527343.105469h40c4.421875 0 8 3.582031 8 8v24h-47.964843c-4.417969 0-8 3.582031-8 8v128.007812c0 4.417969 3.582031 8 8 8h40v32c0 8.835938-7.164063 16-16 16h-200v-16h16c2.671874 0 5.171874-1.335937 6.65625-3.558593l10.671874-16c2.449219-3.679688 1.457032-8.648438-2.222656-11.101563-3.675781-2.453125-8.648437-1.457031-11.097656 2.21875l-8.289062 12.441406h-71.441407l-21.335937-32h137.058594c13.253906 0 24-10.746093 24-24v-8c-.023438-5.921875-2.246094-11.625-6.242188-16 3.996094-4.375 6.21875-10.078125 6.242188-16v-8c0-13.253906-10.746094-24-24-24h-39.113282l14.398438-136.800781c13.453125-3.15625 23.359375-14.589844 24.570312-28.351562 1.207032-13.765626-6.554687-26.75-19.25-32.203126-12.695312-5.453124-27.457031-2.140624-36.605468 8.210938-6.070313-6.898438-14.8125-10.855469-24-10.855469-9.191407 0-17.933594 3.957031-24 10.855469-9.152344-10.351562-23.914063-13.664062-36.609376-8.210938-12.695312 5.453126-20.457031 18.4375-19.25 32.203126 1.210938 13.761718 11.117188 25.195312 24.570313 28.351562l14.398437 136.800781h-23.109374v-44.800781c-.003907-2.753906-1.417969-5.3125-3.753907-6.773438-48.460937-30.238281-71.027343-88.925781-55.300781-143.839843 15.722656-54.914063 65.933594-92.761719 123.054688-92.761719 57.121093 0 107.328124 37.847656 123.054687 92.761719 15.722656 54.914062-6.839844 113.601562-55.304687 143.839843-3.753907 2.34375-4.898438 7.289063-2.550782 11.046876 2.34375 3.753906 7.292969 4.898437 11.046875 2.550781 54.164063-33.796875 79.609375-99.21875 62.511719-160.730469-17.09375-61.507812-72.652344-104.417969-136.484375-105.4179688-63.835937-1.0039062-120.707031 40.1484378-139.71875 101.0898438-19.015625 60.945313 4.367187 127.136719 57.445313 162.609375v40.425781c-13.257813 0-24 10.746094-24 24v8c0 13.253907 10.742187 24 24 24h160c4.417968 0 8 3.582031 8 8v8c0 4.417969-3.582032 8-8 8h-160c-4.417969 0-8 3.582031-8 8s3.582031 8 8 8h3.71875l29.601562 44.441407c1.488281 2.230468 3.996094 3.566406 6.679688 3.558593h16v8c0 13.253907 10.742187 24 24 24h224c17.671874 0 32-14.328125 32-32v-32h8c30.910156-.035156 55.964843-25.085937 56-56v-32c-.035157-30.914062-25.089844-55.964843-56-56v-24c0-13.253906-10.746094-24-24-24h-27.769532l13.886719-31.742187zm-30.132812-135.902344-48 6v-45.875l48 6zm-296 102.261719c-.414063-4.101562-3.878907-7.21875-8-7.199219-8.839844 0-16-7.164062-16-16 0-8.835937 7.160156-16 16-16 8.835937 0 16 7.164063 16 16 0 4.417969 3.582031 8 8 8 4.417968 0 8-3.582031 8-8 0-8.835937 7.160156-16 16-16 8.835937 0 16 7.164063 16 16 0 4.417969 3.582031 8 8 8 4.417968 0 8-3.582031 8-8 0-8.835937 7.160156-16 16-16 8.835937 0 16 7.164063 16 16 0 8.835938-7.164063 16-16 16-4.125-.019531-7.589844 3.097657-8 7.199219l-15.203126 144.800781h-49.597656zm-40 184.800781c-4.417969 0-8-3.582031-8-8v-8c0-4.417969 3.582031-8 8-8h160c4.417968 0 8 3.582031 8 8v8c0 4.417969-3.582032 8-8 8zm72 112v-8h16v16h-8c-4.417969 0-8-3.582031-8-8zm312-128v32c-.027344 22.082031-17.921876 39.972657-40 40h-56v-112h56c22.078124.027344 39.972656 17.917969 40 40zm-48-204 23.101562 52.800781-5.054688-.058593-40.960937-.398438zm0 0"/><path d="m232.222656 75.207031c-21.144531-27.222656-53.699218-43.125-88.167968-43.0625-4.417969 0-8 3.582031-8 8s3.582031 8 8 8c29.542968-.046875 57.445312 13.589844 75.558593 36.9375 2.726563 3.480469 7.757813 4.09375 11.238281 1.367188 3.484376-2.726563 4.097657-7.757813 1.371094-11.242188zm0 0"/><path d="m39.851562 144.144531c-4.402343.335938-7.703124 4.179688-7.367187 8.582031 2.078125 27.402344 14.195313 53.074219 34.023437 72.097657 3.1875 3.0625 8.25 2.960937 11.3125-.222657 3.0625-3.1875 2.960938-8.25-.222656-11.3125-16.996094-16.300781-27.378906-38.296874-29.160156-61.777343-.335938-4.402344-4.179688-7.703125-8.585938-7.367188zm0 0"/></svg>