<svg height="480pt" viewBox="0 -32 480.00737 480" width="480pt" xmlns="http://www.w3.org/2000/svg"><path d="m208 120.003906c0-4.417968-3.582031-8-8-8h-160c-4.417969 0-8 3.582032-8 8v112c0 4.417969 3.582031 8 8 8h88c4.417969 0 8-3.582031 8-8 0-4.417968-3.582031-8-8-8h-80v-96h144v96h-16c-4.417969 0-8 3.582032-8 8 0 4.417969 3.582031 8 8 8h24c4.417969 0 8-3.582031 8-8zm0 0"/><path d="m32 304.003906c0 4.417969 3.582031 8 8 8h64c4.417969 0 8-3.582031 8-8 0-4.417968-3.582031-8-8-8h-56v-24h56c4.417969 0 8-3.582031 8-8 0-4.417968-3.582031-8-8-8h-64c-4.417969 0-8 3.582032-8 8zm0 0"/><path d="m95.199219 148.425781c-1.503907-2.519531-4.222657-4.066406-7.160157-4.066406-2.933593 0-5.65625 1.546875-7.160156 4.066406l-24 48c-1.972656 3.957031-.371094 8.761719 3.585938 10.738281 3.953125 1.972657 8.761718.371094 10.734375-3.585937l1.746093-3.574219h30.109376l1.785156 3.574219c1.976562 3.957031 6.78125 5.558594 10.734375 3.585937 3.957031-1.976562 5.5625-6.78125 3.585937-10.738281l-4-8zm-7.199219 21.464844 7.054688 14.113281h-14.109376zm0 0"/><path d="m184 176.003906c0-17.671875-14.328125-32-32-32h-16c-4.417969 0-8 3.582032-8 8v48c0 4.417969 3.582031 8 8 8h16c17.671875 0 32-14.328125 32-32zm-40-16h8c8.835938 0 16 7.164063 16 16 0 8.835938-7.164062 16-16 16h-8zm0 0"/><path d="m32 376.003906c0 4.417969 3.582031 8 8 8h64c4.417969 0 8-3.582031 8-8v-40c0-4.417968-3.582031-8-8-8h-64c-4.417969 0-8 3.582032-8 8zm16-32h48v24h-48zm0 0"/><path d="m200 272.003906h-40c-4.417969 0-8 3.582032-8 8 0 4.417969 3.582031 8 8 8h40c4.417969 0 8-3.582031 8-8 0-4.417968-3.582031-8-8-8zm0 0"/><path d="m128 312.003906c0 4.417969 3.582031 8 8 8h16c4.417969 0 8-3.582031 8-8 0-4.417968-3.582031-8-8-8h-16c-4.417969 0-8 3.582032-8 8zm0 0"/><path d="m200 304.003906h-16c-4.417969 0-8 3.582032-8 8 0 4.417969 3.582031 8 8 8h16c4.417969 0 8-3.582031 8-8 0-4.417968-3.582031-8-8-8zm0 0"/><path d="m208 344.003906c0-4.417968-3.582031-8-8-8h-64c-4.417969 0-8 3.582032-8 8 0 4.417969 3.582031 8 8 8h64c4.417969 0 8-3.582031 8-8zm0 0"/><path d="m136 368.003906c-4.417969 0-8 3.582032-8 8 0 4.417969 3.582031 8 8 8h32c4.417969 0 8-3.582031 8-8 0-4.417968-3.582031-8-8-8zm0 0"/><path d="m264 144.003906h24c4.417969 0 8-3.582031 8-8 0-4.417968-3.582031-8-8-8h-24c-4.417969 0-8 3.582032-8 8 0 4.417969 3.582031 8 8 8zm0 0"/><path d="m264 176.003906h24c4.417969 0 8-3.582031 8-8 0-4.417968-3.582031-8-8-8h-24c-4.417969 0-8 3.582032-8 8 0 4.417969 3.582031 8 8 8zm0 0"/><path d="m264 208.003906h40c4.417969 0 8-3.582031 8-8 0-4.417968-3.582031-8-8-8h-40c-4.417969 0-8 3.582032-8 8 0 4.417969 3.582031 8 8 8zm0 0"/><path d="m352 224.003906h-64c-4.417969 0-8 3.582032-8 8 0 4.417969 3.582031 8 8 8h64c4.417969 0 8-3.582031 8-8 0-4.417968-3.582031-8-8-8zm0 0"/><path d="m296 264.003906c0-4.417968-3.582031-8-8-8h-24c-4.417969 0-8 3.582032-8 8 0 4.417969 3.582031 8 8 8h24c4.417969 0 8-3.582031 8-8zm0 0"/><path d="m352 256.003906h-40c-4.417969 0-8 3.582032-8 8 0 4.417969 3.582031 8 8 8h40c4.417969 0 8-3.582031 8-8 0-4.417968-3.582031-8-8-8zm0 0"/><path d="m296 304.003906h16c4.417969 0 8-3.582031 8-8 0-4.417968-3.582031-8-8-8h-16c-4.417969 0-8 3.582032-8 8 0 4.417969 3.582031 8 8 8zm0 0"/><path d="m264 288.003906c-4.417969 0-8 3.582032-8 8 0 4.417969 3.582031 8 8 8h8c4.417969 0 8-3.582031 8-8 0-4.417968-3.582031-8-8-8zm0 0"/><path d="m352 288.003906h-16c-4.417969 0-8 3.582032-8 8 0 4.417969 3.582031 8 8 8h16c4.417969 0 8-3.582031 8-8 0-4.417968-3.582031-8-8-8zm0 0"/><path d="m352 112.003906c4.417969 0 8-3.582031 8-8 0-4.417968-3.582031-8-8-8h-112v-8c0-.160156-.078125-.304687-.089844-.464844-.039062-.636718-.15625-1.269531-.34375-1.878906-.070312-.207031-.085937-.425781-.167968-.632812l-.109376-.261719c-.332031-.773437-.789062-1.484375-1.34375-2.113281l-31.175781-34.648438h145.230469c4.417969 0 8-3.582031 8-8 0-4.417968-3.582031-8-8-8h-159.640625l-14.398437-16h198.039062v112h-40c-13.253906 0-24 10.746094-24 24v16c0 13.253906 10.746094 24 24 24h82.585938l13.980468 34.96875c1.214844 3.039063 4.160156 5.03125 7.433594 5.03125 1.015625.003906 2.023438-.1875 2.96875-.566406 4.105469-1.640625 6.105469-6.296875 4.464844-10.402344l-16-40c-1.214844-3.039062-4.160156-5.03125-7.433594-5.03125h-61.71875c2.03125-10.570312 2.03125-21.429687 0-32h61.71875c4.417969 0 8-3.582031 8-8 0-4.417968-3.582031-8-8-8h-32v-16h38.464844l38.566406 15.433594c.945312.378906 1.953125.570312 2.96875.566406 3.839844.003906 7.136719-2.71875 7.863281-6.488281.726563-3.769531-1.328125-7.523437-4.894531-8.945313l-40-16c-.945312-.375-1.953125-.566406-2.96875-.566406h-40v-88c0-4.417968-3.582031-7.99999975-8-7.99999975h-224c-.070312 0-.128906 0-.199219 0-.910156.01171875-1.8125.17578175-2.664062.48828175l-.128907.070312c-.199218.089844-.359374.226562-.558593.320312-.652344.320313-1.253907.726563-1.792969 1.207032-.21875.210937-.421875.433594-.617188.664062-.425781.488282-.792968 1.027344-1.09375 1.601563-.128906.265625-.273437.511719-.378906.800781-.363281.90625-.554687 1.871094-.566406 2.847656v72h-144c-4.417969 0-8 3.582032-8 8v200c0 4.417969 3.582031 8 8 8s8-3.582031 8-8v-192h208v304h-208v-64c0-4.417968-3.582031-8-8-8s-8 3.582032-8 8v72c0 4.417969 3.582031 8 8 8h224c4.417969 0 8-3.582031 8-8v-296zm-6.023438 64h-9.976562c-4.417969 0-8-3.582031-8-8v-16c0-4.417968 3.582031-8 8-8h9.976562c2.527344 10.515625 2.527344 21.484375 0 32zm-177.976562-147.160156 18.054688 20.0625 27.984374 31.097656h-46.039062zm0 0"/><path d="m470.398438 256.164062-39.199219 7.839844h-39.199219v-40c0-4.417968-3.582031-8-8-8s-8 3.582032-8 8v96h-112c-4.417969 0-8 3.582032-8 8 0 4.417969 3.582031 8 8 8h120c4.417969 0 8-3.582031 8-8v-48h40c.539062 0 1.074219-.054687 1.601562-.160156l40-8c4.195313-.992188 6.851563-5.128906 6.003907-9.355469-.84375-4.226562-4.886719-7.023437-9.140625-6.324219zm0 0"/></svg>