<svg height="480pt" viewBox="0 0 480 480.00107" width="480pt" xmlns="http://www.w3.org/2000/svg"><path d="m472 264c-4.417969 0-8 3.582031-8 8v64h-152v-160c-.003906-21.769531-9.878906-42.363281-26.847656-56h122.847656c30.914062.035156 55.964844 25.085938 56 56 0 4.417969 3.582031 8 8 8s8-3.582031 8-8c-.042969-39.746094-32.253906-71.953125-72-72h-168c-33.566406.054688-62.652344 23.277344-70.136719 56h-153.863281c-8.835938 0-16 7.164062-16 16v128c0 8.835938 7.164062 16 16 16h216c8.835938 0 16-7.164062 16-16v-128c0-8.835938-7.164062-16-16-16h-45.597656c7.898437-26.675781 34.199218-43.492188 61.730468-39.472656 27.527344 4.019531 47.921876 27.652344 47.867188 55.472656v160h-120c-4.417969 0-8 3.582031-8 8s3.582031 8 8 8h96v120c0 4.417969 3.582031 8 8 8s8-3.582031 8-8v-120h56v120c0 4.417969 3.582031 8 8 8s8-3.582031 8-8v-120h112c4.417969 0 8-3.582031 8-8v-72c0-4.417969-3.582031-8-8-8zm-240 40h-216v-128h216zm0 0"/><path d="m312 400c-4.417969 0-8 3.582031-8 8v64c0 4.417969 3.582031 8 8 8s8-3.582031 8-8v-64c0-4.417969-3.582031-8-8-8zm0 0"/><path d="m440 192c0-4.417969-3.582031-8-8-8h-80c-4.417969 0-8 3.582031-8 8v32c0 4.417969 3.582031 8 8 8h80c4.417969 0 8-3.582031 8-8zm-16 24h-64v-16h64zm0 0"/><path d="m400 256c0-4.417969-3.582031-8-8-8h-40c-4.417969 0-8 3.582031-8 8s3.582031 8 8 8h40c4.417969 0 8-3.582031 8-8zm0 0"/><path d="m376 296h56c4.417969 0 8-3.582031 8-8s-3.582031-8-8-8h-56c-4.417969 0-8 3.582031-8 8s3.582031 8 8 8zm0 0"/><path d="m40 80h15.441406l16.558594 2.402344v45.597656c0 4.417969 3.582031 8 8 8s8-3.582031 8-8v-43.34375l16 2.28125v41.0625c0 4.417969 3.582031 8 8 8s8-3.582031 8-8v-38.773438l46.863281 6.695313c.378907.054687.757813.082031 1.136719.078125 4.417969 0 8-3.582031 8-8v-80c0-2.320312-1.007812-4.523438-2.757812-6.042969-1.753907-1.523437-4.082032-2.207031-6.378907-1.8749998l-111.421875 15.9179688h-15.441406c-17.671875 0-32 14.328125-32 32 0 17.675781 14.328125 32 32 32zm120-1.222656-96-13.710938v-34.128906l96-13.710938zm-120-46.777344h8v32h-8c-8.835938 0-16-7.164062-16-16s7.164062-16 16-16zm0 0"/><path d="m189.65625 64.96875c3.125 3.125 8.1875 3.125 11.3125 0 9.378906-9.375 9.378906-24.578125 0-33.953125-3.125-3.121094-8.191406-3.121094-11.316406.003906-3.125 3.128907-3.121094 8.195313.003906 11.316407 3.125 3.125 3.125 8.1875 0 11.3125-1.5 1.5-2.347656 3.539062-2.347656 5.660156 0 2.125.847656 4.160156 2.347656 5.660156zm0 0"/><path d="m212.28125 87.601562c3.125 3.121094 8.1875 3.121094 11.3125 0 21.871094-21.871093 21.871094-57.332031 0-79.199218-3.140625-3.03125-8.128906-2.988282-11.214844.097656-3.085937 3.085938-3.128906 8.074219-.097656 11.214844 15.625 15.621094 15.625 40.953125 0 56.574218-3.125 3.125-3.125 8.1875 0 11.3125zm0 0"/><path d="m56 288h64c13.253906 0 24-10.742188 24-24v-16c0-13.253906-10.746094-24-24-24h-64c-4.417969 0-8 3.582031-8 8s3.582031 8 8 8h64c4.417969 0 8 3.582031 8 8v16c0 4.417969-3.582031 8-8 8h-64c-4.417969 0-8-3.582031-8-8s-3.582031-8-8-8-8 3.582031-8 8c0 13.257812 10.746094 24 24 24zm0 0"/><path d="m160 208h48c4.417969 0 8-3.582031 8-8s-3.582031-8-8-8h-48c-4.417969 0-8 3.582031-8 8s3.582031 8 8 8zm0 0"/><path d="m208 224h-24c-4.417969 0-8 3.582031-8 8s3.582031 8 8 8h24c4.417969 0 8-3.582031 8-8s-3.582031-8-8-8zm0 0"/><path d="m280 192c0 4.417969-3.582031 8-8 8s-8-3.582031-8-8 3.582031-8 8-8 8 3.582031 8 8zm0 0"/><path d="m280 240c0 4.417969-3.582031 8-8 8s-8-3.582031-8-8 3.582031-8 8-8 8 3.582031 8 8zm0 0"/><path d="m280 288c0 4.417969-3.582031 8-8 8s-8-3.582031-8-8 3.582031-8 8-8 8 3.582031 8 8zm0 0"/></svg>