<svg height="480pt" viewBox="0 0 480.00037 480" width="480pt" xmlns="http://www.w3.org/2000/svg"><path d="m368 423.972656v-120h8c4.417969 0 8-3.582031 8-8 0-4.417968-3.582031-8-8-8h-8v-24h8c4.417969 0 8-3.582031 8-8 0-4.417968-3.582031-8-8-8h-8v-24h8c4.417969 0 8-3.582031 8-8 0-4.417968-3.582031-8-8-8h-16c-4.417969 0-8 3.582032-8 8v200h-224v-32c0-4.417968-3.582031-8-8-8s-8 3.582032-8 8v40c0 4.417969 3.582031 8 8 8h240c4.417969 0 8-3.582031 8-8zm0 0"/><path d="m360 95.972656h-240c-4.417969 0-8 3.582032-8 8v240c0 4.417969 3.582031 8 8 8s8-3.582031 8-8v-152h184c4.417969 0 8-3.582031 8-8 0-4.417968-3.582031-8-8-8h-184v-64h224v24c0 4.417969 3.582031 8 8 8h16c4.417969 0 8-3.582031 8-8 0-4.417968-3.582031-8-8-8h-8v-24c0-4.417968-3.582031-8-8-8zm0 0"/><path d="m256 223.972656c0-4.417968-3.582031-8-8-8s-8 3.582032-8 8v88h-16v-8c-.019531-5.921875-2.246094-11.625-6.242188-16 8.71875-9.585937 8.246094-24.363281-1.058593-33.378906-9.308594-9.015625-24.089844-9.015625-33.398438 0-9.308593 9.015625-9.777343 23.792969-1.0625 33.378906-3.992187 4.375-6.21875 10.078125-6.238281 16v8h-16v-80h40c4.417969 0 8-3.582031 8-8 0-4.417968-3.582031-8-8-8h-48c-4.417969 0-8 3.582032-8 8v96c0 4.417969 3.582031 8 8 8h96c4.417969 0 8-3.582031 8-8zm-56 40c4.417969 0 8 3.582032 8 8 0 4.417969-3.582031 8-8 8s-8-3.582031-8-8c0-4.417968 3.582031-8 8-8zm-8 48v-8c0-4.417968 3.582031-8 8-8s8 3.582032 8 8v8zm0 0"/><path d="m328 351.972656c4.417969 0 8-3.582031 8-8 0-4.417968-3.582031-8-8-8h-48c-4.417969 0-8 3.582032-8 8v48c0 4.417969 3.582031 8 8 8h48c4.417969 0 8-3.582031 8-8 0-4.417968-3.582031-8-8-8h-40v-32zm0 0"/><path d="m336 207.972656h-32c-4.417969 0-8 3.582032-8 8 0 4.417969 3.582031 8 8 8h32c4.417969 0 8-3.582031 8-8 0-4.417968-3.582031-8-8-8zm0 0"/><path d="m344 247.972656c0-4.417968-3.582031-8-8-8h-56c-4.417969 0-8 3.582032-8 8 0 4.417969 3.582031 8 8 8h56c4.417969 0 8-3.582031 8-8zm0 0"/><path d="m328 271.972656h-48c-4.417969 0-8 3.582032-8 8 0 4.417969 3.582031 8 8 8h48c4.417969 0 8-3.582031 8-8 0-4.417968-3.582031-8-8-8zm0 0"/><path d="m280 319.972656h24c4.417969 0 8-3.582031 8-8 0-4.417968-3.582031-8-8-8h-24c-4.417969 0-8 3.582032-8 8 0 4.417969 3.582031 8 8 8zm0 0"/><path d="m248 343.972656h-72c-4.417969 0-8 3.582032-8 8 0 4.417969 3.582031 8 8 8h72c4.417969 0 8-3.582031 8-8 0-4.417968-3.582031-8-8-8zm0 0"/><path d="m152 375.972656c-4.417969 0-8 3.582032-8 8 0 4.417969 3.582031 8 8 8h24c4.417969 0 8-3.582031 8-8 0-4.417968-3.582031-8-8-8zm0 0"/><path d="m248 375.972656h-40c-4.417969 0-8 3.582032-8 8 0 4.417969 3.582031 8 8 8h40c4.417969 0 8-3.582031 8-8 0-4.417968-3.582031-8-8-8zm0 0"/><path d="m240 127.972656v12.6875l-18.34375-18.34375c-2.289062-2.285156-5.730469-2.96875-8.71875-1.730468-2.988281 1.234374-4.9375 4.152343-4.9375 7.386718v12.6875l-18.34375-18.34375c-2.289062-2.285156-5.730469-2.96875-8.71875-1.730468-2.988281 1.234374-4.9375 4.152343-4.9375 7.386718v12.6875l-18.34375-18.34375c-2.289062-2.285156-5.730469-2.96875-8.71875-1.730468-2.988281 1.234374-4.9375 4.152343-4.9375 7.386718v32c0 4.417969 3.582031 8 8 8s8-3.582031 8-8v-12.6875l18.34375 18.34375c2.289062 2.289063 5.726562 2.972656 8.71875 1.734375 2.988281-1.238281 4.9375-4.15625 4.9375-7.390625v-12.6875l18.34375 18.34375c2.289062 2.289063 5.726562 2.972656 8.71875 1.734375 2.988281-1.238281 4.9375-4.15625 4.9375-7.390625v-12.6875l18.34375 18.34375c2.289062 2.289063 5.726562 2.972656 8.71875 1.734375 2.988281-1.238281 4.9375-4.15625 4.9375-7.390625v-32c0-4.417968-3.582031-8-8-8s-8 3.582032-8 8zm0 0"/><path d="m328 159.972656v-32c0-4.417968-3.582031-8-8-8s-8 3.582032-8 8v12.6875l-18.34375-18.34375c-2.289062-2.285156-5.730469-2.96875-8.71875-1.730468-2.988281 1.234374-4.9375 4.152343-4.9375 7.386718v32c0 4.417969 3.582031 8 8 8s8-3.582031 8-8v-12.6875l18.34375 18.34375c2.289062 2.289063 5.726562 2.972656 8.71875 1.734375 2.988281-1.238281 4.9375-4.15625 4.9375-7.390625zm0 0"/><path d="m18.929688 126.902344 193.988281-112c3.796875-2.226563 5.082031-7.09375 2.882812-10.902344-2.199219-3.808594-7.058593-5.128906-10.882812-2.953125l-200.917969 116c-3.828125 2.207031-5.136719 7.101563-2.929688 10.925781l80 138.5625c1.421876 2.492188 4.066407 4.039063 6.9375 4.042969 2.871094.007813 5.527344-1.523437 6.957032-4.015625 1.429687-2.488281 1.414062-5.550781-.035156-8.027344zm0 0"/><path d="m94.929688 110.734375c-2.210938-3.828125-7.105469-5.136719-10.929688-2.929687l-36.289062 20.96875c-3.808594 2.214843-5.113282 7.09375-2.910157 10.914062l36.285157 62.847656c1.421874 2.492188 4.066406 4.039063 6.9375 4.042969 2.871093.007813 5.527343-1.523437 6.957031-4.015625 1.429687-2.488281 1.414062-5.550781-.035157-8.027344l-32.304687-55.914062 29.359375-16.960938c3.824219-2.207031 5.136719-7.101562 2.929688-10.925781zm0 0"/><path d="m376 167.972656h-24c-4.417969 0-8 3.582032-8 8 0 4.417969 3.582031 8 8 8h24c4.417969 0 8-3.582031 8-8 0-4.417968-3.582031-8-8-8zm0 0"/><path d="m478.929688 158.878906c-1.0625-1.839844-2.808594-3.179687-4.859376-3.730468l-58.070312-15.558594v-75.617188c0-4.417968-3.582031-8-8-8h-232c-4.417969 0-8 3.582032-8 8 0 4.417969 3.582031 8 8 8h224v304h-8c-4.417969 0-8 3.582032-8 8 0 4.417969 3.582031 8 8 8h16c4.417969 0 8-3.582031 8-8v-95.941406l26.542969-99.082031c.832031-2.789063.082031-5.808594-1.957031-7.882813-2.039063-2.078125-5.042969-2.882812-7.847657-2.105468-2.804687.777343-4.964843 3.015624-5.640625 5.84375l-11.097656 41.410156v-70.066406l46.199219 12.386718-37.878907 141.367188c-1.144531 4.265625 1.386719 8.65625 5.65625 9.800781.679688.179687 1.378907.269531 2.078126.269531 3.617187-.003906 6.785156-2.433594 7.722656-5.925781l39.949218-149.097656c.550782-2.050781.261719-4.234375-.796874-6.070313zm0 0"/><path d="m395.535156 448.246094c-4.265625-1.140625-8.648437 1.390625-9.792968 5.65625l-2.222657 8.269531-52-13.925781c-4.257812-1.117188-8.621093 1.414062-9.761719 5.667968-1.136718 4.253907 1.378907 8.628907 5.625 9.789063l59.714844 16c4.261719 1.136719 8.644532-1.394531 9.789063-5.65625l4.289062-16c1.144531-4.265625-1.378906-8.648437-5.640625-9.800781zm0 0"/></svg>