<svg height="480pt" viewBox="0 0 480 480.01793" width="480pt" xmlns="http://www.w3.org/2000/svg"><path d="m56.007812 88.019531c.023438 19 13.390626 35.371094 32 39.199219v40.800781c0 2.609375 1.273438 5.054688 3.410157 6.554688 2.140625 1.496093 4.875 1.855469 7.328125.964843l86.679687-31.519531h20.984375l-2.914062 16h-3.488282c-9.460937.003907-18.035156 5.570313-21.894531 14.207031-3.859375 8.640626-2.285156 18.738282 4.023438 25.792969-8.171875 9.101563-8.171875 22.894531 0 32-6.308594 7.050781-7.882813 17.152344-4.023438 25.789063 3.859375 8.636718 12.433594 14.203125 21.894531 14.210937h40c.332032 0 .664063-.019531.992188-.066406l64-8 39.890625-4.429687c2.902344-.238282 5.449219-2.035157 6.644531-4.691407 1.199219-2.65625.855469-5.753906-.894531-8.085937-1.75-2.328125-4.625-3.527344-7.511719-3.121094l-31.121094 3.457031v-62.128906l31.121094 3.457031c2.886719.40625 5.761719-.789062 7.511719-3.121094 1.75-2.332031 2.09375-5.429687.894531-8.085937-1.195312-2.65625-3.742187-4.453125-6.644531-4.6875l-39.890625-4.433594-40.078125-5.007812 5.199219-19.054688h9.886718c1.164063-.015625 2.308594-.289062 3.351563-.800781.074219 0 .152344 0 .226563-.046875l48-24c2.707031-1.355469 4.421874-4.125 4.421874-7.152344v-48c.003907-3.035156-1.710937-5.804687-4.421874-7.160156l-48-24c-.097657-.050781-.199219-.058594-.296876-.105469-.097656-.046875-.359374-.113281-.535156-.183594-.773437-.28125-1.582031-.445312-2.402344-.488281-.125 0-.222656-.0625-.34375-.0625h-96c-4.417968 0-8 3.582031-8 8v90.398438l-72 26.175781v-137.480469l37.472657 12.496094c4.199219 1.398437 8.730469-.875 10.128906-5.070313 1.394531-4.199218-.875-8.734374-5.074219-10.128906l-48-16c-2.441406-.8125-5.125-.4023435-7.210937 1.105469-2.085938 1.507813-3.320313 3.929687-3.316407 6.503906v40.796875c-18.609374 3.828125-31.976562 20.199219-32 39.203125zm240 160.933594-56.496093 7.066406h-39.503907c-4.417968 0-8-3.582031-8-8s3.582032-8 8-8h16c4.417969 0 8-3.582031 8-8s-3.582031-8-8-8h-16c-4.417968 0-8-3.582031-8-8s3.582032-8 8-8h16c4.417969 0 8-3.582031 8-8s-3.582031-8-8-8h-16c-4.417968 0-8-3.582031-8-8s3.582032-8 8-8h39.503907l56.496093 7.0625zm-46.832031-88.933594h-29.398437l2.902344-16h30.855468zm70.832031-52.945312-32 16v-70.113281l32 16zm-48-11.054688h-56c-4.417968 0-8 3.582031-8 8s3.582032 8 8 8h56v16h-80v-48h56c4.417969 0 8-3.582031 8-8s-3.582031-8-8-8h-56v-16h80zm-184-30.632812v45.261719c-9.59375-3.386719-16.011718-12.453126-16.011718-22.628907s6.417968-19.246093 16.011718-22.632812zm0 0"/><path d="m80.007812 416.019531c-4.417968 0-8 3.582031-8 8s-3.582031 8-8 8c-4.417968 0-8-3.582031-8-8s-3.582031-8-8-8c-4.417968 0-8 3.582031-8 8 0 13.253907 10.746094 24 24 24 13.257813 0 24-10.746093 24-24 0-4.417969-3.582031-8-8-8zm0 0"/><path d="m128.007812 400.019531c-13.253906 0-24 10.742188-24 24 0 13.253907 10.746094 24 24 24 13.257813 0 24-10.746093 24-24 0-13.257812-10.742187-24-24-24zm0 32c-4.417968 0-8-3.582031-8-8s3.582032-8 8-8c4.417969 0 8 3.582031 8 8s-3.582031 8-8 8zm0 0"/><path d="m192.007812 400.019531c-13.253906 0-24 10.742188-24 24 0 13.253907 10.746094 24 24 24 13.257813 0 24-10.746093 24-24 0-13.257812-10.742187-24-24-24zm0 32c-4.417968 0-8-3.582031-8-8s3.582032-8 8-8c4.417969 0 8 3.582031 8 8s-3.582031 8-8 8zm0 0"/><path d="m64.007812 352.019531h128c4.417969 0 8-3.582031 8-8s-3.582031-8-8-8h-128c-13.253906 0-24 10.742188-24 24 0 13.253907 10.746094 24 24 24h128c4.417969 0 8-3.582031 8-8s-3.582031-8-8-8h-128c-4.417968 0-8-3.582031-8-8s3.582032-8 8-8zm0 0"/><path d="m32.007812 96.019531c4.417969 0 8-3.582031 8-8s-3.582031-8-8-8h-24c-4.417968 0-7.9999995 3.582031-7.9999995 8s3.5820315 8 7.9999995 8zm0 0"/><path d="m42.351562 53.675781c3.140626 3.03125 8.128907 2.988281 11.214844-.097656 3.085938-3.085937 3.128906-8.078125.097656-11.214844l-16-16c-3.136718-3.03125-8.128906-2.988281-11.214843.097657-3.085938 3.085937-3.128907 8.074218-.097657 11.214843zm0 0"/><path d="m42.351562 122.363281-16 16c-2.078124 2.007813-2.914062 4.980469-2.179687 7.777344.730469 2.796875 2.914063 4.984375 5.714844 5.714844 2.796875.730469 5.769531-.101563 7.777343-2.179688l16-16c3.03125-3.140625 2.988282-8.128906-.097656-11.214843-3.085937-3.085938-8.074218-3.128907-11.214844-.097657zm0 0"/><path d="m409.609375 145.792969c-.976563-.199219-1.984375-.285157-2.96875-.445313-1.902344-.320312-3.800781-.671875-5.742187-.875-2.960938-.300781-5.925782-.453125-8.890626-.453125h-16c-4.417968 0-8 3.582031-8 8v96c0 4.417969 3.582032 8 8 8h40v104h-40c-4.417968 0-8 3.582031-8 8v24c0 4.417969 3.582032 8 8 8 4.417969 0 8-3.582031 8-8v-16h40c4.417969 0 8-3.582031 8-8v-120c0-4.417969-3.582031-8-8-8h-8v-75.800781c28.726563 10.175781 47.945313 37.324219 48 67.800781v152c-.054687 30.472657-19.273437 57.621094-48 67.796875v-43.796875c0-4.417969-3.582031-8-8-8-4.417968 0-8 3.582031-8 8v47.527344c-2.65625.304687-5.324218.464844-8 .472656h-8v-32c0-4.417969-3.582031-8-8-8-4.417968 0-8 3.582031-8 8v32h-60c-6.625 0-12-5.375-12-12 0-6.628906 5.375-12 12-12 15.464844 0 28-12.539062 28-28 0-15.464843-12.535156-28-28-28-6.625 0-12-5.375-12-12 0-6.628906 5.375-12 12-12 15.464844 0 28-12.539062 28-28 0-15.464843-12.535156-28-28-28-.679687.046875-1.351562.179688-2 .398438-.644531-.21875-1.316406-.351563-2-.398438h-288c-4.417968 0-8 3.582031-8 8v168c0 4.417969 3.582032 8 8 8 4.417969 0 8-3.582031 8-8v-160h208v160c0 4.417969 3.582032 8 8 8 4.417969 0 8-3.582031 8-8v-160h56c.683594-.046875 1.355469-.183593 2-.402343.648438.21875 1.320313.355468 2 .402343 6.628907 0 12 5.371094 12 12 0 6.625-5.371093 12-12 12-15.460937 0-28 12.535157-28 28 0 15.460938 12.539063 28 28 28 6.628907 0 12 5.371094 12 12 0 6.625-5.371093 12-12 12-13.839843-.035156-25.617187 10.078125-27.675781 23.765625-2.058593 13.6875 6.222657 26.816406 19.460938 30.855469 1.242187.863281 2.707031 1.339844 4.214843 1.378906h88c48.578126-.058593 87.945313-39.425781 88-88v-152c-.058593-41.796875-29.457031-77.808593-70.398437-86.226562zm-9.601563 94.226562h-16v-80h8c2.582032.003907 5.164063.148438 7.730469.429688l.269531.039062zm0 0"/></svg>