<svg height="480pt" viewBox="0 0 480 480.06286" width="480pt" xmlns="http://www.w3.org/2000/svg"><path d="m176.03125 232.0625c4.417969 0 8-3.582031 8-8v-48c0-4.417969-3.582031-8-8-8h-96c-4.417969 0-8 3.582031-8 8v48c0 4.417969 3.582031 8 8 8h40v16h-40c-4.417969 0-8 3.582031-8 8v24h-32c-4.417969 0-8 3.582031-8 8s3.582031 8 8 8h56v16h-56c-4.417969 0-8 3.582031-8 8s3.582031 8 8 8h16v40h-16c-4.417969 0-8 3.582031-8 8v40c0 4.417969 3.582031 8 8 8h48c4.417969 0 8-3.582031 8-8v-40c0-4.417969-3.582031-8-8-8h-16v-40h32c4.417969 0 8-3.582031 8-8v-32c0-4.417969-3.582031-8-8-8h-16v-16h88v16h-24c-4.417969 0-8 3.582031-8 8v32c0 4.417969 3.582031 8 8 8h24v24h-24c-4.417969 0-8 3.582031-8 8v24h-24c-4.417969 0-8 3.582031-8 8v48c0 4.417969 3.582031 8 8 8h72c4.417969 0 8-3.582031 8-8s-3.582031-8-8-8h-64v-32h64c4.417969 0 8-3.582031 8-8s-3.582031-8-8-8h-32v-16h24c4.417969 0 8-3.582031 8-8v-32h24c4.417969 0 8-3.582031 8-8v-32c0-4.417969-3.582031-8-8-8h-24v-24c0-4.417969-3.582031-8-8-8h-48v-16zm-96 176h-32v-24h32zm128-96h-48v-16h48zm-120-128h80v32h-80zm0 0"/><path d="m400.03125 376.0625c4.417969 0 8 3.582031 8 8s3.582031 8 8 8 8-3.582031 8-8c-.042969-10.132812-6.445312-19.148438-16-22.527344v-9.472656c0-4.417969-3.582031-8-8-8s-8 3.582031-8 8v9.472656c-11.011719 3.878906-17.621094 15.132813-15.644531 26.640625 1.980469 11.507813 11.96875 19.910157 23.644531 19.886719 4.417969 0 8 3.582031 8 8s-3.582031 8-8 8-8-3.582031-8-8-3.582031-8-8-8-8 3.582031-8 8c.042969 10.132812 6.445312 19.148438 16 22.527344v9.472656c0 4.417969 3.582031 8 8 8s8-3.582031 8-8v-9.472656c11.011719-3.878906 17.621094-15.132813 15.644531-26.640625-1.980469-11.507813-11.96875-19.910157-23.644531-19.886719-4.417969 0-8-3.582031-8-8s3.582031-8 8-8zm0 0"/><path d="m408.03125 320.472656v-8.410156c0-4.417969 3.582031-8 8-8h24c13.253906 0 24-10.746094 24-24v-16c0-4.417969-3.582031-8-8-8s-8 3.582031-8 8v16c0 4.417969-3.582031 8-8 8h-24c-13.253906 0-24 10.746094-24 24v8.410156c-37.828125 3.851563-67.738281 33.761719-71.59375 71.589844h-16.40625c-4.417969 0-8-3.582031-8-8v-32c0-4.417969-3.582031-8-8-8s-8 3.582031-8 8v32c0 13.253906 10.746094 24 24 24h16.40625c4.15625 40.851562 38.53125 71.949219 79.59375 72 12.347656.003906 24.523438-2.875 35.558594-8.40625 2.582031-1.261719 4.292968-3.808594 4.476562-6.671875.1875-2.867187-1.175781-5.613281-3.574218-7.195313-2.398438-1.582031-5.457032-1.757812-8.019532-.460937-8.828125 4.429687-18.566406 6.738281-28.441406 6.734375-35.347656 0-64-28.652344-64-64s28.652344-64 64-64 64 28.652344 64 64c0 9.207031-2.007812 18.304688-5.878906 26.65625-1.847656 4.015625-.089844 8.769531 3.925781 10.617188 4.015625 1.847656 8.769531.085937 10.617187-3.929688 10.816407-23.464844 9.613282-50.710938-3.226562-73.132812-12.835938-22.421876-35.726562-37.25-61.4375-39.800782zm0 0"/><path d="m280.03125 264.0625c0 4.417969 3.582031 8 8 8s8-3.582031 8-8v-16c0-13.253906-10.746094-24-24-24h-16v-32c0-4.417969-3.582031-8-8-8s-8 3.582031-8 8v264c0 4.417969-3.582031 8-8 8h-208c-4.417969 0-8-3.582031-8-8v-304c0-4.417969 3.582031-8 8-8h120c4.417969 0 8-3.582031 8-8s-3.582031-8-8-8h-120c-13.253906 0-24 10.746094-24 24v304c0 13.253906 10.746094 24 24 24h208c13.253906 0 24-10.746094 24-24v-216h16c4.417969 0 8 3.582031 8 8zm0 0"/><path d="m288.03125 288.0625c-4.417969 0-8 3.582031-8 8v16c0 4.417969 3.582031 8 8 8s8-3.582031 8-8v-16c0-4.417969-3.582031-8-8-8zm0 0"/><path d="m456.03125 136.0625c-4.417969 0-8-3.582031-8-8s3.582031-8 8-8c13.253906 0 24-10.746094 24-24s-10.746094-24-24-24h-40v-16c0-17.671875-14.328125-32-32-32h-55.28125l-127.246094-23.855469c-2.863281-.664062-5.859375.296875-7.804687 2.5-1.945313 2.203125-2.527344 5.296875-1.511719 8.054688 1.015625 2.757812 3.460938 4.738281 6.371094 5.15625l121.472656 22.777343v57.367188c0 4.417969 3.582031 8 8 8s8-3.582031 8-8v-56h48c8.835938 0 16 7.164062 16 16v48c0 8.835938-7.164062 16-16 16h-56c-.265625 0-.488281.128906-.742188.152344-.257812.023437-.480468-.054688-.730468 0l-118.527344 22.246094v-94.398438c0-4.417969-3.582031-8-8-8-20.550781-.019531-37.773438 15.535156-39.835938 35.980469-2.066406 20.445312 11.695313 39.128906 31.835938 43.21875v32.800781c0 4.417969 3.582031 8 8 8 .496094 0 .988281-.046875 1.472656-.144531l127.246094-23.855469h5.679688l-14.285157 78.566406c-.425781 2.339844.210938 4.742188 1.734375 6.566406 1.523438 1.820313 3.777344 2.871094 6.152344 2.867188h40c3.867188 0 7.179688-2.765625 7.871094-6.566406l4.359375-24c.667969-4.285156-2.203125-8.320313-6.472657-9.097656-4.265624-.777344-8.375 1.988281-9.261718 6.230468l-3.167969 17.433594h-23.726563l13.085938-72h23.710938l-2.644532 14.566406c-.789062 4.347656 2.09375 8.507813 6.4375 9.296875 2.085938.410157 4.246094-.039062 5.996094-1.246093 1.746094-1.203126 2.9375-3.058594 3.300781-5.152344l3.3125-18.199219c14.707031-3.199219 25.195313-16.214844 25.199219-31.265625v-16h40c4.417969 0 8 3.582031 8 8s-3.582031 8-8 8c-13.253906 0-24 10.746094-24 24s10.746094 24 24 24c4.417969 0 8 3.582031 8 8s-3.582031 8-8 8-8 3.582031-8 8v8c0 4.417969 3.582031 8 8 8s8-3.582031 8-8v-1.367188c11.027344-3.890624 17.644531-15.164062 15.667969-26.691406-1.976563-11.523437-11.972657-19.949218-23.667969-19.941406zm-280-56c.011719-10.167969 6.417969-19.230469 16-22.632812v45.265624c-9.582031-3.402343-15.988281-12.464843-16-22.632812zm0 0"/><path d="m456.03125 240.0625c4.417969 0 8-3.582031 8-8v-16c0-4.417969-3.582031-8-8-8s-8 3.582031-8 8v16c0 4.417969 3.582031 8 8 8zm0 0"/></svg>