<svg height="480pt" viewBox="0 0 480.00334 480" width="480pt" xmlns="http://www.w3.org/2000/svg"><path d="m479.609375 290.402344c.25-.777344.382813-1.585938.390625-2.402344v-40c.015625-3.046875-1.699219-5.835938-4.425781-7.199219l-59.574219-29.742187v-22.113282l52.425781 26.257813c3.953125 1.972656 8.757813.367187 10.734375-3.585937 1.976563-3.953126.371094-8.761719-3.585937-10.734376l-64-32c-.09375-.050781-.199219-.058593-.292969-.105468-.097656-.046875-.359375-.113282-.539062-.183594-.769532-.28125-1.578126-.445312-2.398438-.480469-.121094 0-.222656-.070312-.34375-.070312h-126.910156l-138.050782-38.386719c-3.140624-11.597656-14.394531-19.070312-26.300781-17.464844-11.910156 1.605469-20.78125 11.792969-20.738281 23.808594v72.800781c-18.644531 3.785157-32.039062 20.179688-32.039062 39.199219 0 19.023438 13.394531 35.417969 32.039062 39.203125v72.796875c-.042969 12.019531 8.828125 22.207031 20.738281 23.8125 11.90625 1.605469 23.160157-5.867188 26.300781-17.46875l138.050782-38.34375h29.054687l-5.054687 24h-17.089844c-13.253906 0-24 10.746094-24 24v8c0 13.257812 10.746094 24 24 24h5.296875l-11.097656 52.707031c-.992188 4.71875.195312 9.632813 3.234375 13.375 3.035156 3.746094 7.601562 5.917969 12.421875 5.917969h40.28125c1.714843.007812 3.417969-.261719 5.046875-.796875h.054687c3.164063-1.054687 5.917969-3.078125 7.867188-5.785156.199219-.273438.277343-.625.453125-.90625.765625-1.132813 1.382812-2.363281 1.832031-3.652344l6.234375-19.730469 4.640625-14.6875 33.597656-106.398437h10.136719c1.164062-.015625 2.308594-.289063 3.351562-.800781.074219 0 .152344 0 .222657-.046876l64-32c.84375-.441406 1.597656-1.035156 2.226562-1.746093.175781-.1875.339844-.386719.496094-.589844.453125-.59375.820313-1.246094 1.09375-1.9375.066406-.207031.160156-.351563.21875-.519531zm-199.609375 93.597656v-8c0-4.417969 3.582031-8 8-8h13.71875l-5.054688 24h-8.664062c-4.417969 0-8-3.578125-8-8zm120-200v24h-112v-24zm-256-37.476562 128 35.558593v23.398438l-128-35.558594zm-64 101.476562c.011719-10.167969 6.417969-19.226562 16-22.628906v45.261718c-9.582031-3.402343-15.988281-12.464843-16-22.632812zm48 112c0 4.421875-3.582031 8-8 8s-8-3.578125-8-8v-224c0-4.417969 3.582031-8 8-8s8 3.582031 8 8v104c0 4.421875 3.582031 8 8 8s8-3.578125 8-8v-53.476562l128 35.558593v57.917969c0 4.421875 3.582031 8 8 8s8-3.578125 8-8v-56h112v88h-120c-.363281.050781-.726562.121094-1.078125.21875-.359375-.003906-.714844.023438-1.066406.078125l-133.855469 37.183594v-45.480469c0-4.417969-3.582031-8-8-8s-8 3.582031-8 8zm169.855469 104 5.054687-24h42.800782l-7.574219 24zm52.914062-40h-44.488281l20.214844-96h54.59375zm65.230469-116.941406v-78.113282l48 24v30.113282zm0 0"/><path d="m312 296h64c4.417969 0 8-3.578125 8-8 0-4.417969-3.582031-8-8-8h-56v-24h56c4.417969 0 8-3.578125 8-8 0-4.417969-3.582031-8-8-8h-64c-4.417969 0-8 3.582031-8 8v40c0 4.421875 3.582031 8 8 8zm0 0"/><path d="m354.34375 104.167969c3.125 3.125 8.1875 3.125 11.3125 0 15.589844-15.632813 15.589844-40.9375 0-56.574219-2.007812-2.078125-4.984375-2.914062-7.78125-2.183594-2.796875.734375-4.980469 2.917969-5.710938 5.714844-.734374 2.796875.101563 5.773438 2.179688 7.78125 9.351562 9.382812 9.351562 24.5625 0 33.945312-1.503906 1.5-2.347656 3.535157-2.347656 5.65625 0 2.125.84375 4.160157 2.347656 5.660157zm0 0"/><path d="m376.976562 115.480469c-2.082031 2.011719-2.914062 4.984375-2.183593 7.78125.734375 2.796875 2.917969 4.980469 5.714843 5.714843 2.796876.730469 5.773438-.101562 7.78125-2.183593 28.074219-28.136719 28.074219-73.6875 0-101.824219-3.140624-3.03125-8.128906-2.988281-11.214843.097656-3.085938 3.085938-3.128907 8.078125-.097657 11.214844 21.832032 21.886719 21.832032 57.3125 0 79.199219zm0 0"/><path d="m425.367188 75.882812c.066406 23.351563-9.21875 45.757813-25.773438 62.222657-2.082031 2.007812-2.914062 4.984375-2.183594 7.78125.730469 2.796875 2.917969 4.980469 5.714844 5.710937 2.796875.734375 5.769531-.101562 7.777344-2.179687 40.613281-40.613281 40.613281-106.457031 0-147.074219-3.136719-3.03125-8.128906-2.988281-11.214844.097656-3.082031 3.085938-3.128906 8.078125-.09375 11.214844 16.554688 16.46875 25.839844 38.875 25.773438 62.226562zm0 0"/><path d="m80 152c0-4.417969-3.582031-8-8-8h-16c-4.417969 0-8 3.582031-8 8 0 4.421875 3.582031 8 8 8h16c4.417969 0 8-3.578125 8-8zm0 0"/><path d="m8 256h32c4.417969 0 8-3.578125 8-8 0-4.417969-3.582031-8-8-8h-32c-4.417969 0-8 3.582031-8 8 0 4.421875 3.582031 8 8 8zm0 0"/><path d="m48 376c0 4.421875 3.582031 8 8 8h16c4.417969 0 8-3.578125 8-8 0-4.417969-3.582031-8-8-8h-16c-4.417969 0-8 3.582031-8 8zm0 0"/><path d="m64 296h-24c-4.417969 0-8 3.582031-8 8 0 4.421875 3.582031 8 8 8h24c4.417969 0 8-3.578125 8-8 0-4.417969-3.582031-8-8-8zm0 0"/><path d="m40 184c-4.417969 0-8 3.582031-8 8 0 4.421875 3.582031 8 8 8h24c4.417969 0 8-3.578125 8-8 0-4.417969-3.582031-8-8-8zm0 0"/><path d="m256 56c4.417969 0 8-3.578125 8-8 0-4.417969-3.582031-8-8-8h-64c-4.417969 0-8 3.582031-8 8v64c0 4.421875 3.582031 8 8 8h64c4.417969 0 8-3.578125 8-8 0-4.417969-3.582031-8-8-8h-56v-48zm0 0"/><path d="m128 56c0-4.417969-3.582031-8-8-8h-40c-4.417969 0-8 3.582031-8 8 0 4.421875 3.582031 8 8 8h40c4.417969 0 8-3.578125 8-8zm0 0"/><path d="m96 88c0-4.417969-3.582031-8-8-8h-24c-4.417969 0-8 3.582031-8 8 0 4.421875 3.582031 8 8 8h24c4.417969 0 8-3.578125 8-8zm0 0"/><path d="m136 96h24c4.417969 0 8-3.578125 8-8 0-4.417969-3.582031-8-8-8h-24c-4.417969 0-8 3.582031-8 8 0 4.421875 3.582031 8 8 8zm0 0"/><path d="m160 48h-8c-4.417969 0-8 3.582031-8 8 0 4.421875 3.582031 8 8 8h8c4.417969 0 8-3.578125 8-8 0-4.417969-3.582031-8-8-8zm0 0"/><path d="m8 220c4.417969 0 8-3.578125 8-8v-172c0-13.253906 10.746094-24 24-24h224c13.253906 0 24 10.746094 24 24v96c0 4.421875 3.582031 8 8 8s8-3.578125 8-8v-96c-.027344-22.078125-17.917969-39.9726562-40-40h-224c-22.082031.0273438-39.9726562 17.921875-40 40v172c0 4.421875 3.582031 8 8 8zm0 0"/><path d="m240 408h-200c-13.253906 0-24-10.742188-24-24v-92c0-4.417969-3.582031-8-8-8s-8 3.582031-8 8v92c.0273438 22.082031 17.917969 39.976562 40 40h200c4.417969 0 8-3.578125 8-8 0-4.417969-3.582031-8-8-8zm0 0"/></svg>