<svg height="480pt" viewBox="-8 0 480 480" width="480pt" xmlns="http://www.w3.org/2000/svg"><path d="m127.808594 448h256.191406c17.671875 0 32-14.328125 32-32v-48c.003906-2.574219-1.234375-4.992188-3.320312-6.496094-2.082032-1.507812-4.765626-1.914062-7.199219-1.089844l-37.480469 12.488282v-268.902344c0-4.417969-3.582031-8-8-8s-8 3.582031-8 8v312c.019531 1.925781.214844 3.847656.585938 5.734375.078124.464844.167968.914063.269531 1.371094.382812 1.800781.917969 3.566406 1.601562 5.277343.046875.105469.101563.203126.152344.296876.484375 1.136718 1.035156 2.246093 1.648437 3.320312h-228.449218c-8.726563-.011719-15.796875-7.082031-15.808594-15.808594v-304.191406h16v16c0 4.417969 3.582031 8 8 8h48c4.417969 0 8-3.582031 8-8s-3.582031-8-8-8h-40v-32h40c4.417969 0 8-3.582031 8-8s-3.582031-8-8-8h-16v-64c0-4.417969-3.582031-8-8-8s-8 3.582031-8 8v64h-16c-4.417969 0-8 3.582031-8 8v16h-24c-4.417969 0-8 3.582031-8 8v312.191406c.019531 17.558594 14.25 31.789063 31.808594 31.808594zm272.191406-68.894531v36.894531c0 8.835938-7.164062 16-16 16s-16-7.164062-16-16v-26.230469zm0 0"/><path d="m216 112h56v16c0 4.417969 3.582031 8 8 8h48c4.417969 0 8-3.582031 8-8v-48c0-4.417969-3.582031-8-8-8h-16v-64c0-4.417969-3.582031-8-8-8s-8 3.582031-8 8v64h-16c-4.417969 0-8 3.582031-8 8v16h-56c-4.417969 0-8 3.582031-8 8s3.582031 8 8 8zm72-24h32v32h-32zm0 0"/><path d="m168 192v16c0 4.417969 3.582031 8 8 8h24c4.417969 0 8-3.582031 8-8s-3.582031-8-8-8h-16v-8c0-8.835938 7.164062-16 16-16h9.367188c3.386718 9.597656 12.457031 16.011719 22.632812 16.011719s19.246094-6.414063 22.632812-16.011719h9.367188c8.835938 0 16 7.164062 16 16v8h-16c-4.417969 0-8 3.582031-8 8v32h-56c-4.417969 0-8 3.582031-8 8s3.582031 8 8 8h64c4.417969 0 8-3.582031 8-8v-32h16c4.417969 0 8-3.582031 8-8v-16c0-17.671875-14.328125-32-32-32h-16c-4.417969 0-8 3.582031-8 8s-3.582031 8-8 8-8-3.582031-8-8-3.582031-8-8-8h-16c-17.671875 0-32 14.328125-32 32zm0 0"/><path d="m317.65625 282.34375c-3.125-3.121094-8.1875-3.121094-11.3125 0l-32 32c-2.078125 2.007812-2.914062 4.984375-2.179688 7.78125.730469 2.796875 2.914063 4.980469 5.710938 5.710938 2.796875.734374 5.773438-.101563 7.78125-2.179688l32-32c3.121094-3.125 3.121094-8.1875 0-11.3125zm0 0"/><path d="m288 288c0 4.417969-3.582031 8-8 8s-8-3.582031-8-8 3.582031-8 8-8 8 3.582031 8 8zm0 0"/><path d="m320 320c0 4.417969-3.582031 8-8 8s-8-3.582031-8-8 3.582031-8 8-8 8 3.582031 8 8zm0 0"/><path d="m200 360h-24c-4.417969 0-8 3.582031-8 8s3.582031 8 8 8h24c4.417969 0 8-3.582031 8-8s-3.582031-8-8-8zm0 0"/><path d="m160 408h40c4.417969 0 8-3.582031 8-8s-3.582031-8-8-8h-40c-4.417969 0-8 3.582031-8 8s3.582031 8 8 8zm0 0"/><path d="m163.878906 334.855469c3.789063 2.273437 8.703125 1.050781 10.976563-2.734375l24-40c1.484375-2.472656 1.527343-5.550782.105469-8.058594-1.417969-2.511719-4.078126-4.0625-6.960938-4.0625h-32c-4.417969 0-8 3.582031-8 8s3.582031 8 8 8h17.863281l-16.71875 27.878906c-2.273437 3.789063-1.050781 8.703125 2.734375 10.976563zm0 0"/><path d="m248 320c4.417969 0 8-3.582031 8-8v-8c0-13.253906-10.746094-24-24-24s-24 10.746094-24 24v8c0 13.253906 10.746094 24 24 24 4.417969 0 8-3.582031 8-8s-3.582031-8-8-8-8-3.582031-8-8v-8c0-4.417969 3.582031-8 8-8s8 3.582031 8 8v8c0 4.417969 3.582031 8 8 8zm0 0"/><path d="m320 368c0-4.417969-3.582031-8-8-8h-48c-4.417969 0-8 3.582031-8 8s3.582031 8 8 8h48c4.417969 0 8-3.582031 8-8zm0 0"/><path d="m264 392c-4.417969 0-8 3.582031-8 8s3.582031 8 8 8h32c4.417969 0 8-3.582031 8-8s-3.582031-8-8-8zm0 0"/><path d="m456 464h-448c-4.417969 0-8 3.582031-8 8s3.582031 8 8 8h448c4.417969 0 8-3.582031 8-8s-3.582031-8-8-8zm0 0"/><path d="m400 248h48c4.417969 0 8-3.582031 8-8s-3.582031-8-8-8h-40v-32h40c4.417969 0 8-3.582031 8-8s-3.582031-8-8-8h-16v-176c0-4.417969-3.582031-8-8-8s-8 3.582031-8 8v176h-16c-4.417969 0-8 3.582031-8 8v48c0 4.417969 3.582031 8 8 8zm0 0"/><path d="m40 336c16.09375.019531 29.6875-11.9375 31.71875-27.90625 2.035156-15.964844-8.132812-30.945312-23.71875-34.957031v-265.136719c0-4.417969-3.582031-8-8-8s-8 3.582031-8 8v265.136719c-15.585938 4.011719-25.753906 18.992187-23.71875 34.957031 2.03125 15.96875 15.625 27.925781 31.71875 27.90625zm0-48c8.835938 0 16 7.164062 16 16s-7.164062 16-16 16-16-7.164062-16-16 7.164062-16 16-16zm0 0"/></svg>