<svg height="480pt" viewBox="0 0 480 480.19602" width="480pt" xmlns="http://www.w3.org/2000/svg"><path d="m440.097656 112.195312h-112v-40c-.003906-11.4375-8.078125-21.285156-19.296875-23.527343l18.496094-36.894531c1.976563-3.957032.371094-8.761719-3.582031-10.738282-3.957032-1.972656-8.761719-.371094-10.738282 3.585938l-19.453124 38.832031-48.21875-41.328125c-2.152344-1.988281-5.21875-2.640625-7.992188-1.703125-2.777344.941406-4.816406 3.320313-5.316406 6.207031-.503906 2.886719.613281 5.820313 2.910156 7.640625l39.589844 33.925781h-98.398438c-4.417968 0-8 3.582032-8 8 0 4.417969 3.582032 8 8 8h128c4.417969 0 8 3.582032 8 8v40h-272c-22.078125.027344-39.972656 17.921876-39.9999998 40v96c0 4.417969 3.5820318 8 7.9999998 8 4.417969 0 8-3.582031 8-8v-96c0-13.253906 10.746094-24 24-24h400c13.253906 0 24 10.746094 24 24v216h-248c-4.417968 0-8 3.582032-8 8 0 4.417969 3.582032 8 8 8h88v32h-264c-13.253906 0-24-10.746093-24-24v-8h120c4.417969 0 8-3.582031 8-8 0-4.417968-3.582031-8-8-8h-120v-56c0-4.417968-3.582031-8-8-8-4.417968 0-7.9999998 3.582032-7.9999998 8v80c.0273438 22.082032 17.9218748 39.972657 39.9999998 40h32v32h-32c-4.417968 0-8 3.582032-8 8 0 4.417969 3.582032 8 8 8h112c4.417969 0 8-3.582031 8-8 0-4.417968-3.582031-8-8-8h-32v-32h272v32h-16v-8c0-4.417968-3.582031-8-8-8-4.417968 0-8 3.582032-8 8v8h-32c-4.417968 0-8 3.582032-8 8 0 4.417969 3.582032 8 8 8h112c4.417969 0 8-3.582031 8-8 0-4.417968-3.582031-8-8-8h-32v-32h32c22.082032-.027343 39.972656-17.917968 40-40v-240c-.027344-22.078124-17.917968-39.972656-40-40zm-336 352h-16v-32h16zm216-48v-32h16v32zm120 0h-56v-8c0-4.417968-3.582031-8-8-8-4.417968 0-8 3.582032-8 8v8h-16v-32h112v8c0 13.253907-10.746094 24-24 24zm0 0"/><path d="m264.097656 88.195312c0 4.417969-3.582031 8-8 8-4.417968 0-8-3.582031-8-8 0-4.417968 3.582032-8 8-8 4.417969 0 8 3.582032 8 8zm0 0"/><path d="m296.097656 88.195312c0 4.417969-3.582031 8-8 8-4.417968 0-8-3.582031-8-8 0-4.417968 3.582032-8 8-8 4.417969 0 8 3.582032 8 8zm0 0"/><path d="m224.097656 96.195312c4.417969 0 8-3.582031 8-8 0-4.417968-3.582031-8-8-8h-32c-4.417968 0-8 3.582032-8 8 0 4.417969 3.582032 8 8 8zm0 0"/><path d="m304.097656 154.8125c-16.679687 0-33.070312 4.382812-47.527344 12.703125-.152343.074219-.320312.074219-.472656.160156-.152344.089844-.289062.289063-.464844.410157-14.140624 8.316406-25.929687 20.105468-34.253906 34.246093-.121094.175781-.3125.289063-.425781.480469-.109375.191406-.078125.320312-.160156.480469-16.925781 29.417969-16.925781 65.621093 0 95.039062.082031.152344.074219.328125.160156.480469.1875.28125.394531.546875.617187.800781 8.308594 14 20.019532 25.671875 34.046876 33.933594.183593.121094.289062.304687.480468.417969.191406.109375.449219.175781.664063.277344 29.230469 16.734374 65.128906 16.777343 94.398437.113281.324219-.113281.636719-.25.9375-.40625.160156-.089844.242188-.242188.390625-.34375 14.011719-8.234375 25.710938-19.878907 34.007813-33.847657.269531-.296874.515625-.613281.738281-.945312.082031-.214844.15625-.433594.214844-.65625 2.796875-4.878906 5.15625-9.992188 7.046875-15.289062 1.417968-4.144532-.765625-8.660157-4.898438-10.125-4.128906-1.460938-8.667968.667968-10.179687 4.78125-.742188 2.082031-1.566407 4.117187-2.472657 6.113281l-6.503906-3.761719c-3.828125-2.207031-8.722656-.894531-10.929687 2.933594-2.210938 3.828125-.898438 8.722656 2.929687 10.929687l6.464844 3.730469c-5.027344 7-11.152344 13.140625-18.136719 18.191406l-3.75-6.496094c-1.421875-2.496093-4.066406-4.039062-6.9375-4.046874-2.871093-.003907-5.527343 1.527343-6.957031 4.015624-1.429688 2.488282-1.414062 5.554688.035156 8.03125l3.746094 6.488282c-7.847656 3.566406-16.222656 5.832031-24.800781 6.703125v-7.542969c0-4.417969-3.582031-8-8-8s-8 3.582031-8 8v7.589844c-8.578125-.875-16.953125-3.144532-24.800781-6.71875l3.761718-6.519532c1.453125-2.476562 1.464844-5.542968.035156-8.03125-1.429687-2.488281-4.082031-4.019531-6.953124-4.015624-2.871094.007812-5.519532 1.550781-6.9375 4.046874l-3.746094 6.488282c-6.988282-5.046875-13.121094-11.179688-18.167969-18.167969l6.488281-3.746094c3.828125-2.207031 5.140625-7.101562 2.933594-10.929687-2.210938-3.828125-7.105469-5.140625-10.933594-2.933594l-6.519531 3.769531c-3.578125-7.84375-5.847656-16.222656-6.71875-24.800781h7.550781c4.417969 0 8-3.582031 8-8s-3.582031-8-8-8h-7.589844c.867188-8.578125 3.140626-16.957031 6.71875-24.800781l6.519532 3.761719c1.214844.703124 2.59375 1.074218 4 1.070312 3.625.007812 6.804687-2.425781 7.742187-5.929688.9375-3.503906-.597656-7.199218-3.742187-9.003906l-6.488282-3.746094c5.046876-6.984374 11.179688-13.117187 18.167969-18.160156l3.746094 6.488282c2.222656 3.792968 7.089844 5.082031 10.898437 2.882812 3.808594-2.199219 5.128907-7.058594 2.957032-10.882812l-3.761719-6.519532c7.84375-3.578125 16.222656-5.851562 24.800781-6.726562v7.597656c0 4.417969 3.582032 8 8 8 4.417969 0 8-3.582031 8-8v-7.558594c8.59375.84375 16.992188 3.078125 24.871094 6.617188l-3.800781 6.589844c-1.449219 2.476562-1.464844 5.542968-.035157 8.03125 1.429688 2.488281 4.085938 4.023437 6.957032 4.015624 2.871094-.007812 5.515625-1.550781 6.933594-4.046874l3.824218-6.632813c7.023438 5.050781 13.175782 11.207031 18.21875 18.234375l-6.617187 3.816406c-3.828125 2.207032-5.140625 7.101563-2.933594 10.929688 2.210937 3.828125 7.105469 5.140625 10.933594 2.933594l6.535156-3.777344c1.285156 2.816406 2.410156 5.703125 3.367187 8.648437 1.460938 4.03125 5.835938 6.195313 9.925782 4.90625 4.089844-1.285156 6.4375-5.566406 5.324218-9.707031-2.09375-6.542969-4.875-12.84375-8.304687-18.800781 0-.054688 0-.109375-.054687-.167969-.058594-.054688-.082032-.070312-.105469-.117188-17.0625-29.722656-48.734375-48.03125-83.007813-47.976562zm0 0"/><path d="m321.699219 214.011719-21.601563 28.800781h-28c-4.417968 0-8 3.582031-8 8s3.582032 8 8 8h32c2.519532 0 4.890625-1.1875 6.398438-3.199219l24-32c2.652344-3.535156 1.9375-8.550781-1.597656-11.203125-3.535157-2.648437-8.550782-1.933594-11.199219 1.601563zm0 0"/><path d="m392.097656 242.8125h-24c-4.417968 0-8 3.582031-8 8s3.582032 8 8 8h24c4.417969 0 8-3.582031 8-8s-3.582031-8-8-8zm0 0"/><path d="m48.097656 250.8125c0 13.253906 10.746094 24 24 24h88c4.417969 0 8-3.582031 8-8s-3.582031-8-8-8h-88c-4.417968 0-8-3.582031-8-8s3.582032-8 8-8h40c4.417969 0 8-3.582031 8-8s-3.582031-8-8-8c-4.417968 0-8-3.582031-8-8s3.582032-8 8-8h48c4.417969 0 8-3.582031 8-8s-3.582031-8-8-8c-4.417968 0-8-3.582031-8-8s3.582032-8 8-8h38.3125c-29.746094 43.390625-29.746094 100.609375 0 144h-62.3125c-4.417968 0-8-3.582031-8-8s3.582032-8 8-8h24c4.417969 0 8-3.582031 8-8s-3.582031-8-8-8h-24c-13.253906 0-24 10.746094-24 24s10.746094 24 24 24h78.738282c3.15625 0 6.015624-1.859375 7.304687-4.742188 1.285156-2.882812.753906-6.253906-1.355469-8.601562-38.25-42.425781-38.25-106.894531 0-149.320312 2.105469-2.351563 2.632813-5.71875 1.347656-8.597657-1.289062-2.878906-4.144531-4.734375-7.296874-4.738281h-54.738282c-7.792968-.003906-15.097656 3.78125-19.597656 10.140625-4.5 6.363281-5.632812 14.511719-3.035156 21.859375h-25.367188c-7.792968-.003906-15.097656 3.78125-19.597656 10.140625-4.5 6.363281-5.632812 14.511719-3.035156 21.859375h-17.367188c-13.253906 0-24 10.746094-24 24zm0 0"/><path d="m112.097656 178.8125c4.417969 0 8-3.582031 8-8s-3.582031-8-8-8h-16c-4.417968 0-8 3.582031-8 8s3.582032 8 8 8zm0 0"/><path d="m88.097656 298.8125c0-4.417969-3.582031-8-8-8h-16c-4.417968 0-8 3.582031-8 8s3.582032 8 8 8h16c4.417969 0 8-3.582031 8-8zm0 0"/><path d="m80.097656 338.8125h16c4.417969 0 8-3.582031 8-8s-3.582031-8-8-8h-16c-4.417968 0-8 3.582031-8 8s3.582032 8 8 8zm0 0"/><path d="m72.097656 194.8125h-24c-4.417968 0-8 3.582031-8 8s3.582032 8 8 8h24c4.417969 0 8-3.582031 8-8s-3.582031-8-8-8zm0 0"/><path d="m378.601562 334.226562c-2.476562 2.210938-3.328124 5.71875-2.148437 8.820313 1.183594 3.101563 4.160156 5.148437 7.476563 5.148437 1.964843.007813 3.859374-.71875 5.320312-2.03125 27.203125-24.238281 42.785156-58.917968 42.847656-95.351562.105469-34.949219-14.234375-68.390625-39.632812-92.402344-2.050782-2.046875-5.050782-2.824218-7.839844-2.027344-2.789062.792969-4.929688 3.035157-5.597656 5.855469-.664063 2.824219.25 5.785157 2.390625 7.742188 22.214843 21.007812 34.765625 50.257812 34.679687 80.832031-.054687 31.875-13.691406 62.214844-37.496094 83.414062zm0 0"/></svg>