<svg height="480pt" viewBox="0 0 480 480" width="480pt" xmlns="http://www.w3.org/2000/svg"><path d="m480 136v-96c-.027344-22.082031-17.917969-39.9726562-40-40h-400c-22.082031.0273438-39.9726562 17.917969-40 40v16c0 4.417969 3.582031 8 8 8s8-3.582031 8-8v-16c0-13.253906 10.746094-24 24-24h400c13.253906 0 24 10.746094 24 24v96c0 13.253906-10.746094 24-24 24h-32v-71.199219c0-13.699219-11.101562-24.800781-24.800781-24.800781h-95.199219c-4.417969 0-8 3.582031-8 8s3.582031 8 8 8h95.199219c4.859375 0 8.800781 3.941406 8.800781 8.800781v71.199219h-16v-56c0-4.417969-3.582031-8-8-8h-256c-4.417969 0-8 3.582031-8 8v56h-16v-71.199219c0-4.859375 3.941406-8.800781 8.800781-8.800781h103.199219c4.417969 0 8-3.582031 8-8s-3.582031-8-8-8h-103.199219c-13.699219 0-24.800781 11.101562-24.800781 24.800781v71.199219h-32c-13.253906 0-24-10.746094-24-24v-16c0-4.417969-3.582031-8-8-8s-8 3.582031-8 8v16c.0273438 22.082031 17.917969 39.972656 40 40v112h-8c-13.253906 0-24 10.746094-24 24s10.746094 24 24 24h48c4.417969 0 8-3.582031 8-8s-3.582031-8-8-8h-48c-4.417969 0-8-3.582031-8-8s3.582031-8 8-8h48c4.417969 0 8-3.582031 8-8v-120h16v196.496094l-101.425781 93.625c-2.417969 2.234375-3.222657 5.722656-2.023438 8.789062 1.199219 3.070313 4.15625 5.089844 7.449219 5.089844h464c3.292969 0 6.25-2.019531 7.449219-5.089844 1.199219-3.066406.394531-6.554687-2.023438-8.789062l-34.664062-32c-3.25-3-8.3125-2.796875-11.308594.449218-3 3.25-2.796875 8.3125.449219 11.308594l19.632812 18.121094h-71.136718l-58.605469-92.289062c-2.371094-3.730469-7.3125-4.835938-11.046875-2.46875-3.730469 2.371093-4.835938 7.316406-2.464844 11.046874l53.160156 83.710938h-67.6875l-19.691406-58.550781c-1.40625-4.199219-5.953125-6.457031-10.152344-5.050781-4.195312 1.410156-6.457031 5.957031-5.046875 10.152343l18.007813 53.449219h-73.742188l17.96875-53.449219c.984375-2.726562.417969-5.773437-1.484375-7.964843-1.902343-2.1875-4.839843-3.175782-7.679687-2.582032-2.835938.59375-5.132813 2.675782-5.996094 5.445313l-19.691406 58.550781h-67.6875l53.160156-83.710938c2.371094-3.730468 1.265625-8.675781-2.464844-11.046874-3.734375-2.367188-8.675781-1.261719-11.046875 2.46875l-58.605469 92.289062h-71.136718l88.960937-82.121094c1.640625-1.511718 2.574219-3.644531 2.574219-5.878906v-264h240v264c0 2.234375.933594 4.367188 2.574219 5.878906l26 24c2.097656 1.972656 5.089843 2.664063 7.839843 1.816406 2.746094-.84375 4.828126-3.101562 5.453126-5.910156.621093-2.808594-.308594-5.734375-2.441407-7.664062l-23.425781-21.625v-196.496094h16v120c0 4.417969 3.582031 8 8 8h48c4.417969 0 8 3.582031 8 8s-3.582031 8-8 8h-48c-4.417969 0-8 3.582031-8 8s3.582031 8 8 8h48c13.253906 0 24-10.746094 24-24s-10.746094-24-24-24h-8v-112c22.082031-.027344 39.972656-17.917969 40-40zm-424 152v-112h16v112zm368 0h-16v-112h16zm0 0"/><path d="m392 48c4.417969 0 8-3.582031 8-8s-3.582031-8-8-8h-48c-4.417969 0-8 3.582031-8 8s3.582031 8 8 8zm0 0"/><path d="m448 80c0 4.417969-3.582031 8-8 8s-8-3.582031-8-8 3.582031-8 8-8 8 3.582031 8 8zm0 0"/><path d="m448 112c0 4.417969-3.582031 8-8 8s-8-3.582031-8-8 3.582031-8 8-8 8 3.582031 8 8zm0 0"/><path d="m48 80c0 4.417969-3.582031 8-8 8s-8-3.582031-8-8 3.582031-8 8-8 8 3.582031 8 8zm0 0"/><path d="m48 112c0 4.417969-3.582031 8-8 8s-8-3.582031-8-8 3.582031-8 8-8 8 3.582031 8 8zm0 0"/><path d="m288 280c4.417969 0 8-3.582031 8-8v-96c0-2.351562-1.035156-4.585938-2.832031-6.105469s-4.167969-2.171875-6.488281-1.78125l-95.34375 15.886719h-15.335938c-22.089844 0-40 17.910156-40 40s17.910156 40 40 40h15.335938l5.886718.984375 15.730469 47.199219c2.429687 8.097656 9.074219 14.230468 17.339844 16.007812s16.84375-1.082031 22.386719-7.460937c5.546874-6.382813 7.183593-15.273438 4.273437-23.210938l-7.984375-23.917969 37.710938 6.277344c.4375.082032.878906.121094 1.320312.121094zm-136-56c0-13.253906 10.746094-24 24-24h8v48h-8c-13.253906 0-24-10.746094-24-24zm79.113281 46.632812 10.640625 31.917969c.738282 2.1875.371094 4.597657-.984375 6.464844-1.667969 2.019531-4.277343 3.015625-6.867187 2.621094-2.59375-.394531-4.785156-2.121094-5.773438-4.546875l-13.039062-39.128906 8 1.335937zm48.886719-8.082031-80-13.328125v-50.445312l80-13.328125zm0 0"/><path d="m336 216h-16c-4.417969 0-8 3.582031-8 8s3.582031 8 8 8h16c4.417969 0 8-3.582031 8-8s-3.582031-8-8-8zm0 0"/><path d="m320 192c1.238281 0 2.460938-.289062 3.566406-.839844l16-8c3.957032-1.976562 5.5625-6.78125 3.585938-10.734375-1.976563-3.957031-6.78125-5.5625-10.738282-3.585937l-16 8c-3.324218 1.65625-5.070312 5.386718-4.214843 9 .855469 3.617187 4.085937 6.167968 7.800781 6.160156zm0 0"/><path d="m323.574219 256.800781c-3.953125-1.976562-8.757813-.371093-10.734375 3.582031-1.976563 3.957032-.371094 8.761719 3.585937 10.738282l16 8c3.953125 1.972656 8.757813.371094 10.734375-3.585938 1.976563-3.953125.371094-8.761718-3.585937-10.734375zm0 0"/></svg>