<svg height="480pt" viewBox="0 -31 480 479" width="480pt" xmlns="http://www.w3.org/2000/svg"><path d="m104 224.5h160c4.417969 0 8-3.582031 8-8v-128c0-4.417969-3.582031-8-8-8h-38.152344c8.917969-9.425781 8.726563-24.230469-.421875-33.425781-9.5-9.058594-24.441406-9.058594-33.9375 0-2.890625 3.167969-5.402343 6.65625-7.488281 10.402343-2.085938-3.746093-4.597656-7.234374-7.488281-10.402343-9.496094-9.058594-24.4375-9.058594-33.9375 0-9.148438 9.195312-9.339844 24-.421875 33.425781h-38.152344c-4.417969 0-8 3.582031-8 8v24c0 4.417969 3.582031 8 8 8s8-3.582031 8-8v-16h39.351562l-21.597656 27c-2.761718 3.449219-2.203125 8.488281 1.246094 11.246094 3.449219 2.761718 8.488281 2.203125 11.246094-1.246094l17.753906-22.191406v97.191406h-48v-48c0-4.417969-3.582031-8-8-8s-8 3.582031-8 8v56c0 4.417969 3.582031 8 8 8zm152-16h-48v-97.191406l17.753906 22.191406c2.757813 3.449219 7.796875 4.007812 11.246094 1.246094 3.449219-2.757813 4.007812-7.796875 1.246094-11.246094l-21.597656-27h39.351562zm-47.542969-152.449219c3.234375 0 6.152344 1.949219 7.386719 4.941407 1.238281 2.988281.554688 6.429687-1.730469 8.714843-6.292969 5.347657-13.808593 9.054688-21.882812 10.792969h-.230469c1.695312-8.164062 5.421875-15.769531 10.832031-22.113281 1.488281-1.496094 3.511719-2.335938 5.625-2.335938zm-54.570312 2.34375c3.167969-3.019531 8.148437-3.019531 11.3125 0 5.398437 6.34375 9.113281 13.949219 10.800781 22.105469h-.265625c-8.070313-1.738281-15.585937-5.445312-21.878906-10.792969-3.113281-3.132812-3.097657-8.195312.03125-11.3125zm22.113281 38.105469h16v112h-16zm0 0"/><path d="m153.65625 246.84375c-3.125-3.121094-8.1875-3.121094-11.3125 0l-84 84c-2.078125 2.007812-2.914062 4.984375-2.179688 7.78125.730469 2.796875 2.914063 4.980469 5.710938 5.710938 2.796875.734374 5.773438-.101563 7.78125-2.179688l84-84c3.121094-3.125 3.121094-8.1875 0-11.3125zm0 0"/><path d="m136 352.5c13.253906 0 24-10.746094 24-24s-10.746094-24-24-24-24 10.746094-24 24 10.746094 24 24 24zm0-32c4.417969 0 8 3.582031 8 8s-3.582031 8-8 8-8-3.582031-8-8 3.582031-8 8-8zm0 0"/><path d="m48 264.5c0 13.253906 10.746094 24 24 24s24-10.746094 24-24-10.746094-24-24-24-24 10.746094-24 24zm32 0c0 4.417969-3.582031 8-8 8s-8-3.582031-8-8 3.582031-8 8-8 8 3.582031 8 8zm0 0"/><path d="m216 272.5c0-4.417969-3.582031-8-8-8s-8 3.582031-8 8v16c0 4.417969 3.582031 8 8 8s8-3.582031 8-8zm0 0"/><path d="m208 312.5c-4.417969 0-8 3.582031-8 8v16c0 4.417969 3.582031 8 8 8s8-3.582031 8-8v-16c0-4.417969-3.582031-8-8-8zm0 0"/><path d="m272 272.5h-8c-4.417969 0-8 3.582031-8 8v64c0 4.417969 3.582031 8 8 8h64c4.417969 0 8-3.582031 8-8s-3.582031-8-8-8h-56v-16h56c4.417969 0 8-3.582031 8-8v-32c0-4.417969-3.582031-8-8-8h-8v-32c0-4.417969-3.582031-8-8-8h-32c-4.417969 0-8 3.582031-8 8zm0 16h48v16h-48zm16-40h16v24h-16zm0 0"/><path d="m424 216.5c0-4.417969-3.582031-8-8-8h-112c-4.417969 0-8 3.582031-8 8s3.582031 8 8 8h104v112h-48c-4.417969 0-8 3.582031-8 8s3.582031 8 8 8h56c4.417969 0 8-3.582031 8-8zm0 0"/><path d="m360 288.5c4.417969 0 8-3.582031 8-8v-8l9.601562 12.800781c1.507813 2.011719 3.878907 3.199219 6.398438 3.199219.859375-.003906 1.710938-.140625 2.527344-.40625 3.269531-1.089844 5.472656-4.148438 5.472656-7.59375v-32c0-4.417969-3.582031-8-8-8s-8 3.582031-8 8v8l-9.601562-12.800781c-2.066407-2.753907-5.660157-3.878907-8.929688-2.789063-3.265625 1.089844-5.46875 4.144532-5.46875 7.589844v32c0 4.417969 3.582031 8 8 8zm0 0"/><path d="m360 320.5h24c4.417969 0 8-3.582031 8-8s-3.582031-8-8-8h-24c-4.417969 0-8 3.582031-8 8s3.582031 8 8 8zm0 0"/><path d="m248 368.5c-4.417969 0-8 3.582031-8 8s3.582031 8 8 8h64c4.417969 0 8-3.582031 8-8s-3.582031-8-8-8zm0 0"/><path d="m344 368.5c-4.417969 0-8 3.582031-8 8s3.582031 8 8 8h8c4.417969 0 8-3.582031 8-8s-3.582031-8-8-8zm0 0"/><path d="m416 368.5h-32c-4.417969 0-8 3.582031-8 8s3.582031 8 8 8h32c4.417969 0 8-3.582031 8-8s-3.582031-8-8-8zm0 0"/><path d="m448 176.5h-22.558594l14.445313-86.679688c.390625-2.320312-.261719-4.691406-1.78125-6.488281s-3.753907-2.832031-6.105469-2.832031h-104c-2.351562 0-4.585938 1.035156-6.105469 2.832031s-2.171875 4.167969-1.78125 6.488281l14.445313 86.679688h-38.558594c-4.417969 0-8 3.582031-8 8s3.582031 8 8 8h152c8.835938 0 16 7.164062 16 16v176c0 8.835938-7.164062 16-16 16h-232v-32c0-4.417969-3.582031-8-8-8s-8 3.582031-8 8v32h-168c-8.835938 0-16-7.164062-16-16v-176c0-8.835938 7.164062-16 16-16h40c4.417969 0 8-3.582031 8-8s-3.582031-8-8-8h-40c-17.671875 0-32 14.328125-32 32v176c0 17.671875 14.328125 32 32 32h416c17.671875 0 32-14.328125 32-32v-176c0-17.671875-14.328125-32-32-32zm-97.222656 0-8-48h49.222656c4.417969 0 8-3.582031 8-8s-3.582031-8-8-8h-51.886719l-2.664062-16h85.101562l-8 48h-38.550781c-4.417969 0-8 3.582031-8 8s3.582031 8 8 8h35.894531l-2.671875 16zm0 0"/><path d="m384 64.5c4.417969 0 8-3.582031 8-8v-48c0-4.417969-3.582031-8-8-8s-8 3.582031-8 8v48c0 4.417969 3.582031 8 8 8zm0 0"/><path d="m337.144531 60.621094c2.3125 3.695312 7.164063 4.859375 10.902344 2.613281s4.988281-7.074219 2.808594-10.855469l-24-40c-1.445313-2.503906-4.128907-4.035156-7.023438-4.003906-2.890625.035156-5.539062 1.625-6.925781 4.164062-1.386719 2.539063-1.296875 5.628907.238281 8.082032zm0 0"/><path d="m421.03125 63.933594c4.101562 1.640625 8.757812-.355469 10.402344-4.457032l16-40c1.640625-4.105468-.351563-8.765624-4.457032-10.410156-4.105468-1.640625-8.765624.351563-10.410156 4.457032l-16 40c-.789062 1.972656-.761718 4.179687.074219 6.128906.839844 1.953125 2.417969 3.492187 4.390625 4.28125zm0 0"/></svg>