<svg height="480pt" viewBox="0 -24 480 480" width="480pt" xmlns="http://www.w3.org/2000/svg"><path d="m408 96h-24c.003906-6.546875-1.339844-13.023438-3.953125-19.023438l61.144531-34.242187c4.195313 3.386719 9.417969 5.246094 14.808594 5.265625 13.253906 0 24-10.746094 24-24s-10.746094-24-24-24-24 10.746094-24 24c.011719 1.753906.214844 3.5.609375 5.207031l-61.335937 34.351563c-8.789063-9.617188-21.121094-15.230469-34.148438-15.546875-13.023438-.3125-25.609375 4.703125-34.851562 13.882812l-58.875-32.710937c.394531-1.699219.59375-3.4375.601562-5.183594 0-13.253906-10.746094-24-24-24s-24 10.746094-24 24 10.746094 24 24 24c5.402344-.023438 10.632812-1.882812 14.832031-5.28125l58.078125 32.273438c-3.222656 6.535156-4.902344 13.722656-4.910156 21.007812h-120c-4.417969 0-8 3.582031-8 8s3.582031 8 8 8h240c30.914062.035156 55.964844 25.085938 56 56v160c-.035156 30.914062-25.085938 55.964844-56 56h-80c-4.417969 0-8 3.582031-8 8s3.582031 8 8 8h24v8c0 13.253906 10.746094 24 24 24s24-10.746094 24-24v-8h8c39.746094-.042969 71.957031-32.253906 72-72v-160c-.042969-39.746094-32.253906-71.957031-72-72zm48-80c4.417969 0 8 3.582031 8 8s-3.582031 8-8 8-8-3.582031-8-8 3.582031-8 8-8zm-244 8c0-4.417969 3.582031-8 8-8s8 3.582031 8 8-3.582031 8-8 8-8-3.582031-8-8zm92 72c0-17.671875 14.328125-32 32-32s32 14.328125 32 32zm80 312c0 4.417969-3.582031 8-8 8s-8-3.582031-8-8v-8h16zm0 0"/><path d="m264 384h-192c-30.914062-.035156-55.964844-25.085938-56-56v-160c.035156-30.914062 25.085938-55.964844 56-56h32c4.417969 0 8-3.582031 8-8s-3.582031-8-8-8h-32c-39.746094.042969-71.9570312 32.253906-72 72v160c.0429688 39.746094 32.253906 71.957031 72 72h8v8c0 13.253906 10.746094 24 24 24s24-10.746094 24-24v-8h136c4.417969 0 8-3.582031 8-8s-3.582031-8-8-8zm-152 24c0 4.417969-3.582031 8-8 8s-8-3.582031-8-8v-8h16zm0 0"/><path d="m56 304c-4.417969 0-8 3.582031-8 8v16c0 13.253906 10.746094 24 24 24h144c13.253906 0 24-10.746094 24-24v-160c0-13.253906-10.746094-24-24-24h-160c-4.417969 0-8 3.582031-8 8s3.582031 8 8 8h32v16h-32c-4.417969 0-8 3.582031-8 8v32c0 4.417969 3.582031 8 8 8h80v16h-80c-4.417969 0-8 3.582031-8 8v32c0 4.417969 3.582031 8 8 8h80v16zm8 24v-8h112v16h-104c-4.417969 0-8-3.582031-8-8zm160 0c0 4.417969-3.582031 8-8 8h-24v-16h32zm0-136v16h-72v-16zm0 80h-72v-16h72zm0 16v16h-32v-16zm-120-128h112c4.417969 0 8 3.582031 8 8v8h-120zm-40 32h24v16h-24zm40 16v-16h32v16zm48 16h72v16h-72zm-88 48v-16h72v16zm88 16h24v16h-24zm0 0"/><path d="m332 316c0-13.253906-10.746094-24-24-24s-24 10.746094-24 24 10.746094 24 24 24 24-10.746094 24-24zm-24 8c-4.417969 0-8-3.582031-8-8s3.582031-8 8-8 8 3.582031 8 8-3.582031 8-8 8zm0 0"/><path d="m388 316c0 4.417969-3.582031 8-8 8s-8-3.582031-8-8-3.582031-8-8-8-8 3.582031-8 8c0 13.253906 10.746094 24 24 24s24-10.746094 24-24c0-4.417969-3.582031-8-8-8s-8 3.582031-8 8zm0 0"/><path d="m303.28125 232 .71875.128906v11.871094c0 15.464844 12.535156 28 28 28s28-12.535156 28-28v-1.6875l30.566406 5.597656c.476563.074219.953125.105469 1.433594.089844 4.417969 0 8-3.582031 8-8v-80c0-2.371094-1.050781-4.621094-2.875-6.144531-1.820312-1.519531-4.222656-2.152344-6.558594-1.726563l-32 5.824219c-4.242187.886719-7.007812 4.996094-6.230468 9.261719.777343 4.265625 4.8125 7.136718 9.097656 6.472656l22.566406-4.085938v60.796876l-30.566406-5.597657-40-7.273437-1.433594-.199219v-34.65625l9.433594-1.710937c4.347656-.792969 7.230468-4.957032 6.4375-9.304688-.789063-4.347656-4.957032-7.230469-9.304688-6.441406l-15.285156 2.785156h-7.28125c-17.671875 0-32 14.328125-32 32s14.328125 32 32 32zm40.71875 12c0 6.628906-5.371094 12-12 12s-12-5.371094-12-12v-8.960938l24 4.359376zm-64-44c0-8.835938 7.164062-16 16-16v32c-8.835938 0-16-7.164062-16-16zm0 0"/><path d="m432 160c0 4.417969-3.582031 8-8 8s-8-3.582031-8-8 3.582031-8 8-8 8 3.582031 8 8zm0 0"/><path d="m440 200c0 4.417969-3.582031 8-8 8s-8-3.582031-8-8 3.582031-8 8-8 8 3.582031 8 8zm0 0"/><path d="m432 240c0 4.417969-3.582031 8-8 8s-8-3.582031-8-8 3.582031-8 8-8 8 3.582031 8 8zm0 0"/></svg>