<svg height="480pt" viewBox="-8 0 480 480.00384" width="480pt" xmlns="http://www.w3.org/2000/svg"><path d="m184 432h-24v-56h56c13.257812 0 24-10.746094 24-24v-280c0-13.253906-10.742188-24-24-24h-192c-13.253906 0-24 10.746094-24 24v152c0 4.417969 3.582031 8 8 8 4.421875 0 8-3.582031 8-8v-152c0-4.417969 3.582031-8 8-8h192c4.421875 0 8 3.582031 8 8v280c0 4.417969-3.578125 8-8 8h-192c-4.417969 0-8-3.582031-8-8v-56c0-4.417969-3.578125-8-8-8-4.417969 0-8 3.582031-8 8v56c0 13.253906 10.746094 24 24 24h56v56h-24c-4.417969 0-8 3.582031-8 8s3.582031 8 8 8h128c4.421875 0 8 3.582031 8 8s-3.578125 8-8 8h-128c-4.417969 0-8 3.582031-8 8s3.582031 8 8 8h128c13.257812 0 24-10.746094 24-24s-10.742188-24-24-24zm-88 0v-56h48v56zm0 0"/><path d="m200 88c0-4.417969-3.578125-8-8-8h-144c-4.417969 0-8 3.582031-8 8v112c0 4.417969 3.582031 8 8 8h144c4.421875 0 8-3.582031 8-8v-64c0-4.417969-3.578125-8-8-8-4.417969 0-8 3.582031-8 8v56h-128v-96h136c4.421875 0 8-3.582031 8-8zm0 0"/><path d="m96 144c-4.417969 0-8 3.582031-8 8v16c0 2.773438 1.433594 5.347656 3.792969 6.808594 2.359375 1.457031 5.304687 1.589844 7.785156.351562l48-24c2.714844-1.351562 4.429687-4.125 4.429687-7.160156s-1.714843-5.808594-4.429687-7.160156l-48-24c-3.953125-1.976563-8.761719-.371094-10.734375 3.585937-1.976562 3.953125-.371094 8.757813 3.582031 10.734375l33.6875 16.839844-22.113281 11.054688v-3.054688c0-4.417969-3.578125-8-8-8zm0 0"/><path d="m120 224h-32c-4.417969 0-8 3.582031-8 8s3.582031 8 8 8h32c4.421875 0 8-3.582031 8-8s-3.578125-8-8-8zm0 0"/><path d="m24 264c0 4.417969 3.582031 8 8 8h80c4.421875 0 8-3.582031 8-8s-3.578125-8-8-8h-80c-4.417969 0-8 3.582031-8 8zm0 0"/><path d="m192 256h-48c-4.417969 0-8 3.582031-8 8s3.582031 8 8 8h48c4.421875 0 8-3.582031 8-8s-3.578125-8-8-8zm0 0"/><path d="m200 296c0-4.417969-3.578125-8-8-8h-144c-4.417969 0-8 3.582031-8 8s3.582031 8 8 8h144c4.421875 0 8-3.582031 8-8zm0 0"/><path d="m192 224h-40c-4.417969 0-8 3.582031-8 8s3.582031 8 8 8h40c4.421875 0 8-3.582031 8-8s-3.578125-8-8-8zm0 0"/><path d="m48 320c-4.417969 0-8 3.582031-8 8s3.582031 8 8 8h48c4.421875 0 8-3.582031 8-8s-3.578125-8-8-8zm0 0"/><path d="m128 320c-4.417969 0-8 3.582031-8 8s3.582031 8 8 8h16c4.421875 0 8-3.582031 8-8s-3.578125-8-8-8zm0 0"/><path d="m368 64c17.675781 0 32-14.328125 32-32s-14.324219-32-32-32c-17.671875 0-32 14.328125-32 32s14.328125 32 32 32zm0-48c8.839844 0 16 7.164062 16 16s-7.160156 16-16 16c-8.835938 0-16-7.164062-16-16s7.164062-16 16-16zm0 0"/><path d="m288 128h32c2.734375-.027344 5.441406-.523438 8-1.472656v97.472656h-16c-4.417969 0-8 3.582031-8 8s3.582031 8 8 8h88c4.421875 0 8-3.582031 8-8v-16c0-4.417969-3.578125-8-8-8-4.417969 0-8 3.582031-8 8v8h-16v-56c0-4.417969-3.578125-8-8-8-4.417969 0-8 3.582031-8 8v56h-16v-88h48v40c0 4.417969 3.582031 8 8 8 4.421875 0 8-3.582031 8-8v-25.472656c2.5625.949218 5.269531 1.445312 8 1.472656 13.257812 0 24-10.746094 24-24v-56c0-13.253906-10.742188-24-24-24-4.417969 0-8 3.582031-8 8s3.582031 8 8 8c4.421875 0 8 3.582031 8 8v8h-24c-4.417969 0-8 3.582031-8 8v32h-48v-32c0-4.417969-3.578125-8-8-8h-24v-8c0-4.417969 3.582031-8 8-8 4.421875 0 8-3.582031 8-8s-3.578125-8-8-8c-13.253906 0-24 10.746094-24 24v8h-8c-13.253906 0-24 10.746094-24 24s10.746094 24 24 24zm120-32h16v32c0 4.417969-3.578125 8-8 8-4.417969 0-8-3.582031-8-8zm-120 0h40v8c0 4.417969-3.578125 8-8 8h-32c-4.417969 0-8-3.582031-8-8s3.582031-8 8-8zm0 0"/><path d="m254.128906 343.777344 56 13.519531c4.296875 1.03125 8.617188-1.613281 9.652344-5.910156s-1.609375-8.617188-5.90625-9.652344l-56-13.511719c-2.804688-.738281-5.789062.097656-7.800781 2.183594-2.011719 2.089844-2.734375 5.101562-1.894531 7.875.839843 2.773438 3.117187 4.875 5.949218 5.496094zm0 0"/><path d="m457.882812 376.496094-88-21.238282c-4.296874-1.039062-8.621093 1.601563-9.660156 5.898438-1.039062 4.296875 1.601563 8.621094 5.898438 9.660156l88 21.238282c4.296875 1.039062 8.621094-1.601563 9.660156-5.898438s-1.601562-8.621094-5.898438-9.660156zm0 0"/><path d="m362.851562 464.519531-168-64c-4.132812-1.574219-8.757812.5-10.328124 4.632813-1.574219 4.128906.5 8.753906 4.628906 10.328125l168 64c4.132812 1.574219 8.757812-.5 10.328125-4.632813 1.574219-4.128906-.5-8.753906-4.628907-10.328125zm0 0"/><path d="m263.203125 276.097656 192 19.863282c.265625.027343.53125.039062.796875.039062 4.265625 0 7.78125-3.34375 7.992188-7.597656.214843-4.257813-2.949219-7.9375-7.191407-8.363282l-192-19.863281c-4.394531-.453125-8.328125 2.738281-8.78125 7.136719-.457031 4.394531 2.738281 8.328125 7.132813 8.785156zm0 0"/></svg>