<svg height="480pt" viewBox="0 0 480 480" width="480pt" xmlns="http://www.w3.org/2000/svg"><path d="m8 128h464c4.417969 0 8-3.582031 8-8s-3.582031-8-8-8h-26.585938l-29.980468-74.96875c-1.214844-3.039062-4.160156-5.03125-7.433594-5.03125h-16v-8c0-13.253906-10.746094-24-24-24h-32c-13.253906 0-24 10.746094-24 24v8h-240c-3.273438 0-6.21875 1.992188-7.433594 5.03125l-29.980468 74.96875h-26.585938c-4.417969 0-8 3.582031-8 8s3.582031 8 8 8zm358.304688-16-15.359376-64h17.597657l20.480469 64zm61.878906 0h-22.34375l-20.480469-64h17.226563zm-100.183594-88c0-4.417969 3.582031-8 8-8h32c4.417969 0 8 3.582031 8 8v8h-48zm-21.015625 65.265625c.621094 3.875 3.960937 6.730469 7.886719 6.734375.425781 0 .851562-.035156 1.273437-.105469 4.359375-.699219 7.328125-4.796875 6.632813-9.160156l-6.191406-38.734375h17.910156l15.351562 64h-62.464844l-5.117187-64h18.109375zm-40.769531-41.265625 5.121094 64h-23.335938v-40c0-4.417969-3.582031-8-8-8s-8 3.582031-8 8v40h-23.335938l5.121094-64zm-102.800782 0-6.191406 38.734375c-.554687 4.292969 2.398438 8.25 6.671875 8.933594 4.269531.683593 8.3125-2.152344 9.121094-6.402344l6.609375-41.265625h18.109375l-5.117187 64h-62.464844l15.351562-64zm-34.359374 0-15.359376 64h-22.734374l20.480468-64zm-51.640626 0h17.226563l-20.480469 64h-22.34375zm0 0"/><path d="m472 240h-464c-4.417969 0-8 3.582031-8 8s3.582031 8 8 8h24v208c0 8.835938 7.164062 16 16 16h64c4.417969 0 8-3.582031 8-8s-3.582031-8-8-8h-16v-104c0-13.253906 10.746094-24 24-24h40c13.253906 0 24 10.746094 24 24v104h-16c-4.417969 0-8 3.582031-8 8s3.582031 8 8 8h264c8.835938 0 16-7.164062 16-16v-208h24c4.417969 0 8-3.582031 8-8s-3.582031-8-8-8zm-80 16h32v16c0 8.835938-7.164062 16-16 16s-16-7.164062-16-16zm-16 0v16c0 8.835938-7.164062 16-16 16s-16-7.164062-16-16v-16zm-144 16c0 8.835938-7.164062 16-16 16s-16-7.164062-16-16v-16h32zm-48 0c0 8.835938-7.164062 16-16 16s-16-7.164062-16-16v-16h32zm-48 0c0 8.835938-7.164062 16-16 16s-16-7.164062-16-16v-16h32zm-48-16v16c0 8.835938-7.164062 16-16 16s-16-7.164062-16-16v-16zm112 208v-104c-.027344-22.082031-17.917969-39.972656-40-40h-40c-22.082031.027344-39.972656 17.917969-40 40v104h-32v-171.054688c6 7.015626 14.769531 11.054688 24 11.054688s18-4.039062 24-11.054688c6 7.015626 14.769531 11.054688 24 11.054688s18-4.039062 24-11.054688c6 7.015626 14.769531 11.054688 24 11.054688s18-4.039062 24-11.054688c6 7.015626 14.769531 11.054688 24 11.054688s18-4.039062 24-11.054688c8.710938 10.105469 22.800781 13.714844 35.296875 9.039063 12.5-4.671875 20.761719-16.640625 20.703125-29.984375 0-4.417969-3.582031-8-8-8s-8 3.582031-8 8c0 8.835938-7.164062 16-16 16s-16-7.164062-16-16v-16h80v16c-.058594 13.34375 8.203125 25.3125 20.703125 29.984375 12.496094 4.675781 26.585937 1.066406 35.296875-9.039063 6 7.015626 14.769531 11.054688 24 11.054688s18-4.039062 24-11.054688v171.054688zm0 0"/><path d="m152 152v40l-33.601562-44.800781c-2.066407-2.753907-5.660157-3.878907-8.929688-2.789063-3.265625 1.089844-5.46875 4.144532-5.46875 7.589844v40l-33.601562-44.800781c-2.066407-2.753907-5.660157-3.878907-8.929688-2.789063-3.265625 1.089844-5.46875 4.144532-5.46875 7.589844v64c0 4.417969 3.582031 8 8 8s8-3.582031 8-8v-40l33.601562 44.800781c2.066407 2.753907 5.660157 3.878907 8.929688 2.789063 3.265625-1.089844 5.46875-4.144532 5.46875-7.589844v-40l33.601562 44.800781c1.507813 2.011719 3.878907 3.199219 6.398438 3.199219 4.417969 0 8-3.582031 8-8v-64c0-4.417969-3.582031-8-8-8s-8 3.582031-8 8zm0 0"/><path d="m368 144c-4.417969 0-8 3.582031-8 8v64c0 4.417969 3.582031 8 8 8h48c4.417969 0 8-3.582031 8-8v-64c0-4.417969-3.582031-8-8-8zm8 16h32v16h-32zm0 48v-16h32v16zm0 0"/><path d="m320 144c-4.417969 0-8 3.582031-8 8v16h-8c-4.417969 0-8 3.582031-8 8v40c0 4.417969 3.582031 8 8 8h32c4.417969 0 8-3.582031 8-8v-40c0-4.417969-3.582031-8-8-8h-8v-16c0-4.417969-3.582031-8-8-8zm8 64h-16v-24h16zm0 0"/><path d="m248 152v40l-33.601562-44.800781c-2.066407-2.753907-5.660157-3.878907-8.929688-2.789063-3.265625 1.089844-5.46875 4.144532-5.46875 7.589844v64c0 4.417969 3.582031 8 8 8s8-3.582031 8-8v-40l33.601562 44.800781c1.507813 2.011719 3.878907 3.199219 6.398438 3.199219 4.417969 0 8-3.582031 8-8v-64c0-4.417969-3.582031-8-8-8s-8 3.582031-8 8zm0 0"/><path d="m168 408v-16c0-4.417969-3.582031-8-8-8s-8 3.582031-8 8v16c0 4.417969 3.582031 8 8 8s8-3.582031 8-8zm0 0"/><path d="m408 416h-16v-16c0-4.417969-3.582031-8-8-8s-8 3.582031-8 8v16h-.398438l-80-80h80.398438v16c0 4.417969 3.582031 8 8 8s8-3.582031 8-8v-16c0-8.835938-7.164062-16-16-16h-112c-8.835938 0-16 7.164062-16 16v80h-16c-4.417969 0-8 3.582031-8 8s3.582031 8 8 8h176c4.417969 0 8-3.582031 8-8s-3.582031-8-8-8zm-144-32.40625 32.398438 32.40625h-32.398438zm55.023438 32.40625-55.023438-55.03125v-24.96875h8.976562l80 80zm0 0"/></svg>