<svg height="480pt" viewBox="0 0 480.03361 480" width="480pt" xmlns="http://www.w3.org/2000/svg"><path d="m232.011719 464.015625h-175.542969l7.542969-135.554687c.246093-4.417969-3.132813-8.199219-7.550781-8.445313-4.417969-.25-8.203126 3.132813-8.449219 7.550781l-7.566407 136.449219h-24l15.140626-280h240.851562l2.613281 48.429687c.238281 4.417969 4.015625 7.808594 8.433594 7.570313 4.417969-.242187 7.804687-4.015625 7.566406-8.433594l-3.023437-56c-.230469-4.253906-3.753906-7.582031-8.015625-7.566406h-256c-4.253907-.007813-7.769531 3.316406-8 7.566406l-16.0000002 296c-.1171878 2.195313.6718752 4.34375 2.1835932 5.9375 1.515626 1.597657 3.617188 2.496094 5.816407 2.496094h224c4.417969 0 8-3.582031 8-8 0-4.421875-3.582031-8-8-8zm0 0"/><path d="m168.011719 304.015625h-16c-4.417969 0-8 3.578125-8 8v32c0 4.417969 3.582031 8 8 8h16c13.253906 0 24-10.746094 24-24 0-13.257813-10.746094-24-24-24zm0 32h-8v-16h8c4.417969 0 8 3.578125 8 8 0 4.417969-3.582031 8-8 8zm0 0"/><path d="m168.011719 272.015625h-64c-4.417969 0-8 3.578125-8 8v144c0 4.417969 3.582031 8 8 8h48c4.417969 0 8-3.582031 8-8v-40h8c30.929687 0 56-25.074219 56-56 0-30.929687-25.070313-56-56-56zm0 96h-16c-4.417969 0-8 3.578125-8 8v40h-32v-128h56c22.089843 0 40 17.90625 40 40 0 22.089844-17.910157 40-40 40zm0 0"/><path d="m232.011719 224.015625c0-13.257813-10.746094-24-24-24h-112c-13.253907 0-24 10.742187-24 24 0 13.253906 10.746093 24 24 24h64c4.417969 0 8-3.582031 8-8 0-4.421875-3.582031-8-8-8h-64c-4.417969 0-8-3.582031-8-8 0-4.421875 3.582031-8 8-8h112c4.417969 0 8 3.578125 8 8 0 4.417969-3.582031 8-8 8h-16c-4.417969 0-8 3.578125-8 8 0 4.417969 3.582031 8 8 8h16c13.253906 0 24-10.746094 24-24zm0 0"/><path d="m96.011719 122.679688h1.808593l4.144532 22.765624c.691406 3.800782 4 6.566407 7.863281 6.570313.480469 0 .960937-.046875 1.429687-.136719 4.328126-.808594 7.191407-4.964844 6.402344-9.296875l-3.617187-19.902343h23.738281l4.140625 22.765624c.691406 3.800782 4.003906 6.566407 7.867187 6.570313.480469 0 .957032-.046875 1.429688-.136719 4.328125-.808594 7.1875-4.964844 6.402344-9.296875l-3.433594-19.367187 108.328125 20.632812c.492187.101563.992187.15625 1.496094.167969 4.417969 0 8-3.582031 8-8v-24.800781c18.640625-3.785156 32.039062-20.179688 32.039062-39.199219 0-19.023437-13.398437-35.417969-32.039062-39.203125v-24.796875c0-2.386719-1.0625-4.644531-2.902344-6.164063-1.835937-1.519531-4.253906-2.140624-6.59375-1.695312l-112 21.335938c-.308594.09375-.609375.207031-.902344.335937-.394531.117187-.777343.265625-1.144531.441406-.523438.265625-1.007812.59375-1.449219.976563-.304687.234375-.59375.492187-.863281.769531-.417969.484375-.773438 1.023437-1.054688 1.597656-.183593.273438-.351562.5625-.496093.855469-.375.917969-.574219 1.894531-.59375 2.882812v26.664063h-64v-2.664063c0-8.839843 7.164062-16 16-16h16c4.417969 0 8-3.582031 8-8 0-4.417968-3.582031-8-8-8h-16c-17.671875 0-32 14.324219-32 32v37.328126c0 17.671874 14.328125 32 32 32zm192-50.664063c-.011719 10.167969-6.417969 19.226563-16 22.628906v-45.261719c9.582031 3.402344 15.988281 12.464844 16 22.632813zm-32-32v86.335937l-96-18.289062v-44.945312l72.945312-8.703126c4.386719-.523437 7.523438-4.503906 7.003907-8.890624-.523438-4.390626-4.503907-7.527344-8.894532-7.003907l-71.054687 8.488281v-11.042968l96-18.285156zm-112 32v34.664063h-48c-8.835938 0-16-7.164063-16-16v-18.664063zm0 0"/><path d="m320.011719 72.015625c0 4.417969 3.582031 8 8 8h24c4.417969 0 8-3.582031 8-8 0-4.421875-3.582031-8-8-8h-24c-4.417969 0-8 3.578125-8 8zm0 0"/><path d="m320.011719 32.015625c.859375-.003906 1.714843-.144531 2.527343-.417969l24-8c4.199219-1.394531 6.46875-5.929687 5.074219-10.128906-1.398437-4.195312-5.933593-6.46875-10.128906-5.070312l-24 8c-3.765625 1.210937-6.082031 4.988281-5.449219 8.894531.632813 3.902343 4.019532 6.761719 7.976563 6.722656zm0 0"/><path d="m317.484375 127.597656 24 8c4.195313 1.394532 8.730469-.875 10.128906-5.070312 1.394531-4.199219-.875-8.734375-5.074219-10.128906l-24-8c-4.195312-1.398438-8.730468.875-10.128906 5.070312-1.394531 4.199219.875 8.734375 5.074219 10.128906zm0 0"/><path d="m464.578125 263.421875c-.308594-4.183594-3.800781-7.417969-8-7.40625h-32.566406v-48c-.027344-22.082031-17.917969-39.976563-40-40h-32c-22.082031.023437-39.972657 17.917969-40 40v48h-32.59375c-4.195313-.011719-7.6875 3.222656-8 7.40625l-15.40625 208c-.164063 2.222656.605469 4.414063 2.125 6.042969 1.515625 1.632812 3.648437 2.554687 5.875 2.550781h112c4.417969 0 8-3.582031 8-8 0-4.421875-3.582031-8-8-8h-103.382813l14.214844-192h162.335938l14.214843 192h-39.382812c-4.417969 0-8 3.578125-8 8 0 4.417969 3.582031 8 8 8h48c2.226562.003906 4.359375-.917969 5.875-2.550781 1.519531-1.628906 2.289062-3.820313 2.125-6.042969zm-136.566406-7.40625v-48c0-13.257813 10.746093-24 24-24h32c13.253906 0 24 10.742187 24 24v48zm0 0"/><path d="m368.011719 328.015625h-20c-4.417969 0-8 3.578125-8 8v72c0 4.417969 3.582031 8 8 8s8-3.582031 8-8v-24h12c15.464843 0 28-12.539063 28-28 0-15.464844-12.535157-28-28-28zm0 40h-12v-24h12c6.628906 0 12 5.371094 12 12 0 6.625-5.371094 12-12 12zm0 0"/><path d="m336.011719 288.015625h-24c-4.417969 0-8 3.578125-8 8 0 4.417969 3.582031 8 8 8h24c4.417969 0 8-3.582031 8-8 0-4.421875-3.582031-8-8-8zm0 0"/><path d="m424.011719 304.015625c4.417969 0 8-3.582031 8-8 0-4.421875-3.582031-8-8-8h-24c-4.417969 0-8 3.578125-8 8 0 4.417969 3.582031 8 8 8zm0 0"/><path d="m400.011719 432.015625h-72c-4.417969 0-8 3.578125-8 8 0 4.417969 3.582031 8 8 8h72c4.417969 0 8-3.582031 8-8 0-4.421875-3.582031-8-8-8zm0 0"/></svg>