<svg height="480pt" viewBox="-8 0 480 480" width="480pt" xmlns="http://www.w3.org/2000/svg"><path d="m304 464h-136v-16c0-4.417969 3.582031-8 8-8h112c4.417969 0 8-3.582031 8-8s-3.582031-8-8-8h-8v-8c-.039062-10.132812-6.445312-19.148438-16-22.527344v-41.472656h8c11.613281.050781 21.585938-8.234375 23.667969-19.65625 2.082031-11.425781-4.328125-22.695312-15.210938-26.742188 10.039063-11.535156 15.5625-26.3125 15.542969-41.601562 0-35.347656-28.652344-64-64-64-35.34375 0-64 28.652344-64 64 0 4.417969 3.582031 8 8 8s8-3.582031 8-8c-.039062-22.949219 16.167969-42.71875 38.683594-47.175781 22.515625-4.453125 45.03125 7.652343 53.734375 28.890625 8.699219 21.238281 1.152343 45.664062-18.015625 58.285156h-66.402344c-13.253906 0-24 10.746094-24 24s10.746094 24 24 24h8v41.472656c-9.554688 3.378906-15.957031 12.394532-16 22.527344v8h-8c-13.253906 0-24 10.746094-24 24h-96c-4.417969 0-8-3.582031-8-8v-160c0-4.417969-3.582031-8-8-8s-8 3.582031-8 8v160c0 13.253906 10.746094 24 24 24h96v8c0 4.417969 3.582031 8 8 8h144c4.417969 0 8-3.582031 8-8s-3.582031-8-8-8zm-120-136c0-4.417969 3.582031-8 8-8h80c4.417969 0 8 3.582031 8 8s-3.582031 8-8 8h-80c-4.417969 0-8-3.582031-8-8zm64 24v40h-32v-40zm-48 64c0-4.417969 3.582031-8 8-8h48c4.417969 0 8 3.582031 8 8v8h-64zm0 0"/><path d="m248 264c0 4.417969 3.582031 8 8 8s8-3.582031 8-8c0-17.671875-14.324219-32-32-32-4.417969 0-8 3.582031-8 8s3.582031 8 8 8c8.835938 0 16 7.164062 16 16zm0 0"/><path d="m260.289062 175.59375c3.125 3.121094 8.1875 3.121094 11.3125 0 21.867188-21.871094 21.867188-57.328125-.003906-79.195312-21.867187-21.871094-57.324218-21.871094-79.195312 0-21.867188 21.867187-21.867188 57.324218 0 79.195312 3.136718 3.03125 8.128906 2.988281 11.214844-.097656 3.085937-3.085938 3.128906-8.078125.097656-11.214844-15.621094-15.625-15.617188-40.949219.003906-56.566406 15.621094-15.621094 40.945312-15.621094 56.566406 0 15.621094 15.617187 15.621094 40.941406.003906 56.566406-3.125 3.121094-3.125 8.1875 0 11.3125zm0 0"/><path d="m325.65625 234.671875 19.480469-19.472656c3.125-3.125 3.125-8.1875 0-11.3125l-20.601563-20.605469c2.515625-4.917969 4.628906-10.027344 6.320313-15.28125h29.144531c4.417969 0 8-3.582031 8-8v-48c0-4.417969-3.582031-8-8-8h-29.144531c-1.691407-5.253906-3.804688-10.363281-6.320313-15.28125l20.601563-20.597656c3.125-3.125 3.125-8.1875 0-11.3125l-33.9375-33.953125c-3.171875-3-8.136719-3-11.308594 0l-20.609375 20.609375c-4.914062-2.515625-10.023438-4.628906-15.28125-6.320313v-29.144531c0-4.417969-3.582031-8-8-8h-48c-4.417969 0-8 3.582031-8 8v29.144531c-5.253906 1.691407-10.363281 3.804688-15.277344 6.320313l-20.601562-20.609375c-3.125-3.121094-8.1875-3.121094-11.3125 0l-33.945313 33.945312c-3.121093 3.125-3.121093 8.1875 0 11.3125l20.601563 20.597657c-2.511719 4.917968-4.625 10.027343-6.320313 15.28125h-29.144531c-4.417969 0-8 3.582031-8 8v48c0 4.417968 3.582031 8 8 8h29.144531c1.695313 5.253906 3.808594 10.363281 6.320313 15.28125l-20.601563 20.597656c-3.121093 3.125-3.121093 8.1875 0 11.3125l19.480469 19.480468c2.011719 2.078126 4.984375 2.914063 7.78125 2.179688 2.796875-.730469 4.980469-2.914062 5.714844-5.710938.730468-2.796874-.101563-5.773437-2.183594-7.78125l-13.824219-13.824218 19.199219-19.199219c2.585938-2.582031 3.089844-6.585937 1.234375-9.726563-4.167969-7.0625-7.316406-14.675781-9.359375-22.617187-.914062-3.53125-4.097656-6-7.746094-6h-27.160156v-31.984375h27.152344c3.648437 0 6.832031-2.46875 7.746094-6 2.042968-7.941406 5.191406-15.554688 9.359374-22.617188 1.855469-3.144531 1.351563-7.144531-1.234374-9.726562l-19.199219-19.199219 22.632812-22.632812 19.199219 19.199219c2.582031 2.578124 6.578125 3.085937 9.722656 1.234374 7.0625-4.167968 14.679688-7.316406 22.621094-9.363281 3.53125-.910156 6-4.09375 6-7.742187v-27.152344h32v27.152344c0 3.648437 2.46875 6.832031 6 7.742187 7.945312 2.046875 15.558594 5.195313 22.625 9.363281 3.140625 1.851563 7.140625 1.34375 9.71875-1.234374l19.203125-19.199219 22.628906 22.632812-19.199219 19.199219c-2.582031 2.582031-3.089843 6.582031-1.230468 9.726562 4.164062 7.0625 7.316406 14.675782 9.359375 22.617188.910156 3.53125 4.097656 6 7.742187 6h27.152344v32h-27.152344c-3.644531 0-6.832031 2.46875-7.742187 6-2.042969 7.941406-5.195313 15.554688-9.359375 22.617188-1.859375 3.144531-1.351563 7.144531 1.230468 9.726562l19.199219 19.199219-13.832031 13.816406c-2.078125 2.007813-2.914062 4.984375-2.179688 7.78125.730469 2.796875 2.914063 4.980469 5.710938 5.714844 2.800781.730469 5.773438-.105469 7.78125-2.183594zm0 0"/><path d="m424 312c-4.417969 0-8 3.582031-8 8v112c0 4.417969 3.582031 8 8 8s8-3.582031 8-8v-112c0-4.417969-3.582031-8-8-8zm0 0"/><path d="m462.65625 75.558594-32-48c-1.570312-2.097656-4.035156-3.332032-6.65625-3.332032-2.617188 0-5.085938 1.234376-6.65625 3.332032l-32 48c-1.636719 2.457031-1.789062 5.613281-.398438 8.214844 1.394532 2.601562 4.105469 4.226562 7.054688 4.226562h24v96c0 4.417969 3.582031 8 8 8s8-3.582031 8-8v-96h24c2.953125 0 5.664062-1.625 7.054688-4.226562 1.394531-2.601563 1.238281-5.757813-.398438-8.214844zm-55.703125-3.558594 17.046875-25.601562 17.050781 25.601562zm0 0"/><path d="m424 208c-4.417969 0-8 3.582031-8 8v16c0 4.417969 3.582031 8 8 8s8-3.582031 8-8v-16c0-4.417969-3.582031-8-8-8zm0 0"/><path d="m424 264c-4.417969 0-8 3.582031-8 8v16c0 4.417969 3.582031 8 8 8s8-3.582031 8-8v-16c0-4.417969-3.582031-8-8-8zm0 0"/><path d="m352 264c-17.671875 0-32 14.328125-32 32s14.328125 32 32 32c17.675781 0 32-14.328125 32-32s-14.324219-32-32-32zm0 48c-8.835938 0-16-7.164062-16-16s7.164062-16 16-16 16 7.164062 16 16-7.164062 16-16 16zm0 0"/><path d="m374.625 369.375c-3.125-3.121094-8.1875-3.121094-11.3125 0l-11.3125 11.3125-11.3125-11.3125c-3.136719-3.03125-8.128906-2.988281-11.214844.097656-3.085937 3.085938-3.128906 8.078125-.09375 11.214844l11.308594 11.3125-11.308594 11.3125c-2.082031 2.007812-2.914062 4.984375-2.183594 7.78125.730469 2.796875 2.917969 4.980469 5.714844 5.710938 2.796875.734374 5.769532-.101563 7.777344-2.179688l11.3125-11.3125 11.3125 11.3125c3.140625 3.03125 8.128906 2.988281 11.214844-.097656 3.085937-3.085938 3.128906-8.078125.097656-11.214844l-11.3125-11.3125 11.3125-11.3125c3.125-3.125 3.125-8.1875 0-11.3125zm0 0"/><path d="m65.34375 284.441406c2.453125 3.675782 7.421875 4.667969 11.097656 2.214844 3.675782-2.453125 4.667969-7.421875 2.214844-11.097656l-32-48c-1.570312-2.097656-4.035156-3.332032-6.65625-3.332032-2.617188 0-5.085938 1.234376-6.65625 3.332032l-32 48c-2.449219 3.675781-1.457031 8.644531 2.21875 11.097656s8.640625 1.460938 11.09375-2.214844l25.34375-38.042968zm0 0"/><path d="m40 176c17.675781 0 32-14.328125 32-32s-14.324219-32-32-32c-17.671875 0-32 14.328125-32 32s14.328125 32 32 32zm0-48c8.835938 0 16 7.164062 16 16s-7.164062 16-16 16-16-7.164062-16-16 7.164062-16 16-16zm0 0"/><path d="m89.378906 399.59375c3.121094 3.121094 8.1875 3.121094 11.308594 0l11.3125-11.3125 11.3125 11.3125c2.007812 2.078125 4.984375 2.910156 7.78125 2.179688 2.796875-.730469 4.980469-2.917969 5.710938-5.714844.734374-2.796875-.101563-5.769532-2.179688-7.777344l-11.3125-11.3125 11.3125-11.3125c2.078125-2.007812 2.914062-4.984375 2.179688-7.78125-.730469-2.796875-2.914063-4.980469-5.710938-5.710938-2.796875-.734374-5.773438.101563-7.78125 2.179688l-11.3125 11.3125-11.3125-11.3125c-3.136719-3.03125-8.128906-2.988281-11.214844.097656-3.085937 3.085938-3.128906 8.074219-.09375 11.214844l11.308594 11.3125-11.308594 11.3125c-3.125 3.121094-3.125 8.1875 0 11.3125zm0 0"/></svg>