<svg height="480pt" viewBox="0 0 480.12711 480" width="480pt" xmlns="http://www.w3.org/2000/svg"><path d="m475.703125 209-48-24c-.070313 0-.160156 0-.238281-.0625-1.015625-.304688-2.046875-.546875-3.089844-.726562-.089844 0-.160156-.050782-.246094-.050782h-64c-4.421875 0-8 3.582032-8 8 0 4.421875 3.578125 8 8 8h56v48h-56c-4.421875 0-8 3.582032-8 8 0 4.421875 3.578125 8 8 8h56v16h-80v-48h56c4.417969 0 8-3.578125 8-8 0-4.417968-3.582031-8-8-8h-56v-24c-.019531-.96875-.210937-1.929687-.570312-2.832031-.121094-.273437-.257813-.539063-.40625-.796875-.292969-.578125-.65625-1.113281-1.082032-1.601562-.210937-.246094-.4375-.476563-.679687-.695313-.738281-.589844-1.542969-1.09375-2.398437-1.496094-.113282-.046875-.199219-.128906-.320313-.167969l-96-32c-2.441406-.820312-5.128906-.414062-7.21875 1.09375-2.089844 1.503907-3.328125 3.921876-3.324219 6.496094v40.800782c-18.644531 3.785156-32.042968 20.179687-32.042968 39.199218 0 19.023438 13.398437 35.417969 32.042968 39.203125v40.796875c0 4.421875 3.578125 8 8 8 .855469 0 1.710938-.136718 2.527344-.40625l94.773438-31.59375h21.097656l-9.921875 54.539063c-2.671875 14.9375 6.871093 29.335937 21.671875 32.691406 14.796875 3.355469 29.621094-5.519531 33.648437-20.148437l18.3125-67.082032h9.890625c4.417969 0 8-3.578125 8-8v-83.054687l32 16v38.113281l-11.578125 5.78125c-3.953125 1.976562-5.558593 6.785156-3.582031 10.738281 1.972656 3.953125 6.78125 5.558594 10.734375 3.582031l16-8c2.710937-1.355468 4.425781-4.125 4.425781-7.160156v-48c0-3.03125-1.714844-5.804687-4.425781-7.160156zm-267.574219 31.160156c.039063-10.132812 6.445313-19.148437 16-22.527344v45.058594c-9.554687-3.378906-15.960937-12.394531-16-22.53125zm32-68.902344 80 26.671876v15.128906l-45.472656-15.152344c-4.199219-1.398438-8.734375.875-10.128906 5.070312-1.394532 4.199219.875 8.734376 5.070312 10.128907l50.53125 16.824219v52.464843l-80 26.671875zm140.375 187.777344c-1.761718 6.382813-8.230468 10.257813-14.691406 8.789063-6.457031-1.464844-10.621094-7.75-9.453125-14.269531l10.449219-57.394532h30.839844zm0 0"/><path d="m168.128906 240.160156c0 4.421875-3.582031 8-8 8-4.421875 0-8-3.578125-8-8 0-4.417968 3.578125-8 8-8 4.417969 0 8 3.582032 8 8zm0 0"/><path d="m284.046875 341.21875c2.792969-3.425781 2.277344-8.46875-1.148437-11.261719-3.425782-2.792969-8.46875-2.277343-11.257813 1.148438-25.527344 31.367187-63.128906 50.476562-103.511719 52.609375v-40c12.230469-.886719 24.203125-3.964844 35.351563-9.082032 3.632812-2.046874 5.082031-6.546874 3.328125-10.332031-1.753906-3.785156-6.121094-5.585937-10.035156-4.140625-9.042969 4.15625-18.734376 6.71875-28.644532 7.578125v-40.3125c3.851563-.644531 7.613282-1.753906 11.199219-3.304687 4.023437-1.78125 5.851563-6.480469 4.09375-10.515625-1.761719-4.03125-6.453125-5.886719-10.496094-4.148438-13.414062 5.894531-29.117187 1.925781-38.121093-9.632812-9.003907-11.5625-9.003907-27.761719 0-39.324219 9.003906-11.558594 24.707031-15.527344 38.121093-9.632812 4.042969 1.738281 8.734375-.117188 10.496094-4.148438 1.757813-4.035156-.070313-8.734375-4.09375-10.515625-3.585937-1.550781-7.347656-2.660156-11.199219-3.304687v-40.3125c9.910156.859374 19.601563 3.421874 28.644532 7.574218 4.011718 1.851563 8.765624.101563 10.617187-3.910156s.101563-8.765625-3.910156-10.617188c-11.148438-5.105468-23.121094-8.167968-35.351563-9.046874v-40c40.382813 2.132812 77.984375 21.242187 103.511719 52.609374 2.789063 3.425782 7.832031 3.9375 11.257813 1.148438 3.425781-2.792969 3.941406-7.835938 1.148437-11.261719-42.753906-52.480469-113.902344-72.378906-177.675781-49.6875-63.773438 22.6875-106.371094 83.054688-106.371094 150.742188 0 67.691406 42.597656 128.054687 106.371094 150.746093 63.773437 22.6875 134.921875 2.789063 177.675781-49.6875zm-131.917969-53.777344v40.3125c-42.234375-3.90625-75.6875-37.359375-79.59375-79.59375h40.3125c3.433594 20.101563 19.179688 35.847656 39.28125 39.28125zm-39.28125-55.28125h-40.3125c3.90625-42.230468 37.359375-75.683594 79.59375-79.589844v40.3125c-20.101562 3.433594-35.847656 19.179688-39.28125 39.277344zm39.28125-135.589844v40c-51.054687 3.984376-91.609375 44.539063-95.59375 95.589844h-40c4.136719-73.101562 62.488282-131.453125 135.59375-135.589844zm-135.59375 151.589844h40c3.984375 51.054688 44.539063 91.609375 95.59375 95.59375v40c-73.105468-4.136718-131.457031-62.488281-135.59375-135.59375zm0 0"/><path d="m336.128906 144.160156c-4.421875 0-8 3.582032-8 8 0 4.421875 3.578125 8 8 8h64c4.417969 0 8-3.578125 8-8 0-4.417968-3.582031-8-8-8zm0 0"/><path d="m288.128906 112.160156c0 4.421875 3.578125 8 8 8h56c4.417969 0 8-3.578125 8-8 0-4.417968-3.582031-8-8-8h-56c-4.421875 0-8 3.582032-8 8zm0 0"/><path d="m400.128906 120.160156h48c4.417969 0 8-3.578125 8-8 0-4.417968-3.582031-8-8-8h-48c-4.421875 0-8 3.582032-8 8 0 4.421875 3.578125 8 8 8zm0 0"/><path d="m472.128906 328.160156h-40c-4.421875 0-8 3.582032-8 8 0 4.421875 3.578125 8 8 8h40c4.417969 0 8-3.578125 8-8 0-4.417968-3.582031-8-8-8zm0 0"/><path d="m370.472656 419.875-39.601562 39.597656c-6.328125 6.046875-16.292969 6.046875-22.625 0l-11.320313-11.3125 11.3125-11.308594c1.960938-1.960937 2.769531-4.800781 2.132813-7.496093-.640625-2.699219-2.628906-4.878907-5.261719-5.753907l-50.902344-16.96875c-2.875-.957031-6.042969-.210937-8.1875 1.933594-2.144531 2.144532-2.890625 5.3125-1.933593 8.1875l16.976562 50.910156c.878906 2.628907 3.054688 4.613282 5.75 5.25 2.699219.632813 5.53125-.171874 7.492188-2.128906l11.320312-11.3125 11.300781 11.3125c12.496094 12.492188 32.753907 12.492188 45.25 0l39.597657-39.597656c3.035156-3.140625 2.988281-8.128906-.097657-11.214844-3.085937-3.085937-8.074219-3.128906-11.210937-.097656zm-98.34375 30.445312-7.824218-23.453124 23.453124 7.824218zm0 0"/><path d="m256.128906 78.386719c.859375 0 1.710938-.136719 2.527344-.410157l50.917969-16.976562c4.199219-1.398438 6.46875-5.933594 5.070312-10.128906-1.398437-4.199219-5.9375-6.46875-10.132812-5.070313l-35.738281 11.960938 11.90625-35.761719c1.394531-4.195312-.875-8.730469-5.074219-10.125-4.195313-1.398438-8.730469.875-10.125 5.070312l-16.96875 50.914063c-.816407 2.441406-.402344 5.128906 1.109375 7.214844 1.507812 2.085937 3.929687 3.320312 6.507812 3.3125zm0 0"/><path d="m290.0625 44.449219c2.121094 0 4.15625-.84375 5.65625-2.34375l28.289062-28.289063c2.078126-2.007812 2.914063-4.980468 2.179688-7.777344-.730469-2.796874-2.914062-4.984374-5.710938-5.714843-2.796874-.730469-5.773437.101562-7.78125 2.183593l-28.289062 28.285157c-2.285156 2.289062-2.96875 5.730469-1.734375 8.71875 1.238281 2.988281 4.15625 4.9375 7.390625 4.9375zm0 0"/></svg>