<svg height="480pt" viewBox="-8 0 480 480" width="480pt" xmlns="http://www.w3.org/2000/svg"><path d="m312 328h-37.808594c20.039063-17.570312 27.09375-45.71875 17.707032-70.664062-9.386719-24.941407-33.246094-41.460938-59.898438-41.460938s-50.511719 16.519531-59.898438 41.460938c-9.386718 24.945312-2.332031 53.09375 17.707032 70.664062h-37.808594c-22.082031.027344-39.972656 17.917969-40 40v104c0 4.417969 3.582031 8 8 8s8-3.582031 8-8v-104c0-13.253906 10.746094-24 24-24h36.6875l35.3125 35.3125v92.6875c0 4.417969 3.582031 8 8 8s8-3.582031 8-8v-92.6875l35.3125-35.3125h36.6875c13.253906 0 24 10.746094 24 24v104c0 4.417969 3.582031 8 8 8s8-3.582031 8-8v-104c-.027344-22.082031-17.917969-39.972656-40-40zm-128-48c0-26.507812 21.492188-48 48-48s48 21.492188 48 48-21.492188 48-48 48c-26.5-.027344-47.972656-21.5-48-48zm48 84.6875-20.6875-20.6875h41.375zm0 0"/><path d="m168 392c-4.417969 0-8 3.582031-8 8v72c0 4.417969 3.582031 8 8 8s8-3.582031 8-8v-72c0-4.417969-3.582031-8-8-8zm0 0"/><path d="m296 392c-4.417969 0-8 3.582031-8 8v72c0 4.417969 3.582031 8 8 8s8-3.582031 8-8v-72c0-4.417969-3.582031-8-8-8zm0 0"/><path d="m424 256h-37.808594c18.941406-16.578125 26.378906-42.734375 18.996094-66.796875s-28.207031-41.546875-53.1875-44.652344v-32.550781h32c8.835938 0 16-7.164062 16-16v-80c0-8.835938-7.164062-16-16-16h-304c-8.835938 0-16 7.164062-16 16v16c0 4.417969 3.582031 8 8 8s8-3.582031 8-8v-16h304v80h-40c-4.417969 0-8 3.582031-8 8v25.902344l-25.847656-31.03125c-1.523438-1.824219-3.777344-2.875-6.152344-2.871094h-40c-3.164062 0-6.027344 1.863281-7.3125 4.753906l-24.6875 55.550782-24.6875-55.550782c-1.285156-2.890625-4.148438-4.753906-7.3125-4.753906h-32c-2.375-.003906-4.628906 1.046875-6.152344 2.871094l-25.847656 31.03125v-25.902344c0-4.417969-3.582031-8-8-8h-48v-16c0-4.417969-3.582031-8-8-8s-8 3.582031-8 8v16c0 8.835938 7.164062 16 16 16h40v32c-26.640625-.039062-50.511719 16.449219-59.902344 41.382812-9.390625 24.929688-2.335937 53.070313 17.710938 70.617188h-37.808594c-22.082031.027344-39.9726562 17.917969-40 40v120c0 17.671875 14.328125 32 32 32 5.632812-.03125 11.15625-1.570312 16-4.449219v28.449219c0 4.417969 3.582031 8 8 8s8-3.582031 8-8v-64h16c4.417969 0 8-3.582031 8-8s-3.582031-8-8-8h-16v-64c0-4.417969-3.582031-8-8-8s-8 3.582031-8 8v64h-32v-96c0-13.253906 10.746094-24 24-24h36.6875l37.65625 37.65625c3.140625 3.03125 8.128906 2.988281 11.214844-.097656 3.085937-3.085938 3.128906-8.074219.097656-11.214844l-26.34375-26.34375h36.6875c4.417969 0 8-3.582031 8-8s-3.582031-8-8-8h-16c-26.507812 0-48-21.492188-48-48s21.492188-48 48-48 48 21.492188 48 48c0 4.417969 3.582031 8 8 8s8-3.582031 8-8c-.046875-26.898438-16.894531-50.898438-42.175781-60.089844l29.929687-35.910156h23.054688l29.878906 67.246094c1.285156 2.894531 4.148438 4.757812 7.3125 4.757812s6.027344-1.863281 7.3125-4.757812l29.878906-67.246094h31.054688l28.304687 33.96875c-28.488281 7.101562-48.5 32.667969-48.550781 62.03125 0 4.417969 3.582031 8 8 8s8-3.582031 8-8c0-26.507812 21.492188-48 48-48s48 21.492188 48 48-21.492188 48-48 48h-16c-4.417969 0-8 3.582031-8 8s3.582031 8 8 8h36.6875l-26.34375 26.34375c-2.078125 2.007812-2.914062 4.984375-2.179688 7.78125.730469 2.796875 2.914063 4.980469 5.710938 5.710938 2.796875.734374 5.773438-.101563 7.78125-2.179688l37.65625-37.65625h36.6875c13.253906 0 24 10.746094 24 24v96h-32v-64c0-4.417969-3.582031-8-8-8s-8 3.582031-8 8v64h-16c-4.417969 0-8 3.582031-8 8s3.582031 8 8 8h16v64c0 4.417969 3.582031 8 8 8s8-3.582031 8-8v-28.449219c4.84375 2.878907 10.367188 4.417969 16 4.449219 17.671875 0 32-14.328125 32-32v-120c-.027344-22.082031-17.917969-39.972656-40-40zm-376 152v8c0 8.835938-7.164062 16-16 16s-16-7.164062-16-16v-8zm400 8c0 8.835938-7.164062 16-16 16s-16-7.164062-16-16v-8h32zm0 0"/><path d="m112 48h48c4.417969 0 8-3.582031 8-8s-3.582031-8-8-8h-48c-4.417969 0-8 3.582031-8 8s3.582031 8 8 8zm0 0"/><path d="m272 32h-64c-4.417969 0-8 3.582031-8 8s3.582031 8 8 8h64c4.417969 0 8-3.582031 8-8s-3.582031-8-8-8zm0 0"/><path d="m360 48c4.417969 0 8-3.582031 8-8s-3.582031-8-8-8h-40c-4.417969 0-8 3.582031-8 8s3.582031 8 8 8zm0 0"/><path d="m112 80h56c4.417969 0 8-3.582031 8-8s-3.582031-8-8-8h-56c-4.417969 0-8 3.582031-8 8s3.582031 8 8 8zm0 0"/><path d="m232 72c0 4.417969 3.582031 8 8 8h96c4.417969 0 8-3.582031 8-8s-3.582031-8-8-8h-96c-4.417969 0-8 3.582031-8 8zm0 0"/></svg>