<svg height="480pt" viewBox="0 0 480 480.0169" width="480pt" xmlns="http://www.w3.org/2000/svg"><path d="m352.007812 248.015625c0-8.835937-7.164062-16-16-16h-48c-8.835937 0-16 7.164063-16 16v56c0 4.417969 3.582032 8 8 8 4.417969 0 8-3.582031 8-8v-24h48v24c0 4.417969 3.582032 8 8 8 4.417969 0 8-3.582031 8-8v-40h24v32h-4c-4.417968 0-8 3.582031-8 8s3.582032 8 8 8h12c4.417969 0 8-3.582031 8-8v-80c-.042968-10.132813-6.445312-19.148437-16-22.527344v-25.472656c0-13.253906-10.746093-24-24-24-13.253906 0-24 10.746094-24 24v24h-8c-4.417968 0-8 3.582031-8 8s3.582032 8 8 8h48c4.417969 0 8 3.582031 8 8v24zm-64 16v-16h48v16zm56-64v-24c0-4.417969 3.582032-8 8-8 4.417969 0 8 3.582031 8 8v24zm0 0"/><path d="m184.007812 160.015625c0-4.417969-3.582031-8-8-8-4.417968 0-8 3.582031-8 8v15.351563l-27-21.597657c-2.402343-1.921875-5.691406-2.296875-8.464843-.964843-2.773438 1.332031-4.535157 4.136718-4.535157 7.210937v15.351563l-27-21.597657c-2.402343-1.921875-5.691406-2.296875-8.464843-.964843-2.773438 1.332031-4.535157 4.136718-4.535157 7.210937v15.351563l-27-21.597657c-2.402343-1.921875-5.691406-2.296875-8.464843-.964843-2.773438 1.332031-4.535157 4.136718-4.535157 7.210937v32c0 4.417969 3.582032 8 8 8 4.417969 0 8-3.582031 8-8v-15.351563l27 21.601563c2.402344 1.921875 5.695313 2.296875 8.464844.964844 2.773438-1.332031 4.535156-4.136719 4.535156-7.214844v-15.351563l27 21.601563c2.402344 1.921875 5.695313 2.296875 8.464844.964844 2.773438-1.332031 4.535156-4.136719 4.535156-7.214844v-15.351563l27 21.601563c2.402344 1.921875 5.695313 2.296875 8.464844.964844 2.773438-1.332031 4.535156-4.136719 4.535156-7.214844zm0 0"/><path d="m128.007812 232.015625h-56c-4.417968 0-8 3.582031-8 8s3.582032 8 8 8h56c4.417969 0 8-3.582031 8-8s-3.582031-8-8-8zm0 0"/><path d="m160.007812 232.015625c-4.417968 0-8 3.582031-8 8s3.582032 8 8 8h16c4.417969 0 8-3.582031 8-8s-3.582031-8-8-8zm0 0"/><path d="m40.007812 272.015625c0 4.417969 3.582032 8 8 8h128c4.417969 0 8-3.582031 8-8s-3.582031-8-8-8h-128c-4.417968 0-8 3.582031-8 8zm0 0"/><path d="m48.007812 312.015625h40c4.417969 0 8-3.582031 8-8s-3.582031-8-8-8h-40c-4.417968 0-8 3.582031-8 8s3.582032 8 8 8zm0 0"/><path d="m120.007812 296.015625c-4.417968 0-8 3.582031-8 8s3.582032 8 8 8h24c4.417969 0 8-3.582031 8-8s-3.582031-8-8-8zm0 0"/><path d="m240.007812 312.015625v-152c0-4.417969-3.582031-8-8-8-4.417968 0-8 3.582031-8 8v152c0 4.417969 3.582032 8 8 8 4.417969 0 8-3.582031 8-8zm0 0"/><path d="m432.007812 208.015625c4.417969 0 8-3.582031 8-8v-48c0-4.417969-3.582031-8-8-8-4.417968 0-8 3.582031-8 8v48c0 4.417969 3.582032 8 8 8zm0 0"/><path d="m424.007812 312.015625c0 4.417969 3.582032 8 8 8 4.417969 0 8-3.582031 8-8v-40c0-4.417969-3.582031-8-8-8-4.417968 0-8 3.582031-8 8zm0 0"/><path d="m456.007812 112.015625h-160.640624c-2.949219-20.191406-16.636719-37.191406-35.734376-44.382813l31.910157-23.199218c3.742187 2.328125 8.058593 3.566406 12.464843 3.582031 7.371094.070313 14.359376-3.28125 18.917969-9.074219 4.558594-5.796875 6.167969-13.378906 4.363281-20.523437l5.421876-3.945313c3.574218-2.597656 4.367187-7.601562 1.769531-11.175781-2.597657-3.574219-7.601563-4.367187-11.175781-1.769531l-4.800782 3.488281c-4.144531-3.222656-9.242187-4.9804688-14.496094-5-13.253906 0-24 10.746094-24 24 .027344 2.714844.523438 5.40625 1.464844 7.953125l-41.464844 30.160156-41.464843-30.160156c.941406-2.546875 1.4375-5.238281 1.464843-7.953125 0-13.253906-10.746093-24-24-24-5.257812.0195312-10.363281 1.785156-14.511718 5.015625l-4.800782-3.488281c-3.574218-2.597657-8.578124-1.804688-11.175781 1.769531-2.597656 3.574219-1.804687 8.578125 1.769531 11.175781l5.421876 3.945313c-2.328126 9.417968 1.28125 19.3125 9.128906 25.019531s18.371094 6.089844 26.617187.972656l31.910157 23.199219c-19.09375 7.195312-32.773438 24.199219-35.71875 44.390625h-160.640626c-13.253906 0-23.9999995 10.746094-23.9999995 24v88c0 4.417969 3.5820315 8 7.9999995 8 4.417969 0 8-3.582031 8-8v-88c0-4.417969 3.582032-8 8-8h432c4.417969 0 8 3.582031 8 8v200h-256c-4.417968 0-8 3.582031-8 8s3.582032 8 8 8h256v40c0 4.417969-3.582031 8-8 8h-432c-4.417968 0-8-3.582031-8-8v-40h128c4.417969 0 8-3.582031 8-8s-3.582031-8-8-8h-128v-32c0-4.417969-3.582031-8-8-8-4.417968 0-7.9999995 3.582031-7.9999995 8v88c0 13.257813 10.7460935 24 23.9999995 24h80v24c.027344 22.082031 17.921876 39.976563 40 40h224c4.417969 0 8-3.582031 8-8s-3.582031-8-8-8h-216v-16h216c4.417969 0 8-3.582031 8-8s-3.582031-8-8-8h-24v-16h112c13.253907 0 24-10.742187 24-24v-256c0-13.253906-10.746093-24-24-24zm-152-96c3.625-.003906 6.796876 2.429687 7.738282 5.929687.9375 3.5-.59375 7.191407-3.730469 9.003907-3.140625 1.808593-7.105469 1.28125-9.664063-1.285157v-.0625c-2.234374-2.292968-2.886718-5.703124-1.65625-8.660156 1.230469-2.957031 4.109376-4.894531 7.3125-4.925781zm-136 8c-.019531-3.613281 2.390626-6.792969 5.875-7.753906 3.484376-.957031 7.179688.535156 9.015626 3.652343 1.835937 3.113282 1.355468 7.070313-1.171876 9.65625v.0625c-2.273437 2.328126-5.734374 3.042969-8.75 1.8125-3.011718-1.234374-4.976562-4.171874-4.96875-7.429687zm72 56c19 .023437 35.375 13.390625 39.199219 32h-78.398437c3.828125-18.609375 20.199218-31.976563 39.199218-32zm-120 360v-24h16v46.527344c-9.554687-3.375-15.957031-12.390625-16-22.527344zm208-8h-176v-16h176zm0 0"/><path d="m424.007812 384.015625c4.417969 0 8-3.582031 8-8s-3.582031-8-8-8h-56c-4.417968 0-8 3.582031-8 8s3.582032 8 8 8zm0 0"/><path d="m336.007812 384.015625c4.417969 0 8-3.582031 8-8s-3.582031-8-8-8h-16c-4.417968 0-8 3.582031-8 8s3.582032 8 8 8zm0 0"/></svg>