<svg height="480pt" viewBox="0 -24 480 480" width="480pt" xmlns="http://www.w3.org/2000/svg"><path d="m360 320c-30.929688 0-56 25.070312-56 56s25.070312 56 56 56 56-25.070312 56-56c-.035156-30.914062-25.085938-55.964844-56-56zm0 96c-22.089844 0-40-17.910156-40-40s17.910156-40 40-40 40 17.910156 40 40c-.027344 22.082031-17.917969 39.972656-40 40zm0 0"/><path d="m120 352c-13.253906 0-24 10.746094-24 24s10.746094 24 24 24 24-10.746094 24-24-10.746094-24-24-24zm0 32c-4.417969 0-8-3.582031-8-8s3.582031-8 8-8 8 3.582031 8 8-3.582031 8-8 8zm0 0"/><path d="m376 368c-4.417969 0-8 3.582031-8 8s-3.582031 8-8 8-8-3.582031-8-8-3.582031-8-8-8-8 3.582031-8 8c0 13.253906 10.746094 24 24 24s24-10.746094 24-24c0-4.417969-3.582031-8-8-8zm0 0"/><path d="m280 368h-104v-64h208c4.417969 0 8-3.582031 8-8s-3.582031-8-8-8h-208v-88c0-4.417969-3.582031-8-8-8h-96c-39.746094.042969-71.9570312 32.253906-72 72v112c0 4.417969 3.582031 8 8 8h56.640625c3.953125 27.535156 27.542969 47.976562 55.359375 47.976562s51.40625-20.441406 55.359375-47.976562h104.640625c4.417969 0 8-3.582031 8-8s-3.582031-8-8-8zm-264-104c.035156-30.914062 25.085938-55.964844 56-56h88v128.800781c-.070312-.074219-.160156-.136719-.230469-.214843-.625-.625-1.289062-1.203126-1.9375-1.792969-.648437-.59375-1.34375-1.273438-2.054687-1.863281-.714844-.59375-1.402344-1.074219-2.097656-1.601563-.695313-.527344-1.464844-1.144531-2.230469-1.671875-.769531-.527344-1.511719-.9375-2.273438-1.398438-.761719-.464843-1.550781-.992187-2.359375-1.441406-.808594-.449218-1.640625-.800781-2.464844-1.207031-.824218-.410156-1.597656-.800781-2.449218-1.183594-.847656-.386719-1.8125-.683593-2.726563-1.011719-.910156-.324218-1.601562-.636718-2.398437-.894531-1.007813-.320312-2.050782-.542969-3.074219-.800781-.800781-.191406-1.535156-.429688-2.320313-.589844-1.175781-.25-2.398437-.394531-3.597656-.5625-.664062-.09375-1.3125-.230468-1.992187-.300781-1.925781-.1875-3.859375-.277344-5.792969-.265625-1.847656 0-3.679688.105469-5.480469.28125-.597656.054688-1.183593.167969-1.777343.246094-1.199219.152344-2.398438.3125-3.558594.542968-.695313.136719-1.367188.320313-2.054688.480469-1.039062.25-2.082031.496094-3.105468.800781-.710938.207032-1.398438.457032-2.09375.695313-.96875.335937-1.9375.671875-2.882813 1.058594-.6875.277343-1.367187.582031-2.046875.894531-.910156.40625-1.808594.800781-2.695312 1.296875-.664063.351563-1.320313.703125-1.96875 1.078125-.863282.488281-1.703126 1.007812-2.535157 1.546875-.632812.398437-1.25.796875-1.855469 1.230469-.800781.574218-1.601562 1.175781-2.402343 1.792968-.574219.445313-1.152344.886719-1.703125 1.359376-.800782.664062-1.527344 1.367187-2.273438 2.070312-.511718.472656-1.023437.9375-1.511718 1.433594-.796876.800781-1.488282 1.597656-2.214844 2.398437-.40625.472657-.800782.921875-1.222656 1.402344-.847657 1.039063-1.640626 2.117187-2.402344 3.199219-.214844.320312-.460938.605468-.679688.925781-.960937 1.425781-1.851562 2.894531-2.679687 4.410156-.238281.429688-.429688.886719-.65625 1.328125-.566407 1.101563-1.128907 2.214844-1.597657 3.359375-.257812.609375-.472656 1.230469-.722656 1.855469-.390625 1.007812-.800781 2.015625-1.117187 3.054688-.226563.691406-.410157 1.402343-.601563 2.105468-.28125 1-.550781 1.992188-.800781 3.007813-.167969.753906-.296875 1.503906-.429687 2.273437-.113282.605469-.265626 1.199219-.355469 1.816406h-16.574219v-15.945312c0-8.835938-7.164062-16-16-16h-16v-32h88c4.417969 0 8-3.582031 8-8v-48c0-4.417969-3.582031-8-8-8s-8 3.582031-8 8v40h-80zm0 104v-16h16v16zm104 48c-22.089844 0-40-17.910156-40-40s17.910156-40 40-40 40 17.910156 40 40c-.027344 22.082031-17.917969 39.972656-40 40zm0 0"/><path d="m472 240c-4.417969 0-8 3.582031-8 8v40h-24c-4.417969 0-8 3.582031-8 8s3.582031 8 8 8h24v56c0 4.417969-3.582031 8-8 8h-16c-4.417969 0-8 3.582031-8 8s3.582031 8 8 8h16c13.253906 0 24-10.746094 24-24v-112c0-4.417969-3.582031-8-8-8zm0 0"/><path d="m456 120h-104v-29.390625l45.800781 13.085937c.714844.199219 1.457031.300782 2.199219.304688 3.996094.007812 7.382812-2.933594 7.9375-6.890625s-1.894531-7.714844-5.738281-8.804687l-50.199219-14.335938v-19.9375l40-11.421875v13.390625c0 4.417969 3.582031 8 8 8s8-3.582031 8-8v-24c0-2.511719-1.175781-4.878906-3.179688-6.390625-2.007812-1.511719-4.605468-1.996094-7.019531-1.304687l-45.800781 13.085937v-5.390625c0-17.671875-14.328125-32-32-32s-32 14.328125-32 32v5.390625l-45.800781-13.085937c-2.414063-.691407-5.011719-.207032-7.019531 1.304687-2.003907 1.511719-3.179688 3.878906-3.179688 6.390625v64c0 4.417969 3.582031 8 8 8 .742188 0 1.484375-.105469 2.199219-.304688l45.800781-13.085937v29.390625h-104c-13.253906 0-24 10.746094-24 24v24c0 4.417969 3.582031 8 8 8s8-3.582031 8-8v-24c0-4.417969 3.582031-8 8-8h272c4.417969 0 8 3.582031 8 8v40c0 4.417969 3.582031 8 8 8s8-3.582031 8-8v-40c0-13.253906-10.746094-24-24-24zm-152-88c0-8.835938 7.164062-16 16-16s16 7.164062 16 16v8h-32zm-56 53.390625v-42.78125l40 11.421875v19.9375zm56 34.609375v-64h32v16h-8c-4.417969 0-8 3.582031-8 8s3.582031 8 8 8h8v32zm0 0"/><path d="m184 72h16c4.417969 0 8-3.582031 8-8s-3.582031-8-8-8h-16c-4.417969 0-8 3.582031-8 8s3.582031 8 8 8zm0 0"/><path d="m188.425781 31.199219 16 8c3.953125 1.976562 8.757813.371093 10.734375-3.582031 1.976563-3.957032.371094-8.761719-3.585937-10.738282l-16-8c-3.953125-1.972656-8.757813-.371094-10.734375 3.585938-1.976563 3.953125-.371094 8.761718 3.585937 10.734375zm0 0"/><path d="m204.425781 88.839844-16 8c-3.957031 1.976562-5.5625 6.78125-3.585937 10.734375 1.976562 3.957031 6.78125 5.5625 10.734375 3.585937l16-8c3.957031-1.976562 5.5625-6.78125 3.585937-10.734375-1.976562-3.957031-6.78125-5.5625-10.734375-3.585937zm0 0"/><path d="m432 64c0 4.417969 3.582031 8 8 8h16c4.417969 0 8-3.582031 8-8s-3.582031-8-8-8h-16c-4.417969 0-8 3.582031-8 8zm0 0"/><path d="m432 40c1.238281 0 2.460938-.289062 3.566406-.839844l16-8c3.957032-1.976562 5.5625-6.78125 3.585938-10.734375-1.976563-3.957031-6.78125-5.5625-10.738282-3.585937l-16 8c-3.324218 1.65625-5.070312 5.386718-4.214843 9 .855469 3.617187 4.085937 6.167968 7.800781 6.160156zm0 0"/><path d="m428.425781 103.199219 16 8c3.953125 1.976562 8.757813.371093 10.734375-3.582031 1.976563-3.957032.371094-8.761719-3.585937-10.738282l-16-8c-3.953125-1.972656-8.757813-.371094-10.734375 3.585938-1.976563 3.953125-.371094 8.761718 3.585937 10.734375zm0 0"/><path d="m416 176c4.417969 0 8-3.582031 8-8s-3.582031-8-8-8h-16c-2.121094 0-4.15625.84375-5.65625 2.34375l-18.34375 18.34375-18.34375-18.34375c-1.5-1.5-3.535156-2.34375-5.65625-2.34375h-16c-4.417969 0-8 3.582031-8 8s3.582031 8 8 8h12.6875l8 8h-20.6875c-4.417969 0-8 3.582031-8 8v16c0 4.417969 3.582031 8 8 8s8-3.582031 8-8v-8h24v56h-24v-8c0-4.417969-3.582031-8-8-8s-8 3.582031-8 8v16c0 4.417969 3.582031 8 8 8h80c4.417969 0 8-3.582031 8-8v-72c0-4.417969-3.582031-8-8-8h-20.6875l8-8zm-8 80h-24v-56h24zm0 0"/><path d="m224 224c-4.417969 0-8 3.582031-8 8s3.582031 8 8 8h64c4.417969 0 8-3.582031 8-8s-3.582031-8-8-8zm0 0"/><path d="m288 256h-16c-4.417969 0-8 3.582031-8 8s3.582031 8 8 8h16c4.417969 0 8-3.582031 8-8s-3.582031-8-8-8zm0 0"/><path d="m304 200v-32c0-4.417969-3.582031-8-8-8s-8 3.582031-8 8v32c0 4.417969 3.582031 8 8 8s8-3.582031 8-8zm0 0"/><path d="m264 160c-4.417969 0-8 3.582031-8 8v12.6875l-18.34375-18.34375c-2.289062-2.285156-5.730469-2.972656-8.71875-1.734375s-4.9375 4.15625-4.9375 7.390625v12.6875l-18.34375-18.34375c-2.289062-2.285156-5.730469-2.972656-8.71875-1.734375s-4.9375 4.15625-4.9375 7.390625v32c0 4.417969 3.582031 8 8 8s8-3.582031 8-8v-12.6875l18.34375 18.34375c2.289062 2.285156 5.730469 2.972656 8.71875 1.734375s4.9375-4.15625 4.9375-7.390625v-12.6875l18.34375 18.34375c1.5 1.5 3.535156 2.34375 5.65625 2.34375 1.050781.003906 2.09375-.203125 3.0625-.609375 2.988281-1.238281 4.9375-4.15625 4.9375-7.390625v-32c0-4.417969-3.582031-8-8-8zm0 0"/><path d="m200 272h40c4.417969 0 8-3.582031 8-8s-3.582031-8-8-8h-40c-4.417969 0-8 3.582031-8 8s3.582031 8 8 8zm0 0"/></svg>