<svg height="480pt" viewBox="0 0 480 480.00004" width="480pt" xmlns="http://www.w3.org/2000/svg"><path d="m152 312c-4.417969 0-8 3.582031-8 8v40c0 4.417969-3.582031 8-8 8h-112c-4.417969 0-8-3.582031-8-8v-192c0-4.417969 3.582031-8 8-8h112c4.417969 0 8 3.582031 8 8v16c0 4.417969 3.582031 8 8 8s8-3.582031 8-8v-16c0-13.253906-10.746094-24-24-24h-112c-13.253906 0-24 10.746094-24 24v192c0 13.253906 10.746094 24 24 24h112c13.253906 0 24-10.746094 24-24v-40c0-4.417969-3.582031-8-8-8zm0 0"/><path d="m190.566406 200.136719-87.261718 15.863281h-23.304688c-17.671875 0-32 14.328125-32 32s14.328125 32 32 32h23.304688l16.695312 3.039062v12.960938c0 4.417969-3.582031 8-8 8h-16c-4.417969 0-8-3.582031-8-8s-3.582031-8-8-8-8 3.582031-8 8c0 13.253906 10.746094 24 24 24h16c13.253906 0 24-10.746094 24-24v-10.054688l54.566406 9.917969c.472656.09375.953125.140625 1.433594.136719 4.417969 0 8-3.582031 8-8v-80c0-2.371094-1.050781-4.625-2.871094-6.144531-1.816406-1.535157-4.226562-2.167969-6.5625-1.71875zm-126.566406 47.863281c0-8.835938 7.164062-16 16-16h16v32h-16c-8.835938 0-16-7.164062-16-16zm120 30.398438-72-13.09375v-34.640626l72-13.0625zm0 0"/><path d="m56 344c0 4.417969 3.582031 8 8 8h32c4.417969 0 8-3.582031 8-8s-3.582031-8-8-8h-32c-4.417969 0-8 3.582031-8 8zm0 0"/><path d="m48 192h72c4.417969 0 8-3.582031 8-8s-3.582031-8-8-8h-80c-4.417969 0-8 3.582031-8 8v24c0 4.417969 3.582031 8 8 8s8-3.582031 8-8zm0 0"/><path d="m40 280c-4.417969 0-8 3.582031-8 8v24c0 4.417969 3.582031 8 8 8h16c4.417969 0 8-3.582031 8-8s-3.582031-8-8-8h-8v-16c0-4.417969-3.582031-8-8-8zm0 0"/><path d="m219.792969 238.808594c2.355469 1.457031 5.300781 1.589844 7.78125.351562l30.3125-15.160156h30.113281c13.253906 0 24-10.746094 24-24v-32c0-13.253906-10.746094-24-24-24h-48c-13.253906 0-24 10.746094-24 24v64c0 2.773438 1.433594 5.347656 3.792969 6.808594zm12.207031-70.808594c0-4.417969 3.582031-8 8-8h48c4.417969 0 8 3.582031 8 8v32c0 4.417969-3.582031 8-8 8h-32c-1.242188 0-2.464844.285156-3.574219.839844l-20.425781 10.214844zm0 0"/><path d="m272 192c4.417969 0 8-3.582031 8-8s-3.582031-8-8-8h-16c-4.417969 0-8 3.582031-8 8s3.582031 8 8 8zm0 0"/><path d="m235.792969 118.808594c2.355469 1.457031 5.300781 1.589844 7.78125.351562l30.3125-15.160156h30.113281c13.253906 0 24-10.746094 24-24v-32c0-13.253906-10.746094-24-24-24h-48c-13.253906 0-24 10.746094-24 24v64c0 2.773438 1.433594 5.347656 3.792969 6.808594zm12.207031-70.808594c0-4.417969 3.582031-8 8-8h48c4.417969 0 8 3.582031 8 8v32c0 4.417969-3.582031 8-8 8h-32c-1.242188 0-2.464844.285156-3.574219.839844l-20.425781 10.214844zm0 0"/><path d="m288 72c4.417969 0 8-3.582031 8-8s-3.582031-8-8-8h-16c-4.417969 0-8 3.582031-8 8s3.582031 8 8 8zm0 0"/><path d="m456 0h-48c-13.253906 0-24 10.746094-24 24v64c0 2.773438 1.433594 5.347656 3.792969 6.808594 2.355469 1.457031 5.300781 1.589844 7.78125.351562l30.3125-15.160156h30.113281c13.253906 0 24-10.746094 24-24v-32c0-13.253906-10.746094-24-24-24zm8 56c0 4.417969-3.582031 8-8 8h-32c-1.242188 0-2.464844.285156-3.574219.839844l-20.425781 10.214844v-51.054688c0-4.417969 3.582031-8 8-8h48c4.417969 0 8 3.582031 8 8zm0 0"/><path d="m440 32h-16c-4.417969 0-8 3.582031-8 8s3.582031 8 8 8h16c4.417969 0 8-3.582031 8-8s-3.582031-8-8-8zm0 0"/><path d="m456 248h-48c-13.253906 0-24 10.746094-24 24v16c0 4.417969 3.582031 8 8 8s8-3.582031 8-8v-16c0-4.417969 3.582031-8 8-8h48c4.417969 0 8 3.582031 8 8v32c0 4.417969-3.582031 8-8 8s-8 3.582031-8 8 3.582031 8 8 8c13.253906 0 24-10.746094 24-24v-32c0-13.253906-10.746094-24-24-24zm0 0"/><path d="m440 280h-16c-4.417969 0-8 3.582031-8 8s3.582031 8 8 8h16c4.417969 0 8-3.582031 8-8s-3.582031-8-8-8zm0 0"/><path d="m266.34375 370.34375-10.34375 10.34375v-28.6875c0-4.417969-3.582031-8-8-8h-16v-72h104v16c0 4.417969 3.582031 8 8 8s8-3.582031 8-8v-16c0-8.835938-7.164062-16-16-16h-104c-8.835938 0-16 7.164062-16 16v72c0 8.835938 7.164062 16 16 16h8v40c0 3.234375 1.949219 6.152344 4.9375 7.390625.96875.40625 2.011719.613281 3.0625.609375 2.121094 0 4.15625-.84375 5.65625-2.34375l24-24c3.03125-3.140625 2.988281-8.128906-.097656-11.214844-3.085938-3.085937-8.074219-3.128906-11.214844-.097656zm0 0"/><path d="m272 288h-16c-4.417969 0-8 3.582031-8 8s3.582031 8 8 8h16c4.417969 0 8-3.582031 8-8s-3.582031-8-8-8zm0 0"/><path d="m360 176v40c0 3.234375 1.949219 6.152344 4.9375 7.390625.96875.40625 2.011719.613281 3.0625.609375 2.121094 0 4.15625-.84375 5.65625-2.34375l45.65625-45.65625h36.6875c8.835938 0 16-7.164062 16-16v-56c0-4.417969-3.582031-8-8-8s-8 3.582031-8 8v56h-40c-2.121094 0-4.15625.84375-5.65625 2.34375l-34.34375 34.34375v-28.6875c0-4.417969-3.582031-8-8-8h-8v-80c4.417969 0 8-3.582031 8-8s-3.582031-8-8-8c-8.835938 0-16 7.164062-16 16v80c0 8.835938 7.164062 16 16 16zm0 0"/><path d="m440 96h-40c-4.417969 0-8 3.582031-8 8s3.582031 8 8 8h40c4.417969 0 8-3.582031 8-8s-3.582031-8-8-8zm0 0"/><path d="m440 128h-24c-4.417969 0-8 3.582031-8 8s3.582031 8 8 8h24c4.417969 0 8-3.582031 8-8s-3.582031-8-8-8zm0 0"/><path d="m392 136c0 4.417969-3.582031 8-8 8s-8-3.582031-8-8 3.582031-8 8-8 8 3.582031 8 8zm0 0"/><path d="m416 312h-96c-13.253906 0-24 10.746094-24 24v80c0 13.253906 10.746094 24 24 24v32c0 3.234375 1.949219 6.152344 4.9375 7.390625.96875.40625 2.011719.613281 3.0625.609375 2.121094 0 4.15625-.84375 5.65625-2.34375l37.65625-37.65625h44.6875c13.253906 0 24-10.746094 24-24v-80c0-13.253906-10.746094-24-24-24zm8 104c0 4.417969-3.582031 8-8 8h-48c-2.121094 0-4.15625.84375-5.65625 2.34375l-26.34375 26.34375v-20.6875c0-4.417969-3.582031-8-8-8h-8c-4.417969 0-8-3.582031-8-8v-80c0-4.417969 3.582031-8 8-8h96c4.417969 0 8 3.582031 8 8zm0 0"/><path d="m395.574219 368.839844-48-24c-2.480469-1.238282-5.425781-1.105469-7.78125.351562-2.359375 1.460938-3.792969 4.035156-3.792969 6.808594v48c-.015625 2.78125 1.414062 5.367188 3.773438 6.835938 2.363281 1.46875 5.316406 1.605468 7.800781.363281l48-24c2.71875-1.351563 4.433593-4.125 4.433593-7.160157 0-3.03125-1.714843-5.804687-4.433593-7.160156zm-43.574219 18.214844v-22.109376l22.113281 11.054688zm0 0"/></svg>