<svg height="480pt" viewBox="0 0 480 480.0894" width="480pt" xmlns="http://www.w3.org/2000/svg"><path d="m152.042969 176.089844c-4.417969 0-8 3.582031-8 8v48c0 4.417968 3.582031 8 8 8h128c4.421875 0 8-3.582032 8-8v-96c0-4.417969-3.578125-8-8-8h-128c-4.417969 0-8 3.582031-8 8 0 4.417968 3.582031 8 8 8h120v80h-112v-40c0-4.417969-3.578125-8-8-8zm0 0"/><path d="m196.042969 212.089844c1.242187 0 2.46875-.285156 3.578125-.839844l40-20c2.714844-1.355469 4.429687-4.125 4.429687-7.160156s-1.714843-5.808594-4.429687-7.160156l-40-20c-2.480469-1.238282-5.425782-1.105469-7.785156.351562-2.359376 1.460938-3.792969 4.035156-3.792969 6.808594v40c0 4.417968 3.582031 8 8 8zm8-35.054688 14.113281 7.054688-14.113281 7.054687zm0 0"/><path d="m128.042969 136.089844c0 4.417968-3.578125 8-8 8-4.417969 0-8-3.582032-8-8 0-4.417969 3.582031-8 8-8 4.421875 0 8 3.582031 8 8zm0 0"/><path d="m128.042969 168.089844c0 4.417968-3.578125 8-8 8-4.417969 0-8-3.582032-8-8 0-4.417969 3.582031-8 8-8 4.421875 0 8 3.582031 8 8zm0 0"/><path d="m120.042969 200.089844c-4.417969 0-8 3.582031-8 8v24c0 4.417968 3.582031 8 8 8 4.421875 0 8-3.582032 8-8v-24c0-4.417969-3.578125-8-8-8zm0 0"/><path d="m252.042969 32.089844c-13.253907 0-24 10.746094-24 24s10.746093 24 24 24c13.257812 0 24-10.746094 24-24s-10.742188-24-24-24zm0 32c-4.417969 0-8-3.582032-8-8 0-4.417969 3.582031-8 8-8 4.421875 0 8 3.582031 8 8 0 4.417968-3.578125 8-8 8zm0 0"/><path d="m152.042969 72.089844c0 4.417968-3.578125 8-8 8-4.417969 0-8-3.582032-8-8 0-4.417969 3.582031-8 8-8 4.421875 0 8 3.582031 8 8zm0 0"/><path d="m168.042969 384.089844c1.238281.011718 2.464843-.261719 3.578125-.800782l48-24c2.714844-1.351562 4.429687-4.125 4.429687-7.160156s-1.714843-5.804687-4.429687-7.160156l-48-24c-2.472656-1.234375-5.410156-1.105469-7.769532.34375-2.355468 1.449219-3.792968 4.011719-3.808593 6.777344v48c0 4.417968 3.582031 8 8 8zm8-43.054688 22.113281 11.054688-22.113281 11.054687zm0 0"/><path d="m384.042969 288.089844c-10.4375.035156-19.652344 6.835937-22.765625 16.800781l-49.234375 6.136719v-14.9375c0-4.417969-3.578125-8-8-8h-144c-4.417969 0-8 3.582031-8 8 0 4.417968 3.582031 8 8 8h136v96h-40c-4.417969 0-8 3.582031-8 8 0 4.417968 3.582031 8 8 8h40v16h-224v-16h136c4.421875 0 8-3.582032 8-8 0-4.417969-3.578125-8-8-8h-136v-96h56c4.421875 0 8-3.582032 8-8 0-4.417969-3.578125-8-8-8h-64c-4.417969 0-8 3.582031-8 8v120h-32c-4.417969 0-8-3.582032-8-8v-168c0-4.417969 3.582031-8 8-8h56c.027343 22.078125 17.921875 39.972656 40 40h80c4.421875 0 8-3.582032 8-8 0-4.417969-3.578125-8-8-8h-80c-13.253907 0-24-10.746094-24-24v-96c0-13.253906 10.746093-24 24-24h160c13.257812 0 24 10.746094 24 24v96c0 13.253906-10.742188 24-24 24h-32c-4.417969 0-8 3.582031-8 8 0 4.417968 3.582031 8 8 8h32c22.082031-.027344 39.976562-17.921875 40-40v-8h46.113281l62.3125 31.199218c2.488281 1.242188 5.441406 1.105469 7.800781-.363281s3.789063-4.054687 3.773438-6.835937v-128c.003906-2.773438-1.433594-5.347656-3.789063-6.808594-2.359375-1.457031-5.304687-1.589844-7.785156-.351562l-62.3125 31.160156h-46.113281v-8c-.058594-18.320313-12.558594-34.253906-30.335938-38.679688 16.972657-15.453125 22.800781-39.695312 14.699219-61.171875-8.101562-21.476562-28.484375-35.835937-51.433594-36.2304685-22.949218-.3945315-43.816406 13.2539065-52.648437 34.4414065-8.835938 21.183593-3.847657 45.613281 12.585937 61.640625h-37.074218c5.296874-6.882813 8.179687-15.316406 8.207031-24 0-4.417969-3.578125-8-8-8-4.417969 0-8 3.582031-8 8 0 13.253906-10.742188 24-24 24-13.253907 0-24-10.746094-24-24s10.746093-24 24-24c4.421875 0 8-3.582032 8-8 0-4.417969-3.578125-8-8-8-22.078125.027344-39.972657 17.917968-40 40 .035156 9.003906 3.140625 17.726562 8.800781 24.726562-18.96875 3.472656-32.761719 19.988282-32.800781 39.273438h-48c-2.402344 0-4.675781 1.078125-6.195313 2.9375-1.519531 1.863281-2.125 4.308594-1.644531 6.660156l14.082031 70.402344h-14.242187c-13.253907 0-24.0000002 10.746094-24.0000002 24v168c0 13.253906 10.7460932 24 24.0000002 24h32v8c0 4.417968 3.582031 8 8 8h83.058593l-8 16h-27.058593c-4.417969 0-8 3.582031-8 8 0 4.417968 3.582031 8 8 8h144c4.421875 0 8-3.582032 8-8 0-4.417969-3.578125-8-8-8h-27.054688l-8-16h83.054688c4.421875 0 8-3.582032 8-8v-38.9375l49.234375 6.152344c3.527344 11.300781 14.789062 18.320312 26.488281 16.515624 11.699219-1.804687 20.320313-11.894531 20.277344-23.730468v-88c0-13.253906-10.742188-24-24-24zm-24-128v24c0 4.417968 3.582031 8 8 8 4.421875 0 8-3.582032 8-8v-27.054688l48-24v102.109375l-52.421875-26.214843c-.074219 0-.160156 0-.242188-.0625-.515625-.195313-1.050781-.335938-1.597656-.417969-.496094-.152344-1.003906-.257813-1.519531-.3125-.089844 0-.160157-.046875-.25-.046875h-47.96875v-48zm-148-104c0-22.09375 17.910156-40 40-40 22.09375 0 40 17.90625 40 40 0 22.089844-17.90625 40-40 40-22.078125-.027344-39.972657-17.921875-40-40zm-132 96v64h-25.4375l-12.800781-64zm131.058593 312h-54.113281l8-16h38.113281zm180.941407-64c0 4.417968-3.578125 8-8 8-4.417969 0-8-3.582032-8-8v-24c0-4.417969-3.578125-8-8-8-4.417969 0-8 3.582031-8 8v14.9375l-48-6v-57.875l48-6v14.9375c0 4.417968 3.582031 8 8 8 4.421875 0 8-3.582032 8-8v-24c0-4.417969 3.582031-8 8-8 4.421875 0 8 3.582031 8 8zm0 0"/><path d="m472.042969 344.089844h-32c-4.417969 0-8 3.582031-8 8 0 4.417968 3.582031 8 8 8h32c4.421875 0 8-3.582032 8-8 0-4.417969-3.578125-8-8-8zm0 0"/><path d="m424.285156 306.027344c.886719 3.5625 4.085938 6.0625 7.757813 6.0625.660156 0 1.316406-.082032 1.953125-.242188l32-8c4.257812-1.097656 6.828125-5.425781 5.761718-9.6875-1.070312-4.265625-5.378906-6.867187-9.648437-5.832031l-32 8c-4.285156 1.070313-6.894531 5.410156-5.824219 9.699219zm0 0"/><path d="m465.988281 400.328125-32-8c-4.269531-1.035156-8.582031 1.566406-9.648437 5.832031-1.066406 4.261719 1.503906 8.589844 5.761718 9.6875l32 8c.636719.160156 1.289063.238282 1.941407.242188 4.039062-.003906 7.441406-3.015625 7.933593-7.023438.492188-4.007812-2.078124-7.753906-5.996093-8.738281zm0 0"/></svg>